<?plantuml 1.2026.2?><svg xmlns="http://www.w3.org/2000/svg" xmlns:xlink="http://www.w3.org/1999/xlink" contentStyleType="text/css" data-diagram-type="DESCRIPTION" height="569px" preserveAspectRatio="none" style="width:2021px;height:569px;background:#FFFFFF;" version="1.1" viewBox="0 0 2021 569" width="2021px" zoomAndPan="magnify"><title>Book Context &#8212; Catalog Management
Qu&#7843;n l&#253; Danh m&#7909;c S&#225;ch</title><defs/><g><g class="title" data-source-line="4"><text fill="#000000" font-family="sans-serif" font-size="14" font-weight="bold" lengthAdjust="spacing" textLength="297.835" x="854.9974" y="22.9951">Book Context &#8212; Catalog Management</text><text fill="#000000" font-family="sans-serif" font-size="14" font-weight="bold" lengthAdjust="spacing" textLength="186.3545" x="910.7376" y="39.292">Qu&#7843;n l&#253; Danh m&#7909;c S&#225;ch</text></g><!--cluster book.domain--><g class="cluster" data-qualified-name="book.domain" data-source-line="6" id="ent0002"><path d="M816.5,238.1938 L919.8271,238.1938 A3.75,3.75 0 0 1 922.3271,240.6938 L929.3271,260.4906 L1733.5,260.4906 A2.5,2.5 0 0 1 1736,262.9906 L1736,552.0238 A2.5,2.5 0 0 1 1733.5,554.5238 L816.5,554.5238 A2.5,2.5 0 0 1 814,552.0238 L814,240.6938 A2.5,2.5 0 0 1 816.5,238.1938" fill="#90EE90" style="stroke:#000000;stroke-width:1.5;"/><line style="stroke:#000000;stroke-width:1.5;" x1="814" x2="929.3271" y1="260.4906" y2="260.4906"/><text fill="#000000" font-family="sans-serif" font-size="14" font-weight="bold" lengthAdjust="spacing" textLength="102.3271" x="818" y="253.1889">book.domain</text><text fill="#000000" font-family="sans-serif" font-size="14" font-style="italic" lengthAdjust="spacing" textLength="115.0898" x="1221.4551" y="275.4857">&#171;Domain Layer&#187;</text></g><!--cluster book.infrastructure--><g class="cluster" data-qualified-name="book.infrastructure" data-source-line="16" id="ent0010"><path d="M178.5,59.5938 L333.8486,59.5938 A3.75,3.75 0 0 1 336.3486,62.0938 L343.3486,81.8906 L580.5,81.8906 A2.5,2.5 0 0 1 583,84.3906 L583,365.2838 A2.5,2.5 0 0 1 580.5,367.7838 L178.5,367.7838 A2.5,2.5 0 0 1 176,365.2838 L176,62.0938 A2.5,2.5 0 0 1 178.5,59.5938" fill="#D3D3D3" style="stroke:#000000;stroke-width:1.5;"/><line style="stroke:#000000;stroke-width:1.5;" x1="176" x2="343.3486" y1="81.8906" y2="81.8906"/><text fill="#000000" font-family="sans-serif" font-size="14" font-weight="bold" lengthAdjust="spacing" textLength="154.3486" x="180" y="74.5889">book.infrastructure</text><text fill="#000000" font-family="sans-serif" font-size="14" font-style="italic" lengthAdjust="spacing" textLength="156.8711" x="305.0645" y="96.8857">&#171;Infrastructure Layer&#187;</text></g><!--cluster shared--><g class="cluster" data-qualified-name="shared" data-source-line="22" id="ent0014"><path d="M8.5,416.7838 L63.668,416.7838 A3.75,3.75 0 0 1 66.168,419.2838 L73.168,439.0806 L787.5,439.0806 A2.5,2.5 0 0 1 790,441.5806 L790,560.1738 A2.5,2.5 0 0 1 787.5,562.6738 L8.5,562.6738 A2.5,2.5 0 0 1 6,560.1738 L6,419.2838 A2.5,2.5 0 0 1 8.5,416.7838" fill="#E6E6FA" style="stroke:#000000;stroke-width:1.5;"/><line style="stroke:#000000;stroke-width:1.5;" x1="6" x2="73.168" y1="439.0806" y2="439.0806"/><text fill="#000000" font-family="sans-serif" font-size="14" font-weight="bold" lengthAdjust="spacing" textLength="54.168" x="10" y="431.7789">shared</text><text fill="#000000" font-family="sans-serif" font-size="14" font-style="italic" lengthAdjust="spacing" textLength="116.252" x="343.874" y="454.0757">&#171;Shared Kernel&#187;</text></g><!--cluster purchase--><g class="cluster" data-qualified-name="purchase" data-source-line="29" id="ent0019"><path d="M1357.5,59.5938 L1430.9336,59.5938 A3.75,3.75 0 0 1 1433.4336,62.0938 L1440.4336,81.8906 L1899.5,81.8906 A2.5,2.5 0 0 1 1902,84.3906 L1902,186.6938 A2.5,2.5 0 0 1 1899.5,189.1938 L1357.5,189.1938 A2.5,2.5 0 0 1 1355,186.6938 L1355,62.0938 A2.5,2.5 0 0 1 1357.5,59.5938" fill="#FFF8E8" style="stroke:#000000;stroke-width:1.5;"/><line style="stroke:#000000;stroke-width:1.5;" x1="1355" x2="1440.4336" y1="81.8906" y2="81.8906"/><text fill="#000000" font-family="sans-serif" font-size="14" font-weight="bold" lengthAdjust="spacing" textLength="72.4336" x="1359" y="74.5889">purchase</text><text fill="#000000" font-family="sans-serif" font-size="14" font-style="italic" lengthAdjust="spacing" textLength="140.9502" x="1562.0249" y="96.8857">&#171;Purchase Context&#187;</text></g><!--entity Book--><g class="entity" data-qualified-name="book.domain.Book" data-source-line="7" id="ent0003"><rect fill="#F1F1F1" height="62.5938" rx="2.5" ry="2.5" style="stroke:#181818;stroke-width:0.5;" width="169.3672" x="1356.32" y="289.1938"/><rect fill="#F1F1F1" height="10" style="stroke:#181818;stroke-width:0.5;" width="15" x="1505.6872" y="294.1938"/><rect fill="#F1F1F1" height="2" style="stroke:#181818;stroke-width:0.5;" width="4" x="1503.6872" y="296.1938"/><rect fill="#F1F1F1" height="2" style="stroke:#181818;stroke-width:0.5;" width="4" x="1503.6872" y="300.1938"/><text fill="#000000" font-family="sans-serif" font-size="14" font-style="italic" lengthAdjust="spacing" textLength="127.3672" x="1372.32" y="322.1889">&#171;Aggregate Root&#187;</text><text fill="#000000" font-family="sans-serif" font-size="14" lengthAdjust="spacing" textLength="34.8428" x="1418.5822" y="338.4857">Book</text></g><!--entity BookRepository--><g class="entity" data-qualified-name="book.domain.BookRepository" data-source-line="8" id="ent0004"><rect fill="#F1F1F1" height="62.5938" rx="2.5" ry="2.5" style="stroke:#181818;stroke-width:0.5;" width="149.915" x="1171.04" y="289.1938"/><rect fill="#F1F1F1" height="10" style="stroke:#181818;stroke-width:0.5;" width="15" x="1300.955" y="294.1938"/><rect fill="#F1F1F1" height="2" style="stroke:#181818;stroke-width:0.5;" width="4" x="1298.955" y="296.1938"/><rect fill="#F1F1F1" height="2" style="stroke:#181818;stroke-width:0.5;" width="4" x="1298.955" y="300.1938"/><text fill="#000000" font-family="sans-serif" font-size="14" font-style="italic" lengthAdjust="spacing" textLength="45.5342" x="1218.2304" y="322.1889">&#171;Port&#187;</text><text fill="#000000" font-family="sans-serif" font-size="14" lengthAdjust="spacing" textLength="109.915" x="1186.04" y="338.4857">BookRepository</text></g><!--entity BookTitle--><g class="entity" data-qualified-name="book.domain.BookTitle" data-source-line="9" id="ent0005"><rect fill="#F1F1F1" height="62.5938" rx="2.5" ry="2.5" style="stroke:#181818;stroke-width:0.5;" width="148.8594" x="1019.57" y="475.9338"/><rect fill="#F1F1F1" height="10" style="stroke:#181818;stroke-width:0.5;" width="15" x="1148.4294" y="480.9338"/><rect fill="#F1F1F1" height="2" style="stroke:#181818;stroke-width:0.5;" width="4" x="1146.4294" y="482.9338"/><rect fill="#F1F1F1" height="2" style="stroke:#181818;stroke-width:0.5;" width="4" x="1146.4294" y="486.9338"/><text fill="#000000" font-family="sans-serif" font-size="14" font-style="italic" lengthAdjust="spacing" textLength="106.8594" x="1035.57" y="508.9289">&#171;Value Object&#187;</text><text fill="#000000" font-family="sans-serif" font-size="14" lengthAdjust="spacing" textLength="65.2764" x="1056.3615" y="525.2257">BookTitle</text></g><!--entity AuthorName--><g class="entity" data-qualified-name="book.domain.AuthorName" data-source-line="10" id="ent0006"><rect fill="#F1F1F1" height="62.5938" rx="2.5" ry="2.5" style="stroke:#181818;stroke-width:0.5;" width="148.8594" x="1203.57" y="475.9338"/><rect fill="#F1F1F1" height="10" style="stroke:#181818;stroke-width:0.5;" width="15" x="1332.4294" y="480.9338"/><rect fill="#F1F1F1" height="2" style="stroke:#181818;stroke-width:0.5;" width="4" x="1330.4294" y="482.9338"/><rect fill="#F1F1F1" height="2" style="stroke:#181818;stroke-width:0.5;" width="4" x="1330.4294" y="486.9338"/><text fill="#000000" font-family="sans-serif" font-size="14" font-style="italic" lengthAdjust="spacing" textLength="106.8594" x="1219.57" y="508.9289">&#171;Value Object&#187;</text><text fill="#000000" font-family="sans-serif" font-size="14" lengthAdjust="spacing" textLength="88.4365" x="1228.7814" y="525.2257">AuthorName</text></g><!--entity Isbn--><g class="entity" data-qualified-name="book.domain.Isbn" data-source-line="11" id="ent0007"><rect fill="#F1F1F1" height="62.5938" rx="2.5" ry="2.5" style="stroke:#181818;stroke-width:0.5;" width="148.8594" x="1387.57" y="475.9338"/><rect fill="#F1F1F1" height="10" style="stroke:#181818;stroke-width:0.5;" width="15" x="1516.4294" y="480.9338"/><rect fill="#F1F1F1" height="2" style="stroke:#181818;stroke-width:0.5;" width="4" x="1514.4294" y="482.9338"/><rect fill="#F1F1F1" height="2" style="stroke:#181818;stroke-width:0.5;" width="4" x="1514.4294" y="486.9338"/><text fill="#000000" font-family="sans-serif" font-size="14" font-style="italic" lengthAdjust="spacing" textLength="106.8594" x="1403.57" y="508.9289">&#171;Value Object&#187;</text><text fill="#000000" font-family="sans-serif" font-size="14" lengthAdjust="spacing" textLength="29.1826" x="1442.4084" y="525.2257">Isbn</text></g><!--entity BookDescription--><g class="entity" data-qualified-name="book.domain.BookDescription" data-source-line="12" id="ent0008"><rect fill="#F1F1F1" height="62.5938" rx="2.5" ry="2.5" style="stroke:#181818;stroke-width:0.5;" width="154.5771" x="829.71" y="475.9338"/><rect fill="#F1F1F1" height="10" style="stroke:#181818;stroke-width:0.5;" width="15" x="964.2871" y="480.9338"/><rect fill="#F1F1F1" height="2" style="stroke:#181818;stroke-width:0.5;" width="4" x="962.2871" y="482.9338"/><rect fill="#F1F1F1" height="2" style="stroke:#181818;stroke-width:0.5;" width="4" x="962.2871" y="486.9338"/><text fill="#000000" font-family="sans-serif" font-size="14" font-style="italic" lengthAdjust="spacing" textLength="106.8594" x="848.5689" y="508.9289">&#171;Value Object&#187;</text><text fill="#000000" font-family="sans-serif" font-size="14" lengthAdjust="spacing" textLength="114.5771" x="844.71" y="525.2257">BookDescription</text></g><!--entity ImageUrl--><g class="entity" data-qualified-name="book.domain.ImageUrl" data-source-line="13" id="ent0009"><rect fill="#F1F1F1" height="62.5938" rx="2.5" ry="2.5" style="stroke:#181818;stroke-width:0.5;" width="148.8594" x="1571.57" y="475.9338"/><rect fill="#F1F1F1" height="10" style="stroke:#181818;stroke-width:0.5;" width="15" x="1700.4294" y="480.9338"/><rect fill="#F1F1F1" height="2" style="stroke:#181818;stroke-width:0.5;" width="4" x="1698.4294" y="482.9338"/><rect fill="#F1F1F1" height="2" style="stroke:#181818;stroke-width:0.5;" width="4" x="1698.4294" y="486.9338"/><text fill="#000000" font-family="sans-serif" font-size="14" font-style="italic" lengthAdjust="spacing" textLength="106.8594" x="1587.57" y="508.9289">&#171;Value Object&#187;</text><text fill="#000000" font-family="sans-serif" font-size="14" lengthAdjust="spacing" textLength="63.7383" x="1609.1305" y="525.2257">ImageUrl</text></g><!--entity BookJpaRepository--><g class="entity" data-qualified-name="book.infrastructure.BookJpaRepository" data-source-line="17" id="ent0011"><rect fill="#F1F1F1" height="62.5938" rx="2.5" ry="2.5" style="stroke:#181818;stroke-width:0.5;" width="171.5098" x="192.25" y="110.5938"/><rect fill="#F1F1F1" height="10" style="stroke:#181818;stroke-width:0.5;" width="15" x="343.7598" y="115.5938"/><rect fill="#F1F1F1" height="2" style="stroke:#181818;stroke-width:0.5;" width="4" x="341.7598" y="117.5938"/><rect fill="#F1F1F1" height="2" style="stroke:#181818;stroke-width:0.5;" width="4" x="341.7598" y="121.5938"/><text fill="#000000" font-family="sans-serif" font-size="14" font-style="italic" lengthAdjust="spacing" textLength="73.0693" x="236.4702" y="143.5889">&#171;Adapter&#187;</text><text fill="#000000" font-family="sans-serif" font-size="14" lengthAdjust="spacing" textLength="131.5098" x="207.25" y="159.8857">BookJpaRepository</text></g><!--entity BookEntity--><g class="entity" data-qualified-name="book.infrastructure.BookEntity" data-source-line="18" id="ent0012"><rect fill="#F1F1F1" height="62.5938" rx="2.5" ry="2.5" style="stroke:#181818;stroke-width:0.5;" width="128.5088" x="204.75" y="289.1938"/><rect fill="#F1F1F1" height="10" style="stroke:#181818;stroke-width:0.5;" width="15" x="313.2588" y="294.1938"/><rect fill="#F1F1F1" height="2" style="stroke:#181818;stroke-width:0.5;" width="4" x="311.2588" y="296.1938"/><rect fill="#F1F1F1" height="2" style="stroke:#181818;stroke-width:0.5;" width="4" x="311.2588" y="300.1938"/><text fill="#000000" font-family="sans-serif" font-size="14" font-style="italic" lengthAdjust="spacing" textLength="86.5088" x="220.75" y="322.1889">&#171;Hibernate&#187;</text><text fill="#000000" font-family="sans-serif" font-size="14" lengthAdjust="spacing" textLength="75.7148" x="226.147" y="338.4857">BookEntity</text></g><!--entity BookEntityMapper--><g class="entity" data-qualified-name="book.infrastructure.BookEntityMapper" data-source-line="19" id="ent0013"><rect fill="#F1F1F1" height="62.5938" rx="2.5" ry="2.5" style="stroke:#181818;stroke-width:0.5;" width="168.5156" x="398.74" y="110.5938"/><rect fill="#F1F1F1" height="10" style="stroke:#181818;stroke-width:0.5;" width="15" x="547.2556" y="115.5938"/><rect fill="#F1F1F1" height="2" style="stroke:#181818;stroke-width:0.5;" width="4" x="545.2556" y="117.5938"/><rect fill="#F1F1F1" height="2" style="stroke:#181818;stroke-width:0.5;" width="4" x="545.2556" y="121.5938"/><text fill="#000000" font-family="sans-serif" font-size="14" font-style="italic" lengthAdjust="spacing" textLength="70.082" x="442.9568" y="143.5889">&#171;Mapper&#187;</text><text fill="#000000" font-family="sans-serif" font-size="14" lengthAdjust="spacing" textLength="128.5156" x="413.74" y="159.8857">BookEntityMapper</text></g><!--entity BookId\nQuantity--><g class="entity" data-qualified-name="shared.BookId.nQuantity" data-source-line="23" id="ent0015"><rect fill="#F1F1F1" height="78.8906" rx="2.5" ry="2.5" style="stroke:#181818;stroke-width:0.5;" width="137.9834" x="22.01" y="467.7838"/><rect fill="#F1F1F1" height="10" style="stroke:#181818;stroke-width:0.5;" width="15" x="139.9934" y="472.7838"/><rect fill="#F1F1F1" height="2" style="stroke:#181818;stroke-width:0.5;" width="4" x="137.9934" y="474.7838"/><rect fill="#F1F1F1" height="2" style="stroke:#181818;stroke-width:0.5;" width="4" x="137.9934" y="478.7838"/><text fill="#000000" font-family="sans-serif" font-size="14" font-style="italic" lengthAdjust="spacing" textLength="95.9834" x="38.01" y="500.7789">&#171;Identity VO&#187;</text><text fill="#000000" font-family="sans-serif" font-size="14" lengthAdjust="spacing" textLength="47.8584" x="62.0725" y="517.0757">BookId</text><text fill="#000000" font-family="sans-serif" font-size="14" lengthAdjust="spacing" textLength="60.498" x="55.7527" y="533.3726">Quantity</text></g><!--entity Money--><g class="entity" data-qualified-name="shared.Money" data-source-line="24" id="ent0016"><rect fill="#F1F1F1" height="62.5938" rx="2.5" ry="2.5" style="stroke:#181818;stroke-width:0.5;" width="148.8594" x="625.57" y="475.9338"/><rect fill="#F1F1F1" height="10" style="stroke:#181818;stroke-width:0.5;" width="15" x="754.4294" y="480.9338"/><rect fill="#F1F1F1" height="2" style="stroke:#181818;stroke-width:0.5;" width="4" x="752.4294" y="482.9338"/><rect fill="#F1F1F1" height="2" style="stroke:#181818;stroke-width:0.5;" width="4" x="752.4294" y="486.9338"/><text fill="#000000" font-family="sans-serif" font-size="14" font-style="italic" lengthAdjust="spacing" textLength="106.8594" x="641.57" y="508.9289">&#171;Value Object&#187;</text><text fill="#000000" font-family="sans-serif" font-size="14" lengthAdjust="spacing" textLength="46.416" x="671.7917" y="525.2257">Money</text></g><!--entity Require\nFieldValidationException--><g class="entity" data-qualified-name="shared.Require.nFieldValidationException" data-source-line="25" id="ent0017"><rect fill="#F1F1F1" height="78.8906" rx="2.5" ry="2.5" style="stroke:#181818;stroke-width:0.5;" width="212.6963" x="377.65" y="467.7838"/><rect fill="#F1F1F1" height="10" style="stroke:#181818;stroke-width:0.5;" width="15" x="570.3463" y="472.7838"/><rect fill="#F1F1F1" height="2" style="stroke:#181818;stroke-width:0.5;" width="4" x="568.3463" y="474.7838"/><rect fill="#F1F1F1" height="2" style="stroke:#181818;stroke-width:0.5;" width="4" x="568.3463" y="478.7838"/><text fill="#000000" font-family="sans-serif" font-size="14" font-style="italic" lengthAdjust="spacing" textLength="87.5" x="435.2481" y="500.7789">&#171;Validation&#187;</text><text fill="#000000" font-family="sans-serif" font-size="14" lengthAdjust="spacing" textLength="54.3594" x="451.8185" y="517.0757">Require</text><text fill="#000000" font-family="sans-serif" font-size="14" lengthAdjust="spacing" textLength="172.6963" x="392.65" y="533.3726">FieldValidationException</text></g><!--entity AuditableEntity--><g class="entity" data-qualified-name="shared.AuditableEntity" data-source-line="26" id="ent0018"><rect fill="#F1F1F1" height="62.5938" rx="2.5" ry="2.5" style="stroke:#181818;stroke-width:0.5;" width="147.5566" x="195.22" y="475.9338"/><rect fill="#F1F1F1" height="10" style="stroke:#181818;stroke-width:0.5;" width="15" x="322.7766" y="480.9338"/><rect fill="#F1F1F1" height="2" style="stroke:#181818;stroke-width:0.5;" width="4" x="320.7766" y="482.9338"/><rect fill="#F1F1F1" height="2" style="stroke:#181818;stroke-width:0.5;" width="4" x="320.7766" y="486.9338"/><text fill="#000000" font-family="sans-serif" font-size="14" font-style="italic" lengthAdjust="spacing" textLength="51.3721" x="238.3123" y="508.9289">&#171;Base&#187;</text><text fill="#000000" font-family="sans-serif" font-size="14" lengthAdjust="spacing" textLength="107.5566" x="210.22" y="525.2257">AuditableEntity</text></g><!--entity CartApplicationService--><g class="entity" data-qualified-name="purchase.CartApplicationService" data-source-line="30" id="ent0020"><rect fill="#F1F1F1" height="62.5938" rx="2.5" ry="2.5" style="stroke:#181818;stroke-width:0.5;" width="199.5645" x="1686.22" y="110.5938"/><rect fill="#F1F1F1" height="10" style="stroke:#181818;stroke-width:0.5;" width="15" x="1865.7845" y="115.5938"/><rect fill="#F1F1F1" height="2" style="stroke:#181818;stroke-width:0.5;" width="4" x="1863.7845" y="117.5938"/><rect fill="#F1F1F1" height="2" style="stroke:#181818;stroke-width:0.5;" width="4" x="1863.7845" y="121.5938"/><text fill="#000000" font-family="sans-serif" font-size="14" font-style="italic" lengthAdjust="spacing" textLength="69.0225" x="1746.491" y="143.5889">&#171;Service&#187;</text><text fill="#000000" font-family="sans-serif" font-size="14" lengthAdjust="spacing" textLength="159.5645" x="1701.22" y="159.8857">CartApplicationService</text></g><!--entity AccountCatalogApplicationService--><g class="entity" data-qualified-name="purchase.AccountCatalogApplicationService" data-source-line="31" id="ent0021"><rect fill="#F1F1F1" height="62.5938" rx="2.5" ry="2.5" style="stroke:#181818;stroke-width:0.5;" width="280.502" x="1370.75" y="110.5938"/><rect fill="#F1F1F1" height="10" style="stroke:#181818;stroke-width:0.5;" width="15" x="1631.252" y="115.5938"/><rect fill="#F1F1F1" height="2" style="stroke:#181818;stroke-width:0.5;" width="4" x="1629.252" y="117.5938"/><rect fill="#F1F1F1" height="2" style="stroke:#181818;stroke-width:0.5;" width="4" x="1629.252" y="121.5938"/><text fill="#000000" font-family="sans-serif" font-size="14" font-style="italic" lengthAdjust="spacing" textLength="69.0225" x="1471.4897" y="143.5889">&#171;Service&#187;</text><text fill="#000000" font-family="sans-serif" font-size="14" lengthAdjust="spacing" textLength="240.502" x="1385.75" y="159.8857">AccountCatalogApplicationService</text></g><!--entity BookId--><g class="entity" data-qualified-name="BookId" data-source-line="41" id="ent0028"><ellipse cx="1897" cy="507.2238" fill="#F1F1F1" rx="8" ry="8" style="stroke:#181818;stroke-width:0.5;"/><text fill="#000000" font-family="sans-serif" font-size="14" lengthAdjust="spacing" textLength="47.8584" x="1873.0708" y="537.2189">BookId</text></g><!--entity Quantity--><g class="entity" data-qualified-name="Quantity" data-source-line="42" id="ent0030"><ellipse cx="1793" cy="507.2238" fill="#F1F1F1" rx="8" ry="8" style="stroke:#181818;stroke-width:0.5;"/><text fill="#000000" font-family="sans-serif" font-size="14" lengthAdjust="spacing" textLength="60.498" x="1762.751" y="537.2189">Quantity</text></g><!--entity Require--><g class="entity" data-qualified-name="Require" data-source-line="52" id="ent0039"><ellipse cx="1981" cy="320.4838" fill="#F1F1F1" rx="8" ry="8" style="stroke:#181818;stroke-width:0.5;"/><text fill="#000000" font-family="sans-serif" font-size="14" lengthAdjust="spacing" textLength="54.3594" x="1953.8203" y="350.4789">Require</text></g><!--link Book to BookTitle--><g class="link" data-entity-1="ent0003" data-entity-2="ent0005" data-link-type="dependency" data-source-line="35" id="lnk22"><path d="M1389.33,352.2338 C1373.29,360.8038 1355.28,369.4838 1338,375.7838 C1273.05,399.4538 1246.2,374.7938 1186,408.7838 C1157.03,425.1438 1135.3509,448.8471 1118.6509,470.8171" fill="none" id="Book-to-BookTitle" style="stroke:#181818;stroke-width:1;"/><polygon fill="#181818" points="1115.02,475.5938,1123.6508,470.8493,1118.0457,471.6132,1117.2819,466.0081,1115.02,475.5938" style="stroke:#181818;stroke-width:1;"/><text fill="#000000" font-family="sans-serif" font-size="13" lengthAdjust="spacing" textLength="28.0503" x="1310.46" y="396.8506">field</text></g><!--link Book to AuthorName--><g class="link" data-entity-1="ent0003" data-entity-2="ent0006" data-link-type="dependency" data-source-line="36" id="lnk23"><path d="M1414.08,351.9938 C1383.88,386.2238 1339.1389,436.924 1308.9289,471.174" fill="none" id="Book-to-AuthorName" style="stroke:#181818;stroke-width:1;"/><polygon fill="#181818" points="1304.96,475.6738,1313.9132,471.5701,1308.2675,471.924,1307.9136,466.2782,1304.96,475.6738" style="stroke:#181818;stroke-width:1;"/><text fill="#000000" font-family="sans-serif" font-size="13" lengthAdjust="spacing" textLength="28.0503" x="1384.62" y="396.8506">field</text></g><!--link Book to Isbn--><g class="link" data-entity-1="ent0003" data-entity-2="ent0007" data-link-type="dependency" data-source-line="37" id="lnk24"><path d="M1439.23,352.2138 C1438.72,362.2738 1438.25,373.5038 1438,383.7838 C1437.82,391.3338 1437.16,393.2738 1438,400.7838 C1440.87,426.3438 1445.9883,448.9479 1451.5783,469.8279" fill="none" id="Book-to-Isbn" style="stroke:#181818;stroke-width:1;"/><polygon fill="#181818" points="1453.13,475.6238,1454.6664,465.8955,1451.8369,470.7938,1446.9386,467.9644,1453.13,475.6238" style="stroke:#181818;stroke-width:1;"/><text fill="#000000" font-family="sans-serif" font-size="13" lengthAdjust="spacing" textLength="28.0503" x="1439" y="396.8506">field</text></g><!--link Book to BookDescription--><g class="link" data-entity-1="ent0003" data-entity-2="ent0008" data-link-type="dependency" data-source-line="38" id="lnk25"><path d="M1393.31,352.2038 C1376.49,361.5038 1357.02,370.6038 1338,375.7838 C1300.86,385.8838 1203.3,379.9738 1165,383.7838 C1092.07,391.0438 1067.17,375.2538 1002,408.7838 C971.75,424.3438 949.1344,448.4828 931.9344,470.7828" fill="none" id="Book-to-BookDescription" style="stroke:#181818;stroke-width:1;"/><polygon fill="#181818" points="928.27,475.5338,936.934,470.8502,931.3237,471.5746,930.5993,465.9643,928.27,475.5338" style="stroke:#181818;stroke-width:1;"/><text fill="#000000" font-family="sans-serif" font-size="13" lengthAdjust="spacing" textLength="28.0503" x="1166" y="396.8506">field</text></g><!--link Book to ImageUrl--><g class="link" data-entity-1="ent0003" data-entity-2="ent0009" data-link-type="dependency" data-source-line="39" id="lnk26"><path d="M1459.22,352.1338 C1470.98,369.1738 1487.83,389.2138 1508,400.7838 C1526,411.1038 1535.72,398.9638 1554,408.7838 C1583.51,424.6438 1605.338,448.6878 1621.938,470.8978" fill="none" id="Book-to-ImageUrl" style="stroke:#181818;stroke-width:1;"/><polygon fill="#181818" points="1625.53,475.7038,1623.3459,466.1001,1622.5366,471.6988,1616.938,470.8895,1625.53,475.7038" style="stroke:#181818;stroke-width:1;"/><text fill="#000000" font-family="sans-serif" font-size="13" lengthAdjust="spacing" textLength="28.0503" x="1509" y="396.8506">field</text></g><!--link Book to Money--><g class="link" data-entity-1="ent0003" data-entity-2="ent0016" data-link-type="dependency" data-source-line="40" id="lnk27"><path d="M1393.9,352.1838 C1376.96,361.5938 1357.27,370.7838 1338,375.7838 C1299.27,385.8238 1017.86,380.3138 978,383.7838 C904.55,390.1738 881.04,378.0938 814,408.7838 C779.91,424.3838 752.2472,448.9378 730.9372,471.2178" fill="none" id="Book-to-Money" style="stroke:#181818;stroke-width:1;"/><polygon fill="#181818" points="726.79,475.5538,735.9015,471.8146,730.246,471.9404,730.1202,466.285,726.79,475.5538" style="stroke:#181818;stroke-width:1;"/><text fill="#000000" font-family="sans-serif" font-size="13" lengthAdjust="spacing" textLength="32.354" x="979" y="396.8506">price</text></g><!--link Book to BookId--><g class="link" data-entity-1="ent0003" data-entity-2="ent0028" data-link-type="dependency" data-source-line="41" id="lnk29"><path d="M1525.99,340.3138 C1570.64,351.1738 1625.94,366.1738 1674,383.7838 C1690.61,389.8738 1692.85,396.4138 1710,400.7838 C1724.99,404.6038 1836.1,400.2338 1849,408.7838 C1881.07,430.0338 1891.4846,473.382 1894.8046,492.522" fill="none" id="Book-to-BookId" style="stroke:#181818;stroke-width:1;"/><polygon fill="#181818" points="1895.83,498.4338,1898.233,488.8825,1894.9755,493.5073,1890.3507,490.2498,1895.83,498.4338" style="stroke:#181818;stroke-width:1;"/><text fill="#000000" font-family="sans-serif" font-size="13" lengthAdjust="spacing" textLength="49.6006" x="1711" y="396.8506">identity</text></g><!--link Book to Quantity--><g class="link" data-entity-1="ent0003" data-entity-2="ent0030" data-link-type="dependency" data-source-line="42" id="lnk31"><path d="M1491.28,352.1238 C1526.35,373.2338 1568.51,397.9738 1578,400.7838 C1611.71,410.7538 1705.96,390.5238 1736,408.7838 C1770.17,429.5438 1784.5597,473.2896 1789.6097,492.5696" fill="none" id="Book-to-Quantity" style="stroke:#181818;stroke-width:1;"/><polygon fill="#181818" points="1791.13,498.3738,1792.719,488.6539,1789.8631,493.5369,1784.9801,490.681,1791.13,498.3738" style="stroke:#181818;stroke-width:1;"/><text fill="#000000" font-family="sans-serif" font-size="13" lengthAdjust="spacing" textLength="90.6763" x="1579" y="396.8506">stockQuantity</text></g><!--link BookJpaRepository to BookRepository--><g class="link" data-entity-1="ent0011" data-entity-2="ent0004" data-link-type="dependency" data-source-line="44" id="lnk32"><path d="M326.3,173.5538 C343.01,182.7238 362.26,191.7738 381,197.1938 C383.84,198.0138 803.07,229.7838 806,230.1938 C935.11,248.2338 1077.4779,279.4465 1164.7279,299.8665" fill="none" id="BookJpaRepository-to-BookRepository" style="stroke:#181818;stroke-width:1;"/><polygon fill="#181818" points="1170.57,301.2338,1162.7183,295.2881,1165.7016,300.0943,1160.8953,303.0776,1170.57,301.2338" style="stroke:#181818;stroke-width:1;"/><text fill="#000000" font-family="sans-serif" font-size="13" lengthAdjust="spacing" textLength="76.9082" x="692.37" y="218.2606">implements</text></g><!--link BookEntityMapper to Book--><g class="link" data-entity-1="ent0013" data-entity-2="ent0003" data-link-type="dependency" data-source-line="45" id="lnk33"><path d="M567.74,152.5238 C707.19,168.2138 993.87,199.7838 1237,222.1938 C1259.42,224.2538 1317.23,221.4938 1338,230.1938 C1368.56,242.9938 1392.4146,264.0995 1411.4646,284.5895" fill="none" id="BookEntityMapper-to-Book" style="stroke:#181818;stroke-width:1;"/><polygon fill="#181818" points="1415.55,288.9838,1412.3514,279.6688,1412.1455,285.3219,1406.4924,285.116,1415.55,288.9838" style="stroke:#181818;stroke-width:1;"/><text fill="#000000" font-family="sans-serif" font-size="13" lengthAdjust="spacing" textLength="105.6567" x="1238" y="218.2606">maps to domain</text></g><!--link BookEntityMapper to BookEntity--><g class="link" data-entity-1="ent0013" data-entity-2="ent0012" data-link-type="dependency" data-source-line="46" id="lnk34"><path d="M427.35,173.6838 C412.43,181.6238 396.22,189.9538 381,197.1938 C372.73,201.1238 369.33,199.6938 362,205.1938 C331.29,228.2038 307.9609,258.4866 291.1609,283.7666" fill="none" id="BookEntityMapper-to-BookEntity" style="stroke:#181818;stroke-width:1;"/><polygon fill="#181818" points="287.84,288.7638,296.1528,283.4819,290.6074,284.5994,289.4899,279.0541,287.84,288.7638" style="stroke:#181818;stroke-width:1;"/><text fill="#000000" font-family="sans-serif" font-size="13" lengthAdjust="spacing" textLength="112.1948" x="363" y="218.2606">maps from entity</text></g><!--link BookJpaRepository to BookEntity--><g class="link" data-entity-1="ent0011" data-entity-2="ent0012" data-link-type="dependency" data-source-line="47" id="lnk35"><path d="M267.87,173.6138 C265.06,183.5738 262.4,194.7438 261,205.1938 C257.22,233.3838 259.3028,259.8053 262.6328,282.8753" fill="none" id="BookJpaRepository-to-BookEntity" style="stroke:#181818;stroke-width:1;"/><polygon fill="#181818" points="263.49,288.8138,266.1632,279.3346,262.7757,283.865,258.2453,280.4775,263.49,288.8138" style="stroke:#181818;stroke-width:1;"/><text fill="#000000" font-family="sans-serif" font-size="13" lengthAdjust="spacing" textLength="59.8584" x="262" y="218.2606">manages</text></g><!--link BookEntity to AuditableEntity--><g class="link" data-entity-1="ent0012" data-entity-2="ent0018" data-link-type="dependency" data-source-line="48" id="lnk36"><path d="M269,351.9938 C269,386.2238 269,435.4238 269,469.6738" fill="none" id="BookEntity-to-AuditableEntity" style="stroke:#181818;stroke-width:1;"/><polygon fill="#181818" points="269,475.6738,273,466.6738,269,470.6738,265,466.6738,269,475.6738" style="stroke:#181818;stroke-width:1;"/><text fill="#000000" font-family="sans-serif" font-size="13" lengthAdjust="spacing" textLength="52.0508" x="270" y="396.8506">extends</text></g><!--link CartApplicationService to BookRepository--><g class="link" data-entity-1="ent0020" data-entity-2="ent0004" data-link-type="dependency" data-source-line="50" id="lnk37"><path d="M1729.73,173.6438 C1710.92,182.6538 1689.52,191.5738 1669,197.1938 C1664.56,198.4038 1343.18,228.2638 1339,230.1938 C1310.75,243.2238 1289.602,263.8252 1272.662,284.1452" fill="none" id="CartApplicationService-to-BookRepository" style="stroke:#181818;stroke-width:1;"/><polygon fill="#181818" points="1268.82,288.7538,1277.6554,284.4022,1272.0217,284.9133,1271.5106,279.2795,1268.82,288.7538" style="stroke:#181818;stroke-width:1;"/><text fill="#000000" font-family="sans-serif" font-size="13" lengthAdjust="spacing" textLength="26.6475" x="1589.15" y="218.2606">port</text></g><!--link CartApplicationService to Book--><g class="link" data-entity-1="ent0020" data-entity-2="ent0003" data-link-type="dependency" data-source-line="51" id="lnk38"><path d="M1792.25,173.6638 C1793.7,189.9038 1792.24,209.1138 1781,222.1938 C1770.03,234.9438 1760.3,226.0338 1744,230.1938 C1669.87,249.1038 1592.2931,272.144 1531.8131,290.814" fill="none" id="CartApplicationService-to-Book" style="stroke:#181818;stroke-width:1;"/><polygon fill="#181818" points="1526.08,292.5838,1535.8594,293.7511,1530.8575,291.1089,1533.4997,286.1071,1526.08,292.5838" style="stroke:#181818;stroke-width:1;"/><text fill="#000000" font-family="sans-serif" font-size="13" lengthAdjust="spacing" textLength="119.6597" x="1790.79" y="218.2606">checks availability</text></g><!--link CartApplicationService to Require--><g class="link" data-entity-1="ent0020" data-entity-2="ent0039" data-link-type="dependency" data-source-line="52" id="lnk40"><path d="M1886.27,168.1438 C1906.78,177.1038 1926.73,189.1238 1942,205.1938 C1971.75,236.5038 1978.383,285.4535 1980.033,305.7135" fill="none" id="CartApplicationService-to-Require" style="stroke:#181818;stroke-width:1;stroke-dasharray:7,7;"/><polygon fill="#181818" points="1980.52,311.6938,1983.7762,302.3988,1980.1141,306.7102,1975.8026,303.0481,1980.52,311.6938" style="stroke:#181818;stroke-width:1;"/><text fill="#000000" font-family="sans-serif" font-size="13" lengthAdjust="spacing" textLength="58.9697" x="1954.86" y="218.2606">validates</text></g><!--link AccountCatalogApplicationService to BookRepository--><g class="link" data-entity-1="ent0021" data-entity-2="ent0004" data-link-type="dependency" data-source-line="54" id="lnk41"><path d="M1438.83,173.6738 C1406.98,188.7038 1369.86,208.2838 1339,230.1938 C1314.91,247.2938 1295.0654,266.1565 1277.4954,284.6265" fill="none" id="AccountCatalogApplicationService-to-BookRepository" style="stroke:#181818;stroke-width:1;"/><polygon fill="#181818" points="1273.36,288.9738,1282.4613,285.2098,1276.8062,285.3511,1276.6649,279.696,1273.36,288.9738" style="stroke:#181818;stroke-width:1;"/><text fill="#000000" font-family="sans-serif" font-size="13" lengthAdjust="spacing" textLength="26.6475" x="1375.48" y="218.2606">port</text></g><!--link AccountCatalogApplicationService to BookId--><g class="link" data-entity-1="ent0021" data-entity-2="ent0028" data-link-type="dependency" data-source-line="55" id="lnk42"><path d="M1590.58,173.6038 C1655.01,198.4938 1735.23,229.5538 1736,230.1938 C1832.4,309.4938 1881.9617,456.8972 1892.9717,492.8172" fill="none" id="AccountCatalogApplicationService-to-BookId" style="stroke:#181818;stroke-width:1;stroke-dasharray:7,7;"/><polygon fill="#181818" points="1894.73,498.5538,1895.9169,488.7767,1893.2647,493.7733,1888.2681,491.1211,1894.73,498.5538" style="stroke:#181818;stroke-width:1;"/><text fill="#000000" font-family="sans-serif" font-size="13" lengthAdjust="spacing" textLength="29.7832" x="1845.25" y="325.0506">uses</text></g><!--link AccountCatalogApplicationService to Money--><g class="link" data-entity-1="ent0021" data-entity-2="ent0016" data-link-type="dependency" data-source-line="56" id="lnk43"><path d="M1370.27,151.5238 C1171.33,164.9538 827,193.2038 783,230.1938 C709.07,292.3338 699.468,411.6738 699.198,469.5938" fill="none" id="AccountCatalogApplicationService-to-Money" style="stroke:#181818;stroke-width:1;stroke-dasharray:7,7;"/><polygon fill="#181818" points="699.17,475.5938,703.2119,466.6125,699.1933,470.5938,695.212,466.5752,699.17,475.5938" style="stroke:#181818;stroke-width:1;"/><text fill="#000000" font-family="sans-serif" font-size="13" lengthAdjust="spacing" textLength="29.7832" x="784" y="325.0506">uses</text></g><?plantuml-src ZLJDRXCn4BxlKup2WLEh2gIgHLMajDc80AMGb9vwcNYTh8dNDhQtQeGgyH2y04Ay18XJdwGy2Hvdk_dffcaY9PRd-yRVZB-ncmfbq681J1T6AwxyqCyaXxAGBn9NHpC-nbBwStxjEr9CL160mC8FjqdYXG-COwsdSAB3rhM7Vz--mmbwb7e2fwXmmebngJwMTxz_Af2tVw6BAeVYxiyl1iFR7onF4eDi6f3G6eLKkvakKAWM71rrumhUuOpRTXkU7UwbwU4UV4qWV6hTq285XEzC9fPFq7COQEtRxIRSW1ljXDTsHemFscx0dLDj1Bb0MN8u6ttch07QANskxNiide3jkv7QZgB3kzmnAumN-Wc4VX5wzydA1kJDUc-56bjqtfRCbpPAxg_iB7hTVKdVvbw_CRZQnaw6nXEl2Psgu9C8Uor6tAfmFuy1Jz4ORWa-NwsLuNAqFAFmCAxWRKZ99KbEzzFzNgTPSZyZ3s8jfP_nk8QBiuTYJiF_R7lZ1_nBAIo_L3t1PHQm8aEwilIQyUMxgxQRp9C9ZoF95oqwHiVNAZQbPNdOZdwjrlVpHcNtUhs3zE1XsITeVSSOALWyViZjbM0nIxLi4CIOBfMl1dWREOXy3WCk8yBbmhWalWKxEsseHmXUGMjC_MajWekXQOhIc3Jjhmr68xKQXQPOl5GA64kLhERjPnGHbIcMWlUUeR3pcarh4oN9Wr6eqorjKTh2oFWCkddYPP_N508MQ1nu3TKBk1cSrfeYPMnr0SlIcrKji-XbNf5JNSoA8GaQJCPL5g19ivysr6p2mzhQHY4WopcREi0h5197GiOQDl1sTzjG3HrHh-QZHNKasvpxgCojP3fuOPFIqP5F8jMcctF-0m00?></g></svg>