<?plantuml 1.2026.2?><svg xmlns="http://www.w3.org/2000/svg" xmlns:xlink="http://www.w3.org/1999/xlink" contentStyleType="text/css" data-diagram-type="CLASS" height="1404px" preserveAspectRatio="none" style="width:1287px;height:1404px;background:#FFFFFF;" version="1.1" viewBox="0 0 1287 1404" width="1287px" zoomAndPan="magnify"><defs/><g><!--cluster auth--><g class="cluster" data-qualified-name="auth" data-source-line="4" id="ent0002"><path d="M13.5,11 L50.5732,11 A3.75,3.75 0 0 1 53.0732,13.5 L60.0732,33.2969 L290.5,33.2969 A2.5,2.5 0 0 1 293,35.7969 L293,710.05 A2.5,2.5 0 0 1 290.5,712.55 L13.5,712.55 A2.5,2.5 0 0 1 11,710.05 L11,13.5 A2.5,2.5 0 0 1 13.5,11" fill="#FFFFFF" style="stroke:#000000;stroke-width:1;"/><line style="stroke:#000000;stroke-width:1;" x1="11" x2="60.0732" y1="33.2969" y2="33.2969"/><text fill="#000000" font-family="Verdana" font-size="14" font-weight="bold" lengthAdjust="spacing" textLength="36.0732" x="15" y="25.9951">auth</text></g><!--cluster book--><g class="cluster" data-qualified-name="book" data-source-line="37" id="ent0005"><path d="M700.5,1131.12 L740.0684,1131.12 A3.75,3.75 0 0 1 742.5684,1133.62 L749.5684,1153.4169 L909.5,1153.4169 A2.5,2.5 0 0 1 912,1155.9169 L912,1394.85 A2.5,2.5 0 0 1 909.5,1397.35 L700.5,1397.35 A2.5,2.5 0 0 1 698,1394.85 L698,1133.62 A2.5,2.5 0 0 1 700.5,1131.12" fill="#FFFFFF" style="stroke:#000000;stroke-width:1;"/><line style="stroke:#000000;stroke-width:1;" x1="698" x2="749.5684" y1="1153.4169" y2="1153.4169"/><text fill="#000000" font-family="Verdana" font-size="14" font-weight="bold" lengthAdjust="spacing" textLength="38.5684" x="702" y="1146.1151">book</text></g><!--cluster purchase--><g class="cluster" data-qualified-name="purchase" data-source-line="52" id="ent0007"><path d="M467.5,344.53 L540.9336,344.53 A3.75,3.75 0 0 1 543.4336,347.03 L550.4336,366.8269 L1143.5,366.8269 A2.5,2.5 0 0 1 1146,369.3269 L1146,1079.62 A2.5,2.5 0 0 1 1143.5,1082.12 L467.5,1082.12 A2.5,2.5 0 0 1 465,1079.62 L465,347.03 A2.5,2.5 0 0 1 467.5,344.53" fill="#FFFFFF" style="stroke:#000000;stroke-width:1;"/><line style="stroke:#000000;stroke-width:1;" x1="465" x2="550.4336" y1="366.8269" y2="366.8269"/><text fill="#000000" font-family="Verdana" font-size="14" font-weight="bold" lengthAdjust="spacing" textLength="72.4336" x="469" y="359.5251">purchase</text></g><!--class CustomerEntity--><g class="entity" data-qualified-name="auth.CustomerEntity" data-source-line="5" id="ent0003"><rect fill="#FFFFFF" height="235.5313" rx="2.5" ry="2.5" style="stroke:#000000;stroke-width:1;" width="249.4971" x="27.25" y="46"/><ellipse cx="93.8105" cy="66.1328" fill="#FFFFFF" rx="9" ry="9" style="stroke:#000000;stroke-width:1;"/><path d="M96.7793,71.7734 Q96.2012,72.0703 95.5605,72.2109 Q94.9199,72.3672 94.2168,72.3672 Q91.7168,72.3672 90.3887,70.7266 Q89.0762,69.0703 89.0762,65.9453 Q89.0762,62.8203 90.3887,61.1641 Q91.7168,59.5078 94.2168,59.5078 Q94.9199,59.5078 95.5605,59.6641 Q96.2168,59.8203 96.7793,60.1172 L96.7793,62.8359 Q96.1543,62.2578 95.5605,61.9922 Q94.9668,61.7109 94.3418,61.7109 Q92.998,61.7109 92.3105,62.7891 Q91.623,63.8516 91.623,65.9453 Q91.623,68.0391 92.3105,69.1172 Q92.998,70.1797 94.3418,70.1797 Q94.9668,70.1797 95.5605,69.9141 Q96.1543,69.6328 96.7793,69.0547 L96.7793,71.7734 Z " fill="#000000"/><text fill="#000000" font-family="Verdana" font-size="12" font-style="italic" lengthAdjust="spacing" textLength="49.8457" x="140.8257" y="62.1387">&#171;Entity&#187;</text><text fill="#000000" font-family="Verdana" font-size="14" lengthAdjust="spacing" textLength="108.876" x="111.3105" y="77.9639">CustomerEntity</text><line style="stroke:#000000;stroke-width:1;" x1="28.25" x2="275.7471" y1="86.2656" y2="86.2656"/><g data-visibility-modifier="PRIVATE_FIELD"><rect fill="none" height="6" style="stroke:#000000;stroke-width:1;" width="6" x="35.25" y="117.2109"/></g><text fill="#000000" font-family="Verdana" font-size="14" lengthAdjust="spacing" textLength="56.0684" x="45.25" y="123.5576">id: Long</text><g data-visibility-modifier="PRIVATE_FIELD"><rect fill="none" height="6" style="stroke:#000000;stroke-width:1;" width="6" x="35.25" y="133.5078"/></g><text fill="#000000" font-family="Verdana" font-size="14" lengthAdjust="spacing" textLength="89.5576" x="45.25" y="139.8545">email: String</text><g data-visibility-modifier="PRIVATE_FIELD"><rect fill="none" height="6" style="stroke:#000000;stroke-width:1;" width="6" x="35.25" y="149.8047"/></g><text fill="#000000" font-family="Verdana" font-size="14" lengthAdjust="spacing" textLength="152.9336" x="45.25" y="156.1514">passwordHash: String</text><g data-visibility-modifier="PRIVATE_FIELD"><rect fill="none" height="6" style="stroke:#000000;stroke-width:1;" width="6" x="35.25" y="166.1016"/></g><text fill="#000000" font-family="Verdana" font-size="14" lengthAdjust="spacing" textLength="113.832" x="45.25" y="172.4482">fullName: String</text><g data-visibility-modifier="PRIVATE_FIELD"><rect fill="none" height="6" style="stroke:#000000;stroke-width:1;" width="6" x="35.25" y="182.3984"/></g><text fill="#000000" font-family="Verdana" font-size="14" lengthAdjust="spacing" textLength="94.7598" x="45.25" y="188.7451">phone: String</text><g data-visibility-modifier="PRIVATE_FIELD"><rect fill="none" height="6" style="stroke:#000000;stroke-width:1;" width="6" x="35.25" y="198.6953"/></g><text fill="#000000" font-family="Verdana" font-size="14" lengthAdjust="spacing" textLength="164.8008" x="45.25" y="205.042">status: CustomerStatus</text><line style="stroke:#000000;stroke-width:1;stroke-dasharray:1,2;" x1="28.25" x2="131.6855" y1="102.4141" y2="102.4141"/><text fill="#000000" font-family="Verdana" font-size="14" lengthAdjust="spacing" textLength="40.626" x="131.6855" y="106.7607">Fields</text><line style="stroke:#000000;stroke-width:1;stroke-dasharray:1,2;" x1="172.3115" x2="275.7471" y1="102.4141" y2="102.4141"/><g data-visibility-modifier="PUBLIC_FIELD"><ellipse cx="38.25" cy="238.2891" fill="none" rx="3" ry="3" style="stroke:#000000;stroke-width:1;"/></g><text fill="#000000" font-family="Verdana" font-size="14" lengthAdjust="spacing" textLength="225.4971" x="45.25" y="241.6357">addresses: List&lt;AddressEntity&gt;</text><g data-visibility-modifier="PUBLIC_FIELD"><ellipse cx="38.25" cy="254.5859" fill="none" rx="3" ry="3" style="stroke:#000000;stroke-width:1;"/></g><text fill="#000000" font-family="Verdana" font-size="14" lengthAdjust="spacing" textLength="107.1602" x="45.25" y="257.9326">cart: CartEntity</text><g data-visibility-modifier="PUBLIC_FIELD"><ellipse cx="38.25" cy="270.8828" fill="none" rx="3" ry="3" style="stroke:#000000;stroke-width:1;"/></g><text fill="#000000" font-family="Verdana" font-size="14" lengthAdjust="spacing" textLength="182.875" x="45.25" y="274.2295">orders: List&lt;OrderEntity&gt;</text><line style="stroke:#000000;stroke-width:1;stroke-dasharray:1,2;" x1="28.25" x2="105.0664" y1="220.4922" y2="220.4922"/><text fill="#000000" font-family="Verdana" font-size="14" lengthAdjust="spacing" textLength="93.8643" x="105.0664" y="224.8389">Relationships</text><line style="stroke:#000000;stroke-width:1;stroke-dasharray:1,2;" x1="198.9307" x2="275.7471" y1="220.4922" y2="220.4922"/></g><!--class AddressEntity--><g class="entity" data-qualified-name="auth.AddressEntity" data-source-line="19" id="ent0004"><rect fill="#FFFFFF" height="284.4219" rx="2.5" ry="2.5" style="stroke:#000000;stroke-width:1;" width="207.9688" x="48.02" y="412.12"/><ellipse cx="99.6645" cy="432.2528" fill="#FFFFFF" rx="9" ry="9" style="stroke:#000000;stroke-width:1;"/><path d="M102.6333,437.8934 Q102.0552,438.1903 101.4145,438.3309 Q100.7739,438.4872 100.0708,438.4872 Q97.5708,438.4872 96.2427,436.8466 Q94.9302,435.1903 94.9302,432.0653 Q94.9302,428.9403 96.2427,427.2841 Q97.5708,425.6278 100.0708,425.6278 Q100.7739,425.6278 101.4145,425.7841 Q102.0708,425.9403 102.6333,426.2372 L102.6333,428.9559 Q102.0083,428.3778 101.4145,428.1122 Q100.8208,427.8309 100.1958,427.8309 Q98.852,427.8309 98.1645,428.9091 Q97.477,429.9716 97.477,432.0653 Q97.477,434.1591 98.1645,435.2372 Q98.852,436.2997 100.1958,436.2997 Q100.8208,436.2997 101.4145,436.0341 Q102.0083,435.7528 102.6333,435.1747 L102.6333,437.8934 Z " fill="#000000"/><text fill="#000000" font-family="Verdana" font-size="12" font-style="italic" lengthAdjust="spacing" textLength="49.8457" x="140.8315" y="428.2587">&#171;Entity&#187;</text><text fill="#000000" font-family="Verdana" font-size="14" lengthAdjust="spacing" textLength="97.1797" x="117.1645" y="444.0839">AddressEntity</text><line style="stroke:#000000;stroke-width:1;" x1="49.02" x2="254.9888" y1="452.3856" y2="452.3856"/><g data-visibility-modifier="PRIVATE_FIELD"><rect fill="none" height="6" style="stroke:#000000;stroke-width:1;" width="6" x="56.02" y="483.3309"/></g><text fill="#000000" font-family="Verdana" font-size="14" lengthAdjust="spacing" textLength="56.0684" x="66.02" y="489.6776">id: Long</text><g data-visibility-modifier="PRIVATE_FIELD"><rect fill="none" height="6" style="stroke:#000000;stroke-width:1;" width="6" x="56.02" y="499.6278"/></g><text fill="#000000" font-family="Verdana" font-size="14" lengthAdjust="spacing" textLength="153.959" x="66.02" y="505.9745">recipientName: String</text><g data-visibility-modifier="PRIVATE_FIELD"><rect fill="none" height="6" style="stroke:#000000;stroke-width:1;" width="6" x="56.02" y="515.9247"/></g><text fill="#000000" font-family="Verdana" font-size="14" lengthAdjust="spacing" textLength="94.7598" x="66.02" y="522.2714">phone: String</text><g data-visibility-modifier="PRIVATE_FIELD"><rect fill="none" height="6" style="stroke:#000000;stroke-width:1;" width="6" x="56.02" y="532.2216"/></g><text fill="#000000" font-family="Verdana" font-size="14" lengthAdjust="spacing" textLength="85.1211" x="66.02" y="538.5682">line1: String</text><g data-visibility-modifier="PRIVATE_FIELD"><rect fill="none" height="6" style="stroke:#000000;stroke-width:1;" width="6" x="56.02" y="548.5184"/></g><text fill="#000000" font-family="Verdana" font-size="14" lengthAdjust="spacing" textLength="85.1211" x="66.02" y="554.8651">line2: String</text><g data-visibility-modifier="PRIVATE_FIELD"><rect fill="none" height="6" style="stroke:#000000;stroke-width:1;" width="6" x="56.02" y="564.8153"/></g><text fill="#000000" font-family="Verdana" font-size="14" lengthAdjust="spacing" textLength="85.6201" x="66.02" y="571.162">ward: String</text><g data-visibility-modifier="PRIVATE_FIELD"><rect fill="none" height="6" style="stroke:#000000;stroke-width:1;" width="6" x="56.02" y="581.1122"/></g><text fill="#000000" font-family="Verdana" font-size="14" lengthAdjust="spacing" textLength="99.3398" x="66.02" y="587.4589">district: String</text><g data-visibility-modifier="PRIVATE_FIELD"><rect fill="none" height="6" style="stroke:#000000;stroke-width:1;" width="6" x="56.02" y="597.4091"/></g><text fill="#000000" font-family="Verdana" font-size="14" lengthAdjust="spacing" textLength="76.3096" x="66.02" y="603.7557">city: String</text><g data-visibility-modifier="PRIVATE_FIELD"><rect fill="none" height="6" style="stroke:#000000;stroke-width:1;" width="6" x="56.02" y="613.7059"/></g><text fill="#000000" font-family="Verdana" font-size="14" lengthAdjust="spacing" textLength="111.5146" x="66.02" y="620.0526">province: String</text><g data-visibility-modifier="PRIVATE_FIELD"><rect fill="none" height="6" style="stroke:#000000;stroke-width:1;" width="6" x="56.02" y="630.0028"/></g><text fill="#000000" font-family="Verdana" font-size="14" lengthAdjust="spacing" textLength="129.4932" x="66.02" y="636.3495">postalCode: String</text><g data-visibility-modifier="PRIVATE_FIELD"><rect fill="none" height="6" style="stroke:#000000;stroke-width:1;" width="6" x="56.02" y="646.2997"/></g><text fill="#000000" font-family="Verdana" font-size="14" lengthAdjust="spacing" textLength="127.4766" x="66.02" y="652.6464">isDefault: boolean</text><line style="stroke:#000000;stroke-width:1;stroke-dasharray:1,2;" x1="49.02" x2="131.6914" y1="468.5341" y2="468.5341"/><text fill="#000000" font-family="Verdana" font-size="14" lengthAdjust="spacing" textLength="40.626" x="131.6914" y="472.8807">Fields</text><line style="stroke:#000000;stroke-width:1;stroke-dasharray:1,2;" x1="172.3174" x2="254.9888" y1="468.5341" y2="468.5341"/><g data-visibility-modifier="PUBLIC_FIELD"><ellipse cx="59.02" cy="685.8934" fill="none" rx="3" ry="3" style="stroke:#000000;stroke-width:1;"/></g><text fill="#000000" font-family="Verdana" font-size="14" lengthAdjust="spacing" textLength="183.9688" x="66.02" y="689.2401">customer: CustomerEntity</text><line style="stroke:#000000;stroke-width:1;stroke-dasharray:1,2;" x1="49.02" x2="105.0722" y1="668.0966" y2="668.0966"/><text fill="#000000" font-family="Verdana" font-size="14" lengthAdjust="spacing" textLength="93.8643" x="105.0722" y="672.4432">Relationships</text><line style="stroke:#000000;stroke-width:1;stroke-dasharray:1,2;" x1="198.9365" x2="254.9888" y1="668.0966" y2="668.0966"/></g><!--class BookEntity--><g class="entity" data-qualified-name="book.BookEntity" data-source-line="38" id="ent0006"><rect fill="#FFFFFF" height="215.2344" rx="2.5" ry="2.5" style="stroke:#000000;stroke-width:1;" width="181.1787" x="714.41" y="1166.12"/><ellipse cx="763.3919" cy="1186.2528" fill="#FFFFFF" rx="9" ry="9" style="stroke:#000000;stroke-width:1;"/><path d="M766.3607,1191.8934 Q765.7826,1192.1903 765.1419,1192.3309 Q764.5013,1192.4872 763.7982,1192.4872 Q761.2982,1192.4872 759.9701,1190.8466 Q758.6576,1189.1903 758.6576,1186.0653 Q758.6576,1182.9403 759.9701,1181.2841 Q761.2982,1179.6278 763.7982,1179.6278 Q764.5013,1179.6278 765.1419,1179.7841 Q765.7982,1179.9403 766.3607,1180.2372 L766.3607,1182.9559 Q765.7357,1182.3778 765.1419,1182.1122 Q764.5482,1181.8309 763.9232,1181.8309 Q762.5794,1181.8309 761.8919,1182.9091 Q761.2044,1183.9716 761.2044,1186.0653 Q761.2044,1188.1591 761.8919,1189.2372 Q762.5794,1190.2997 763.9232,1190.2997 Q764.5482,1190.2997 765.1419,1190.0341 Q765.7357,1189.7528 766.3607,1189.1747 L766.3607,1191.8934 Z " fill="#000000"/><text fill="#000000" font-family="Verdana" font-size="12" font-style="italic" lengthAdjust="spacing" textLength="49.8457" x="793.8265" y="1182.2587">&#171;Entity&#187;</text><text fill="#000000" font-family="Verdana" font-size="14" lengthAdjust="spacing" textLength="75.7148" x="780.8919" y="1198.0839">BookEntity</text><line style="stroke:#000000;stroke-width:1;" x1="715.41" x2="894.5887" y1="1206.3856" y2="1206.3856"/><g data-visibility-modifier="PRIVATE_FIELD"><rect fill="none" height="6" style="stroke:#000000;stroke-width:1;" width="6" x="722.41" y="1237.3309"/></g><text fill="#000000" font-family="Verdana" font-size="14" lengthAdjust="spacing" textLength="56.0684" x="732.41" y="1243.6776">id: Long</text><g data-visibility-modifier="PRIVATE_FIELD"><rect fill="none" height="6" style="stroke:#000000;stroke-width:1;" width="6" x="722.41" y="1253.6278"/></g><text fill="#000000" font-family="Verdana" font-size="14" lengthAdjust="spacing" textLength="79.8916" x="732.41" y="1259.9745">isbn: String</text><g data-visibility-modifier="PRIVATE_FIELD"><rect fill="none" height="6" style="stroke:#000000;stroke-width:1;" width="6" x="722.41" y="1269.9247"/></g><text fill="#000000" font-family="Verdana" font-size="14" lengthAdjust="spacing" textLength="78.3193" x="732.41" y="1276.2714">title: String</text><g data-visibility-modifier="PRIVATE_FIELD"><rect fill="none" height="6" style="stroke:#000000;stroke-width:1;" width="6" x="722.41" y="1286.2216"/></g><text fill="#000000" font-family="Verdana" font-size="14" lengthAdjust="spacing" textLength="97.084" x="732.41" y="1292.5682">author: String</text><g data-visibility-modifier="PRIVATE_FIELD"><rect fill="none" height="6" style="stroke:#000000;stroke-width:1;" width="6" x="722.41" y="1302.5184"/></g><text fill="#000000" font-family="Verdana" font-size="14" lengthAdjust="spacing" textLength="128.7891" x="732.41" y="1308.8651">description: String</text><g data-visibility-modifier="PRIVATE_FIELD"><rect fill="none" height="6" style="stroke:#000000;stroke-width:1;" width="6" x="722.41" y="1318.8153"/></g><text fill="#000000" font-family="Verdana" font-size="14" lengthAdjust="spacing" textLength="114.4473" x="732.41" y="1325.162">imageUrl: String</text><g data-visibility-modifier="PRIVATE_FIELD"><rect fill="none" height="6" style="stroke:#000000;stroke-width:1;" width="6" x="722.41" y="1335.1122"/></g><text fill="#000000" font-family="Verdana" font-size="14" lengthAdjust="spacing" textLength="123.4775" x="732.41" y="1341.4589">price: BigDecimal</text><g data-visibility-modifier="PRIVATE_FIELD"><rect fill="none" height="6" style="stroke:#000000;stroke-width:1;" width="6" x="722.41" y="1351.4091"/></g><text fill="#000000" font-family="Verdana" font-size="14" lengthAdjust="spacing" textLength="157.1787" x="732.41" y="1357.7557">stockQuantity: Integer</text><g data-visibility-modifier="PRIVATE_FIELD"><rect fill="none" height="6" style="stroke:#000000;stroke-width:1;" width="6" x="722.41" y="1367.7059"/></g><text fill="#000000" font-family="Verdana" font-size="14" lengthAdjust="spacing" textLength="107.6934" x="732.41" y="1374.0526">active: boolean</text><line style="stroke:#000000;stroke-width:1;stroke-dasharray:1,2;" x1="715.41" x2="784.6864" y1="1222.5341" y2="1222.5341"/><text fill="#000000" font-family="Verdana" font-size="14" lengthAdjust="spacing" textLength="40.626" x="784.6864" y="1226.8807">Fields</text><line style="stroke:#000000;stroke-width:1;stroke-dasharray:1,2;" x1="825.3123" x2="894.5887" y1="1222.5341" y2="1222.5341"/></g><!--class CartEntity--><g class="entity" data-qualified-name="purchase.CartEntity" data-source-line="53" id="ent0008"><rect fill="#FFFFFF" height="137.75" rx="2.5" ry="2.5" style="stroke:#000000;stroke-width:1;" width="222.3652" x="485.82" y="485.46"/><ellipse cx="558.0168" cy="505.5928" fill="#FFFFFF" rx="9" ry="9" style="stroke:#000000;stroke-width:1;"/><path d="M560.9855,511.2334 Q560.4074,511.5303 559.7668,511.6709 Q559.1262,511.8272 558.423,511.8272 Q555.923,511.8272 554.5949,510.1866 Q553.2824,508.5303 553.2824,505.4053 Q553.2824,502.2803 554.5949,500.6241 Q555.923,498.9678 558.423,498.9678 Q559.1262,498.9678 559.7668,499.1241 Q560.423,499.2803 560.9855,499.5772 L560.9855,502.2959 Q560.3605,501.7178 559.7668,501.4522 Q559.173,501.1709 558.548,501.1709 Q557.2043,501.1709 556.5168,502.2491 Q555.8293,503.3116 555.8293,505.4053 Q555.8293,507.4991 556.5168,508.5772 Q557.2043,509.6397 558.548,509.6397 Q559.173,509.6397 559.7668,509.3741 Q560.3605,509.0928 560.9855,508.5147 L560.9855,511.2334 Z " fill="#000000"/><text fill="#000000" font-family="Verdana" font-size="12" font-style="italic" lengthAdjust="spacing" textLength="49.8457" x="585.8298" y="501.5987">&#171;Entity&#187;</text><text fill="#000000" font-family="Verdana" font-size="14" lengthAdjust="spacing" textLength="70.4717" x="575.5168" y="517.4239">CartEntity</text><line style="stroke:#000000;stroke-width:1;" x1="486.82" x2="707.1852" y1="525.7256" y2="525.7256"/><g data-visibility-modifier="PRIVATE_FIELD"><rect fill="none" height="6" style="stroke:#000000;stroke-width:1;" width="6" x="493.82" y="556.6709"/></g><text fill="#000000" font-family="Verdana" font-size="14" lengthAdjust="spacing" textLength="56.0684" x="503.82" y="563.0176">id: Long</text><line style="stroke:#000000;stroke-width:1;stroke-dasharray:1,2;" x1="486.82" x2="576.6896" y1="541.8741" y2="541.8741"/><text fill="#000000" font-family="Verdana" font-size="14" lengthAdjust="spacing" textLength="40.626" x="576.6896" y="546.2207">Fields</text><line style="stroke:#000000;stroke-width:1;stroke-dasharray:1,2;" x1="617.3156" x2="707.1852" y1="541.8741" y2="541.8741"/><g data-visibility-modifier="PUBLIC_FIELD"><ellipse cx="496.82" cy="596.2647" fill="none" rx="3" ry="3" style="stroke:#000000;stroke-width:1;"/></g><text fill="#000000" font-family="Verdana" font-size="14" lengthAdjust="spacing" textLength="183.9688" x="503.82" y="599.6114">customer: CustomerEntity</text><g data-visibility-modifier="PUBLIC_FIELD"><ellipse cx="496.82" cy="612.5616" fill="none" rx="3" ry="3" style="stroke:#000000;stroke-width:1;"/></g><text fill="#000000" font-family="Verdana" font-size="14" lengthAdjust="spacing" textLength="198.3652" x="503.82" y="615.9082">items: List&lt;CartItemEntity&gt;</text><line style="stroke:#000000;stroke-width:1;stroke-dasharray:1,2;" x1="486.82" x2="550.0705" y1="578.4678" y2="578.4678"/><text fill="#000000" font-family="Verdana" font-size="14" lengthAdjust="spacing" textLength="93.8643" x="550.0705" y="582.8145">Relationships</text><line style="stroke:#000000;stroke-width:1;stroke-dasharray:1,2;" x1="643.9347" x2="707.1852" y1="578.4678" y2="578.4678"/></g><!--class CartItemEntity--><g class="entity" data-qualified-name="purchase.CartItemEntity" data-source-line="61" id="ent0009"><rect fill="#FFFFFF" height="170.3438" rx="2.5" ry="2.5" style="stroke:#000000;stroke-width:1;" width="239.6055" x="481.2" y="850.96"/><ellipse cx="546.0823" cy="871.0928" fill="#FFFFFF" rx="9" ry="9" style="stroke:#000000;stroke-width:1;"/><path d="M549.0511,876.7334 Q548.4729,877.0303 547.8323,877.1709 Q547.1917,877.3272 546.4886,877.3272 Q543.9886,877.3272 542.6604,875.6866 Q541.3479,874.0303 541.3479,870.9053 Q541.3479,867.7803 542.6604,866.1241 Q543.9886,864.4678 546.4886,864.4678 Q547.1917,864.4678 547.8323,864.6241 Q548.4886,864.7803 549.0511,865.0772 L549.0511,867.7959 Q548.4261,867.2178 547.8323,866.9522 Q547.2386,866.6709 546.6136,866.6709 Q545.2698,866.6709 544.5823,867.7491 Q543.8948,868.8116 543.8948,870.9053 Q543.8948,872.9991 544.5823,874.0772 Q545.2698,875.1397 546.6136,875.1397 Q547.2386,875.1397 547.8323,874.8741 Q548.4261,874.5928 549.0511,874.0147 L549.0511,876.7334 Z " fill="#000000"/><text fill="#000000" font-family="Verdana" font-size="12" font-style="italic" lengthAdjust="spacing" textLength="49.8457" x="589.8299" y="867.0987">&#171;Entity&#187;</text><text fill="#000000" font-family="Verdana" font-size="14" lengthAdjust="spacing" textLength="102.3408" x="563.5823" y="882.9239">CartItemEntity</text><line style="stroke:#000000;stroke-width:1;" x1="482.2" x2="719.8055" y1="891.2256" y2="891.2256"/><g data-visibility-modifier="PRIVATE_FIELD"><rect fill="none" height="6" style="stroke:#000000;stroke-width:1;" width="6" x="489.2" y="922.1709"/></g><text fill="#000000" font-family="Verdana" font-size="14" lengthAdjust="spacing" textLength="56.0684" x="499.2" y="928.5176">id: Long</text><g data-visibility-modifier="PRIVATE_FIELD"><rect fill="none" height="6" style="stroke:#000000;stroke-width:1;" width="6" x="489.2" y="938.4678"/></g><text fill="#000000" font-family="Verdana" font-size="14" lengthAdjust="spacing" textLength="117.8926" x="499.2" y="944.8145">quantity: Integer</text><g data-visibility-modifier="PRIVATE_FIELD"><rect fill="none" height="6" style="stroke:#000000;stroke-width:1;" width="6" x="489.2" y="954.7647"/></g><text fill="#000000" font-family="Verdana" font-size="14" lengthAdjust="spacing" textLength="215.6055" x="499.2" y="961.1114">unitPriceSnapshot: BigDecimal</text><line style="stroke:#000000;stroke-width:1;stroke-dasharray:1,2;" x1="482.2" x2="580.6897" y1="907.3741" y2="907.3741"/><text fill="#000000" font-family="Verdana" font-size="14" lengthAdjust="spacing" textLength="40.626" x="580.6897" y="911.7207">Fields</text><line style="stroke:#000000;stroke-width:1;stroke-dasharray:1,2;" x1="621.3157" x2="719.8055" y1="907.3741" y2="907.3741"/><g data-visibility-modifier="PUBLIC_FIELD"><ellipse cx="492.2" cy="994.3584" fill="none" rx="3" ry="3" style="stroke:#000000;stroke-width:1;"/></g><text fill="#000000" font-family="Verdana" font-size="14" lengthAdjust="spacing" textLength="107.1602" x="499.2" y="997.7051">cart: CartEntity</text><g data-visibility-modifier="PUBLIC_FIELD"><ellipse cx="492.2" cy="1010.6553" fill="none" rx="3" ry="3" style="stroke:#000000;stroke-width:1;"/></g><text fill="#000000" font-family="Verdana" font-size="14" lengthAdjust="spacing" textLength="119.0068" x="499.2" y="1014.002">book: BookEntity</text><line style="stroke:#000000;stroke-width:1;stroke-dasharray:1,2;" x1="482.2" x2="554.0706" y1="976.5616" y2="976.5616"/><text fill="#000000" font-family="Verdana" font-size="14" lengthAdjust="spacing" textLength="93.8643" x="554.0706" y="980.9082">Relationships</text><line style="stroke:#000000;stroke-width:1;stroke-dasharray:1,2;" x1="647.9349" x2="719.8055" y1="976.5616" y2="976.5616"/></g><!--class OrderEntity--><g class="entity" data-qualified-name="purchase.OrderEntity" data-source-line="71" id="ent0010"><rect fill="#FFFFFF" height="349.6094" rx="2.5" ry="2.5" style="stroke:#000000;stroke-width:1;" width="232.7969" x="826.6" y="379.53"/><ellipse cx="898.7968" cy="399.6628" fill="#FFFFFF" rx="9" ry="9" style="stroke:#000000;stroke-width:1;"/><path d="M901.7655,405.3034 Q901.1874,405.6003 900.5468,405.7409 Q899.9062,405.8972 899.203,405.8972 Q896.703,405.8972 895.3749,404.2566 Q894.0624,402.6003 894.0624,399.4753 Q894.0624,396.3503 895.3749,394.6941 Q896.703,393.0378 899.203,393.0378 Q899.9062,393.0378 900.5468,393.1941 Q901.203,393.3503 901.7655,393.6472 L901.7655,396.3659 Q901.1405,395.7878 900.5468,395.5222 Q899.953,395.2409 899.328,395.2409 Q897.9843,395.2409 897.2968,396.3191 Q896.6093,397.3816 896.6093,399.4753 Q896.6093,401.5691 897.2968,402.6472 Q897.9843,403.7097 899.328,403.7097 Q899.953,403.7097 900.5468,403.4441 Q901.1405,403.1628 901.7655,402.5847 L901.7655,405.3034 Z " fill="#000000"/><text fill="#000000" font-family="Verdana" font-size="12" font-style="italic" lengthAdjust="spacing" textLength="49.8457" x="931.8256" y="395.6687">&#171;Entity&#187;</text><text fill="#000000" font-family="Verdana" font-size="14" lengthAdjust="spacing" textLength="80.9033" x="916.2968" y="411.4939">OrderEntity</text><line style="stroke:#000000;stroke-width:1;" x1="827.6" x2="1058.3969" y1="419.7956" y2="419.7956"/><g data-visibility-modifier="PRIVATE_FIELD"><rect fill="none" height="6" style="stroke:#000000;stroke-width:1;" width="6" x="834.6" y="450.7409"/></g><text fill="#000000" font-family="Verdana" font-size="14" lengthAdjust="spacing" textLength="56.0684" x="844.6" y="457.0876">id: Long</text><g data-visibility-modifier="PRIVATE_FIELD"><rect fill="none" height="6" style="stroke:#000000;stroke-width:1;" width="6" x="834.6" y="467.0378"/></g><text fill="#000000" font-family="Verdana" font-size="14" lengthAdjust="spacing" textLength="136.8281" x="844.6" y="473.3845">status: OrderStatus</text><g data-visibility-modifier="PRIVATE_FIELD"><rect fill="none" height="6" style="stroke:#000000;stroke-width:1;" width="6" x="834.6" y="483.3347"/></g><text fill="#000000" font-family="Verdana" font-size="14" lengthAdjust="spacing" textLength="175.6631" x="844.6" y="489.6814">totalAmount: BigDecimal</text><g data-visibility-modifier="PRIVATE_FIELD"><rect fill="none" height="6" style="stroke:#000000;stroke-width:1;" width="6" x="834.6" y="499.6316"/></g><text fill="#000000" font-family="Verdana" font-size="14" lengthAdjust="spacing" textLength="176.4355" x="844.6" y="505.9782">shippingFullName: String</text><g data-visibility-modifier="PRIVATE_FIELD"><rect fill="none" height="6" style="stroke:#000000;stroke-width:1;" width="6" x="834.6" y="515.9284"/></g><text fill="#000000" font-family="Verdana" font-size="14" lengthAdjust="spacing" textLength="153.7949" x="844.6" y="522.2751">shippingPhone: String</text><g data-visibility-modifier="PRIVATE_FIELD"><rect fill="none" height="6" style="stroke:#000000;stroke-width:1;" width="6" x="834.6" y="532.2253"/></g><text fill="#000000" font-family="Verdana" font-size="14" lengthAdjust="spacing" textLength="148.5107" x="844.6" y="538.572">shippingLine1: String</text><g data-visibility-modifier="PRIVATE_FIELD"><rect fill="none" height="6" style="stroke:#000000;stroke-width:1;" width="6" x="834.6" y="548.5222"/></g><text fill="#000000" font-family="Verdana" font-size="14" lengthAdjust="spacing" textLength="148.5107" x="844.6" y="554.8689">shippingLine2: String</text><g data-visibility-modifier="PRIVATE_FIELD"><rect fill="none" height="6" style="stroke:#000000;stroke-width:1;" width="6" x="834.6" y="564.8191"/></g><text fill="#000000" font-family="Verdana" font-size="14" lengthAdjust="spacing" textLength="147.4922" x="844.6" y="571.1657">shippingWard: String</text><g data-visibility-modifier="PRIVATE_FIELD"><rect fill="none" height="6" style="stroke:#000000;stroke-width:1;" width="6" x="834.6" y="581.1159"/></g><text fill="#000000" font-family="Verdana" font-size="14" lengthAdjust="spacing" textLength="160.7129" x="844.6" y="587.4626">shippingDistrict: String</text><g data-visibility-modifier="PRIVATE_FIELD"><rect fill="none" height="6" style="stroke:#000000;stroke-width:1;" width="6" x="834.6" y="597.4128"/></g><text fill="#000000" font-family="Verdana" font-size="14" lengthAdjust="spacing" textLength="137.8672" x="844.6" y="603.7595">shippingCity: String</text><g data-visibility-modifier="PRIVATE_FIELD"><rect fill="none" height="6" style="stroke:#000000;stroke-width:1;" width="6" x="834.6" y="613.7097"/></g><text fill="#000000" font-family="Verdana" font-size="14" lengthAdjust="spacing" textLength="170.5498" x="844.6" y="620.0564">shippingProvince: String</text><g data-visibility-modifier="PRIVATE_FIELD"><rect fill="none" height="6" style="stroke:#000000;stroke-width:1;" width="6" x="834.6" y="630.0066"/></g><text fill="#000000" font-family="Verdana" font-size="14" lengthAdjust="spacing" textLength="188.5283" x="844.6" y="636.3532">shippingPostalCode: String</text><g data-visibility-modifier="PRIVATE_FIELD"><rect fill="none" height="6" style="stroke:#000000;stroke-width:1;" width="6" x="834.6" y="646.3034"/></g><text fill="#000000" font-family="Verdana" font-size="14" lengthAdjust="spacing" textLength="119.5127" x="844.6" y="652.6501">placedAt: Instant</text><g data-visibility-modifier="PRIVATE_FIELD"><rect fill="none" height="6" style="stroke:#000000;stroke-width:1;" width="6" x="834.6" y="662.6003"/></g><text fill="#000000" font-family="Verdana" font-size="14" lengthAdjust="spacing" textLength="139.6992" x="844.6" y="668.947">cancelledAt: Instant</text><line style="stroke:#000000;stroke-width:1;stroke-dasharray:1,2;" x1="827.6" x2="922.6854" y1="435.9441" y2="435.9441"/><text fill="#000000" font-family="Verdana" font-size="14" lengthAdjust="spacing" textLength="40.626" x="922.6854" y="440.2907">Fields</text><line style="stroke:#000000;stroke-width:1;stroke-dasharray:1,2;" x1="963.3114" x2="1058.3969" y1="435.9441" y2="435.9441"/><g data-visibility-modifier="PUBLIC_FIELD"><ellipse cx="837.6" cy="702.1941" fill="none" rx="3" ry="3" style="stroke:#000000;stroke-width:1;"/></g><text fill="#000000" font-family="Verdana" font-size="14" lengthAdjust="spacing" textLength="183.9688" x="844.6" y="705.5407">customer: CustomerEntity</text><g data-visibility-modifier="PUBLIC_FIELD"><ellipse cx="837.6" cy="718.4909" fill="none" rx="3" ry="3" style="stroke:#000000;stroke-width:1;"/></g><text fill="#000000" font-family="Verdana" font-size="14" lengthAdjust="spacing" textLength="208.7969" x="844.6" y="721.8376">items: List&lt;OrderItemEntity&gt;</text><line style="stroke:#000000;stroke-width:1;stroke-dasharray:1,2;" x1="827.6" x2="896.0663" y1="684.3972" y2="684.3972"/><text fill="#000000" font-family="Verdana" font-size="14" lengthAdjust="spacing" textLength="93.8643" x="896.0663" y="688.7439">Relationships</text><line style="stroke:#000000;stroke-width:1;stroke-dasharray:1,2;" x1="989.9306" x2="1058.3969" y1="684.3972" y2="684.3972"/></g><!--class OrderItemEntity--><g class="entity" data-qualified-name="purchase.OrderItemEntity" data-source-line="92" id="ent0011"><rect fill="#FFFFFF" height="259.9766" rx="2.5" ry="2.5" style="stroke:#000000;stroke-width:1;" width="374.5635" x="755.72" y="806.14"/><ellipse cx="882.8655" cy="826.2728" fill="#FFFFFF" rx="9" ry="9" style="stroke:#000000;stroke-width:1;"/><path d="M885.8343,831.9134 Q885.2561,832.2103 884.6155,832.3509 Q883.9749,832.5072 883.2718,832.5072 Q880.7718,832.5072 879.4436,830.8666 Q878.1311,829.2103 878.1311,826.0853 Q878.1311,822.9603 879.4436,821.3041 Q880.7718,819.6478 883.2718,819.6478 Q883.9749,819.6478 884.6155,819.8041 Q885.2718,819.9603 885.8343,820.2572 L885.8343,822.9759 Q885.2093,822.3978 884.6155,822.1322 Q884.0218,821.8509 883.3968,821.8509 Q882.053,821.8509 881.3655,822.9291 Q880.678,823.9916 880.678,826.0853 Q880.678,828.1791 881.3655,829.2572 Q882.053,830.3197 883.3968,830.3197 Q884.0218,830.3197 884.6155,830.0541 Q885.2093,829.7728 885.8343,829.1947 L885.8343,831.9134 Z " fill="#000000"/><text fill="#000000" font-family="Verdana" font-size="12" font-style="italic" lengthAdjust="spacing" textLength="49.8457" x="931.8289" y="822.2787">&#171;Entity&#187;</text><text fill="#000000" font-family="Verdana" font-size="14" lengthAdjust="spacing" textLength="112.7725" x="900.3655" y="838.1039">OrderItemEntity</text><line style="stroke:#000000;stroke-width:1;" x1="756.72" x2="1129.2835" y1="846.4056" y2="846.4056"/><line style="stroke:#000000;stroke-width:1;" x1="756.72" x2="759.72" y1="862.5541" y2="862.5541"/><text fill="#000000" font-family="Verdana" font-size="14" lengthAdjust="spacing" textLength="366.5635" x="759.72" y="866.9007">Standalone entity: does NOT extend AuditableEntity</text><line style="stroke:#000000;stroke-width:1;" x1="1126.2835" x2="1129.2835" y1="862.5541" y2="862.5541"/><g data-visibility-modifier="PRIVATE_FIELD"><rect fill="none" height="6" style="stroke:#000000;stroke-width:1;" width="6" x="763.72" y="901.7962"/></g><text fill="#000000" font-family="Verdana" font-size="14" lengthAdjust="spacing" textLength="56.0684" x="773.72" y="908.1429">id: Long</text><g data-visibility-modifier="PRIVATE_FIELD"><rect fill="none" height="6" style="stroke:#000000;stroke-width:1;" width="6" x="763.72" y="918.0931"/></g><text fill="#000000" font-family="Verdana" font-size="14" lengthAdjust="spacing" textLength="180.9541" x="773.72" y="924.4398">bookTitleSnapshot: String</text><g data-visibility-modifier="PRIVATE_FIELD"><rect fill="none" height="6" style="stroke:#000000;stroke-width:1;" width="6" x="763.72" y="934.39"/></g><text fill="#000000" font-family="Verdana" font-size="14" lengthAdjust="spacing" textLength="179.7031" x="773.72" y="940.7367">bookIsbnSnapshot: String</text><g data-visibility-modifier="PRIVATE_FIELD"><rect fill="none" height="6" style="stroke:#000000;stroke-width:1;" width="6" x="763.72" y="950.6869"/></g><text fill="#000000" font-family="Verdana" font-size="14" lengthAdjust="spacing" textLength="215.6055" x="773.72" y="957.0336">unitPriceSnapshot: BigDecimal</text><g data-visibility-modifier="PRIVATE_FIELD"><rect fill="none" height="6" style="stroke:#000000;stroke-width:1;" width="6" x="763.72" y="966.9837"/></g><text fill="#000000" font-family="Verdana" font-size="14" lengthAdjust="spacing" textLength="117.8926" x="773.72" y="973.3304">quantity: Integer</text><g data-visibility-modifier="PRIVATE_FIELD"><rect fill="none" height="6" style="stroke:#000000;stroke-width:1;" width="6" x="763.72" y="983.2806"/></g><text fill="#000000" font-family="Verdana" font-size="14" lengthAdjust="spacing" textLength="148.9756" x="773.72" y="989.6273">lineTotal: BigDecimal</text><g data-visibility-modifier="PRIVATE_FIELD"><rect fill="none" height="6" style="stroke:#000000;stroke-width:1;" width="6" x="763.72" y="999.5775"/></g><text fill="#000000" font-family="Verdana" font-size="14" lengthAdjust="spacing" textLength="126.5947" x="773.72" y="1005.9242">createdAt: Instant</text><line style="stroke:#000000;stroke-width:1;stroke-dasharray:1,2;" x1="756.72" x2="922.6888" y1="886.9994" y2="886.9994"/><text fill="#000000" font-family="Verdana" font-size="14" lengthAdjust="spacing" textLength="40.626" x="922.6888" y="891.3461">Fields</text><line style="stroke:#000000;stroke-width:1;stroke-dasharray:1,2;" x1="963.3147" x2="1129.2835" y1="886.9994" y2="886.9994"/><g data-visibility-modifier="PUBLIC_FIELD"><ellipse cx="766.72" cy="1039.1712" fill="none" rx="3" ry="3" style="stroke:#000000;stroke-width:1;"/></g><text fill="#000000" font-family="Verdana" font-size="14" lengthAdjust="spacing" textLength="127.6475" x="773.72" y="1042.5179">order: OrderEntity</text><g data-visibility-modifier="PUBLIC_FIELD"><ellipse cx="766.72" cy="1055.4681" fill="none" rx="3" ry="3" style="stroke:#000000;stroke-width:1;"/></g><text fill="#000000" font-family="Verdana" font-size="14" lengthAdjust="spacing" textLength="119.0068" x="773.72" y="1058.8148">book: BookEntity</text><line style="stroke:#000000;stroke-width:1;stroke-dasharray:1,2;" x1="756.72" x2="896.0696" y1="1021.3744" y2="1021.3744"/><text fill="#000000" font-family="Verdana" font-size="14" lengthAdjust="spacing" textLength="93.8643" x="896.0696" y="1025.7211">Relationships</text><line style="stroke:#000000;stroke-width:1;stroke-dasharray:1,2;" x1="989.9339" x2="1129.2835" y1="1021.3744" y2="1021.3744"/></g><!--class CustomerStatus--><g class="entity" data-qualified-name="CustomerStatus" data-source-line="110" id="ent0012"><rect fill="#FFFFFF" height="88.8594" rx="2.5" ry="2.5" style="stroke:#000000;stroke-width:1;" width="140.6152" x="308.69" y="509.9"/><ellipse cx="321.69" cy="530.0328" fill="#FFFFFF" rx="9" ry="9" style="stroke:#000000;stroke-width:1;"/><path d="M324.6588,535.6734 Q324.0806,535.9703 323.44,536.1109 Q322.7994,536.2672 322.0963,536.2672 Q319.5963,536.2672 318.2681,534.6266 Q316.9556,532.9703 316.9556,529.8453 Q316.9556,526.7203 318.2681,525.0641 Q319.5963,523.4078 322.0963,523.4078 Q322.7994,523.4078 323.44,523.5641 Q324.0963,523.7203 324.6588,524.0172 L324.6588,526.7359 Q324.0338,526.1578 323.44,525.8922 Q322.8463,525.6109 322.2213,525.6109 Q320.8775,525.6109 320.19,526.6891 Q319.5025,527.7516 319.5025,529.8453 Q319.5025,531.9391 320.19,533.0172 Q320.8775,534.0797 322.2213,534.0797 Q322.8463,534.0797 323.44,533.8141 Q324.0338,533.5328 324.6588,532.9547 L324.6588,535.6734 Z " fill="#000000"/><text fill="#000000" font-family="Verdana" font-size="12" font-style="italic" lengthAdjust="spacing" textLength="91.752" x="344.1216" y="526.0387">&#171;enumeration&#187;</text><text fill="#000000" font-family="Verdana" font-size="14" lengthAdjust="spacing" textLength="112.6152" x="333.69" y="541.8639">CustomerStatus</text><line style="stroke:#000000;stroke-width:1;" x1="309.69" x2="448.3052" y1="550.1656" y2="550.1656"/><text fill="#000000" font-family="Verdana" font-size="14" lengthAdjust="spacing" textLength="50.4561" x="314.69" y="567.1607">ACTIVE</text><text fill="#000000" font-family="Verdana" font-size="14" lengthAdjust="spacing" textLength="65.0576" x="314.69" y="583.4576">INACTIVE</text><line style="stroke:#000000;stroke-width:1;" x1="309.69" x2="448.3052" y1="590.7594" y2="590.7594"/></g><!--class OrderStatus--><g class="entity" data-qualified-name="OrderStatus" data-source-line="114" id="ent0013"><rect fill="#FFFFFF" height="105.1563" rx="2.5" ry="2.5" style="stroke:#000000;stroke-width:1;" width="115.752" x="1165.12" y="883.55"/><ellipse cx="1178.12" cy="903.6828" fill="#FFFFFF" rx="9" ry="9" style="stroke:#000000;stroke-width:1;"/><path d="M1181.0888,909.3234 Q1180.5106,909.6203 1179.87,909.7609 Q1179.2294,909.9172 1178.5263,909.9172 Q1176.0263,909.9172 1174.6981,908.2766 Q1173.3856,906.6203 1173.3856,903.4953 Q1173.3856,900.3703 1174.6981,898.7141 Q1176.0263,897.0578 1178.5263,897.0578 Q1179.2294,897.0578 1179.87,897.2141 Q1180.5263,897.3703 1181.0888,897.6672 L1181.0888,900.3859 Q1180.4638,899.8078 1179.87,899.5422 Q1179.2763,899.2609 1178.6513,899.2609 Q1177.3075,899.2609 1176.62,900.3391 Q1175.9325,901.4016 1175.9325,903.4953 Q1175.9325,905.5891 1176.62,906.6672 Q1177.3075,907.7297 1178.6513,907.7297 Q1179.2763,907.7297 1179.87,907.4641 Q1180.4638,907.1828 1181.0888,906.6047 L1181.0888,909.3234 Z " fill="#000000"/><text fill="#000000" font-family="Verdana" font-size="12" font-style="italic" lengthAdjust="spacing" textLength="91.752" x="1188.12" y="899.6887">&#171;enumeration&#187;</text><text fill="#000000" font-family="Verdana" font-size="14" lengthAdjust="spacing" textLength="84.6426" x="1191.6747" y="915.5139">OrderStatus</text><line style="stroke:#000000;stroke-width:1;" x1="1166.12" x2="1279.872" y1="923.8156" y2="923.8156"/><text fill="#000000" font-family="Verdana" font-size="14" lengthAdjust="spacing" textLength="63.9912" x="1171.12" y="940.8107">PENDING</text><text fill="#000000" font-family="Verdana" font-size="14" lengthAdjust="spacing" textLength="55.2207" x="1171.12" y="957.1076">PLACED</text><text fill="#000000" font-family="Verdana" font-size="14" lengthAdjust="spacing" textLength="83.6719" x="1171.12" y="973.4045">CANCELLED</text><line style="stroke:#000000;stroke-width:1;" x1="1166.12" x2="1279.872" y1="980.7063" y2="980.7063"/></g><!--reverse link CustomerEntity to AddressEntity--><g class="link" data-entity-1="ent0003" data-entity-2="ent0004" data-link-type="aggregation" data-source-line="123" id="lnk14"><path codeLine="123" d="M152,293.87 C152,334.77 152,369.11 152,411.78" fill="none" id="CustomerEntity-backto-AddressEntity" style="stroke:#000000;stroke-width:1;"/><polygon fill="none" points="152,281.87,148,287.87,152,293.87,156,287.87,152,281.87" style="stroke:#000000;stroke-width:1;"/><text fill="#000000" font-family="Verdana" font-size="13" lengthAdjust="spacing" textLength="66.1299" x="153" y="324.5969">addresses</text><text fill="#000000" font-family="Verdana" font-size="13" lengthAdjust="spacing" textLength="8.271" x="143.7646" y="301.595">1</text><text fill="#000000" font-family="Verdana" font-size="13" lengthAdjust="spacing" textLength="26.2603" x="125.3362" y="401.1133">0..N</text></g><!--reverse link CustomerEntity to CartEntity--><g class="link" data-entity-1="ent0003" data-entity-2="ent0008" data-link-type="aggregation" data-source-line="126" id="lnk15"><path codeLine="126" d="M287.9192,219.2038 C350.1592,248.1738 412.63,284.34 467,336.53 C511.01,378.77 545.55,439.06 567.94,485.34" fill="none" id="CustomerEntity-backto-CartEntity" style="stroke:#000000;stroke-width:1;"/><polygon fill="none" points="277.04,214.14,280.7917,220.2983,287.9192,219.2038,284.1676,213.0455,277.04,214.14" style="stroke:#000000;stroke-width:1;"/><text fill="#000000" font-family="Verdana" font-size="13" lengthAdjust="spacing" textLength="25.5557" x="453.81" y="324.5969">cart</text><text fill="#000000" font-family="Verdana" font-size="13" lengthAdjust="spacing" textLength="8.271" x="284.9117" y="213.8236">1</text><text fill="#000000" font-family="Verdana" font-size="13" lengthAdjust="spacing" textLength="8.271" x="556.5444" y="474.5252">1</text></g><!--reverse link CartEntity to CartItemEntity--><g class="link" data-entity-1="ent0008" data-entity-2="ent0009" data-link-type="aggregation" data-source-line="129" id="lnk16"><path codeLine="129" d="M597.8463,635.6693 C598.5163,699.3093 599.39,782.38 600.11,850.73" fill="none" id="CartEntity-backto-CartItemEntity" style="stroke:#000000;stroke-width:1;"/><polygon fill="none" points="597.72,623.67,593.7834,629.7118,597.8463,635.6693,601.7829,629.6276,597.72,623.67" style="stroke:#000000;stroke-width:1;"/><text fill="#000000" font-family="Verdana" font-size="13" lengthAdjust="spacing" textLength="36.1436" x="600.24" y="772.2069">items</text><text fill="#000000" font-family="Verdana" font-size="13" lengthAdjust="spacing" textLength="8.271" x="589.4102" y="643.3069">1</text><text fill="#000000" font-family="Verdana" font-size="13" lengthAdjust="spacing" textLength="26.2603" x="572.9273" y="839.8188">0..N</text></g><!--reverse link CartItemEntity to BookEntity--><g class="link" data-entity-1="ent0009" data-entity-2="ent0006" data-link-type="composition" data-source-line="132" id="lnk17"><path codeLine="132" d="M658.4434,1031.634 C685.0634,1075.424 711.64,1119.14 740.02,1165.83" fill="none" id="CartItemEntity-backto-BookEntity" style="stroke:#000000;stroke-width:1;"/><polygon fill="#000000" points="652.21,1021.38,651.9087,1028.5848,658.4434,1031.634,658.7447,1024.4292,652.21,1021.38" style="stroke:#000000;stroke-width:1;"/><text fill="#000000" font-family="Verdana" font-size="13" lengthAdjust="spacing" textLength="31.6875" x="710.12" y="1111.1869">book</text><text fill="#000000" font-family="Verdana" font-size="13" lengthAdjust="spacing" textLength="9.7246" x="647.255" y="1041.4231">N</text><text fill="#000000" font-family="Verdana" font-size="13" lengthAdjust="spacing" textLength="8.271" x="727.3946" y="1155.1474">1</text></g><!--reverse link OrderEntity to CustomerEntity--><g class="link" data-entity-1="ent0010" data-entity-2="ent0003" data-link-type="composition" data-source-line="135" id="lnk18"><path codeLine="135" d="M817.5831,407.4281 C787.3631,378.0681 761.79,357.88 726,336.53 C584.52,252.13 398.41,206.42 277.03,183.83" fill="none" id="OrderEntity-backto-CustomerEntity" style="stroke:#000000;stroke-width:1;"/><polygon fill="#000000" points="826.19,415.79,824.6739,408.7401,817.5831,407.4281,819.0993,414.478,826.19,415.79" style="stroke:#000000;stroke-width:1;"/><text fill="#000000" font-family="Verdana" font-size="13" lengthAdjust="spacing" textLength="61.2168" x="713.14" y="324.5969">customer</text><text fill="#000000" font-family="Verdana" font-size="13" lengthAdjust="spacing" textLength="9.7246" x="809.0639" y="403.049">N</text><text fill="#000000" font-family="Verdana" font-size="13" lengthAdjust="spacing" textLength="8.271" x="284.9011" y="181.6666">1</text></g><!--reverse link OrderEntity to OrderItemEntity--><g class="link" data-entity-1="ent0010" data-entity-2="ent0011" data-link-type="aggregation" data-source-line="138" id="lnk19"><path codeLine="138" d="M943,741.39 C943,767.06 943,781.11 943,805.66" fill="none" id="OrderEntity-backto-OrderItemEntity" style="stroke:#000000;stroke-width:1;"/><polygon fill="none" points="943,729.39,939,735.39,943,741.39,947,735.39,943,729.39" style="stroke:#000000;stroke-width:1;"/><text fill="#000000" font-family="Verdana" font-size="13" lengthAdjust="spacing" textLength="36.1436" x="944" y="772.2069">items</text><text fill="#000000" font-family="Verdana" font-size="13" lengthAdjust="spacing" textLength="8.271" x="934.837" y="749.1612">1</text><text fill="#000000" font-family="Verdana" font-size="13" lengthAdjust="spacing" textLength="26.2603" x="916.2961" y="795.1854">0..N</text></g><!--reverse link OrderItemEntity to BookEntity--><g class="link" data-entity-1="ent0011" data-entity-2="ent0006" data-link-type="composition" data-source-line="141" id="lnk20"><path codeLine="141" d="M885.2781,1077.4991 C871.7681,1110.3691 861.96,1134.22 848.96,1165.84" fill="none" id="OrderItemEntity-backto-BookEntity" style="stroke:#000000;stroke-width:1;"/><polygon fill="#000000" points="889.84,1066.4,883.8594,1070.4289,885.2781,1077.4991,891.2588,1073.4702,889.84,1066.4" style="stroke:#000000;stroke-width:1;"/><text fill="#000000" font-family="Verdana" font-size="13" lengthAdjust="spacing" textLength="31.6875" x="877.07" y="1111.1869">book</text><text fill="#000000" font-family="Verdana" font-size="13" lengthAdjust="spacing" textLength="9.7246" x="877.7064" y="1086.0049">N</text><text fill="#000000" font-family="Verdana" font-size="13" lengthAdjust="spacing" textLength="8.271" x="843.654" y="1155.1581">1</text></g><!--link CustomerEntity to CustomerStatus--><g class="link" data-entity-1="ent0003" data-entity-2="ent0012" data-link-type="association" data-source-line="144" id="lnk21"><path codeLine="144" d="M255.99,281.86 C269.35,299.56 282.13,318.08 293,336.53 C326.2,392.87 351.74,464.41 366.07,509.55" fill="none" id="CustomerEntity-CustomerStatus" style="stroke:#000000;stroke-width:1;stroke-dasharray:7,7;"/></g><!--link OrderEntity to OrderStatus--><g class="link" data-entity-1="ent0010" data-entity-2="ent0013" data-link-type="association" data-source-line="145" id="lnk22"><path codeLine="145" d="M1059.89,692.56 C1089.07,728.72 1119.55,768.24 1146,806.14 C1163.16,830.73 1180.45,859.26 1194.28,883.23" fill="none" id="OrderEntity-OrderStatus" style="stroke:#000000;stroke-width:1;stroke-dasharray:7,7;"/></g><?plantuml-src pLVTJjim5BxlKtYz6TjKj78P8QJG1gZMXOwMxTeaXbfrxCnsODE4jAizmCGJyYGxpb-Tu1H6kQ2g8FOvFZdV-Vby-aOlIK9GoZ3blTvRT7_tk_YYcJ_wv1y7y_NMQ_lsKXojy1L1VPpfPH_zwY7uH0mhXKQPqY8XCk2QwfzeVxzuE3WejSndTnSTKS9Y1K_rvW3Hs4DJmQ-iBP9WoZmqrv8szbDurOsGyGbMIuVuCcCin0bndLmAxjfN6kjCURN_ytnjktn66DPKSBMaQSFp3mZ7iIHA4JW_fKhl-yMwX6ufHbXgU0VyBMIM2D0GMHauDGlx-6tFYd73_BOXbYIYAILS_sV06ELasB6_vzY_mJ9sRCS0Lz98EqGHW78v9CKrvP7JLm5fP2CHkuHKZSabpXYywa88HZ1_OdQZiYIyLd6NYO7KrFq0XbVDVZY4dPT955KNt04BB38NNDEQGheYJbGaQMh0kgAK091pwMmwo1EywP1UZQ5c4imQxIEYrPSCvm0zDE6QN15fknDfUasQeM_6BirajCIAjFYaxfNjuhT5YWiLgabIjQTnQWBhpWvjAcoR-UyRuffngcScCNEEKxKKsfcWHz1tiv8fQCygueTGBQhQ5cV5mRd95W53eGleRJyH6TTTHGZGKgZPesxwhrHcNTT0APzsi9ijtziW_-PckqeyxcQzIcNaPhyQG3SBrYgRs106ZuZ4lZOr1MfSsyIBmJ1ZRl6BDbAUwOsTrD9mbzXW000nZp63h29IDaiiY4BXwGAH7vhm6FbPJ3M-OAGqDHWyeqPDGomCvQxxxK5iZSu4s7g3ojFQTdFhcvjsOPgYusma2TRFIM8-YdXsPp_E2BVD8JO8pp-_uWbsFSekQMmg9ajGGk32Z5MlESSMD0HbPtI8p4DMrvu_Mao-1ldZ92mNjpshS3UUdWNXU18U5yzJVnICyyUH7uw2wHHMhPYU1LD_CJaDvoUJsIkBhN6qYXYw__Et6b7Hpj0Bt_LQFmhwmpuIqBFzZxkxORyrpdhhQRfbzIw_eep9ORT9-6-D35v-j-Lsp57ZMNKrLwwjbLjkjUvmho2kobPkmjWpdO1smjodvea-67bV-cIDWVaCj39syX8fdAfG5eRiEzMsqWBjrNJRj5PpPecnOQu9iasl5igrbHRCzfb7SGPG_AgTCQ2WrcyjsqsGsbF0Fm00?></g></svg>