<?plantuml 1.2026.2?><svg xmlns="http://www.w3.org/2000/svg" xmlns:xlink="http://www.w3.org/1999/xlink" contentStyleType="text/css" data-diagram-type="SEQUENCE" height="429px" preserveAspectRatio="none" style="width:590px;height:429px;background:#FEFEFE;" version="1.1" viewBox="0 0 590 429" width="590px" zoomAndPan="magnify"><defs/><g><rect fill="#FEFEFE" height="429" style="stroke:none;stroke-width:1;" width="590" x="0" y="0"/><g><title>LogoutPageBean</title><rect fill="#FFFFFF" height="137.6641" style="stroke:#181818;stroke-width:1;" width="10" x="329.811" y="127.5625"/></g><g><title>AuthSession</title><rect fill="#FFFFFF" height="79.3984" style="stroke:#181818;stroke-width:1;" width="10" x="469.1016" y="156.6953"/></g><g class="participant-lifeline" data-entity-uid="part1" data-qualified-name="Customer" id="part1-lifeline"><g><title>Kh.ch h.ng</title><rect fill="#000000" fill-opacity="0.00000" height="267.3281" width="8" x="135.4326" y="81.2969"/><line style="stroke:#181818;stroke-width:0.5;stroke-dasharray:5,5;" x1="139" x2="139" y1="81.2969" y2="348.625"/></g></g><g class="participant-lifeline" data-entity-uid="part2" data-qualified-name="Page" id="part2-lifeline"><g><title>LogoutPageBean</title><rect fill="#000000" fill-opacity="0.00000" height="267.3281" width="8" x="330.811" y="81.2969"/><line style="stroke:#181818;stroke-width:0.5;stroke-dasharray:5,5;" x1="334.6255" x2="334.6255" y1="81.2969" y2="348.625"/></g></g><g class="participant-lifeline" data-entity-uid="part3" data-qualified-name="Session" id="part3-lifeline"><g><title>AuthSession</title><rect fill="#000000" fill-opacity="0.00000" height="267.3281" width="8" x="470.1016" y="81.2969"/><line style="stroke:#181818;stroke-width:0.5;stroke-dasharray:5,5;" x1="473.9873" x2="473.9873" y1="81.2969" y2="348.625"/></g></g><g class="participant participant-head" data-entity-uid="part1" data-qualified-name="Customer" id="part1-head"><text fill="#000000" font-family="sans-serif" font-size="14" lengthAdjust="spacing" textLength="82.8652" x="95" y="77.9951">Kh&#225;ch h&#224;ng</text><ellipse cx="139.4326" cy="13.5" fill="#E2E2F0" rx="8" ry="8" style="stroke:#181818;stroke-width:0.5;"/><path d="M139.4326,21.5 L139.4326,48.5 M126.4326,29.5 L152.4326,29.5 M139.4326,48.5 L126.4326,63.5 M139.4326,48.5 L152.4326,63.5" fill="none" style="stroke:#181818;stroke-width:0.5;"/></g><g class="participant participant-tail" data-entity-uid="part1" data-qualified-name="Customer" id="part1-tail"><text fill="#000000" font-family="sans-serif" font-size="14" lengthAdjust="spacing" textLength="82.8652" x="95" y="360.6201">Kh&#225;ch h&#224;ng</text><ellipse cx="139.4326" cy="372.4219" fill="#E2E2F0" rx="8" ry="8" style="stroke:#181818;stroke-width:0.5;"/><path d="M139.4326,380.4219 L139.4326,407.4219 M126.4326,388.4219 L152.4326,388.4219 M139.4326,407.4219 L126.4326,422.4219 M139.4326,407.4219 L152.4326,422.4219" fill="none" style="stroke:#181818;stroke-width:0.5;"/></g><g class="participant participant-head" data-entity-uid="part2" data-qualified-name="Page" id="part2-head"><rect fill="#87CEEB" height="30.2969" rx="2.5" ry="2.5" style="stroke:#181818;stroke-width:0.5;" width="132.3711" x="268.6255" y="50"/><text fill="#000000" font-family="sans-serif" font-size="14" lengthAdjust="spacing" textLength="118.3711" x="275.6255" y="69.9951">LogoutPageBean</text></g><g class="participant participant-tail" data-entity-uid="part2" data-qualified-name="Page" id="part2-tail"><rect fill="#87CEEB" height="30.2969" rx="2.5" ry="2.5" style="stroke:#181818;stroke-width:0.5;" width="132.3711" x="268.6255" y="347.625"/><text fill="#000000" font-family="sans-serif" font-size="14" lengthAdjust="spacing" textLength="118.3711" x="275.6255" y="367.6201">LogoutPageBean</text></g><g class="participant participant-head" data-entity-uid="part3" data-qualified-name="Session" id="part3-head"><rect fill="#FFB6C1" height="30.2969" rx="2.5" ry="2.5" style="stroke:#181818;stroke-width:0.5;" width="100.2285" x="423.9873" y="50"/><text fill="#000000" font-family="sans-serif" font-size="14" lengthAdjust="spacing" textLength="86.2285" x="430.9873" y="69.9951">AuthSession</text></g><g class="participant participant-tail" data-entity-uid="part3" data-qualified-name="Session" id="part3-tail"><rect fill="#FFB6C1" height="30.2969" rx="2.5" ry="2.5" style="stroke:#181818;stroke-width:0.5;" width="100.2285" x="423.9873" y="347.625"/><text fill="#000000" font-family="sans-serif" font-size="14" lengthAdjust="spacing" textLength="86.2285" x="430.9873" y="367.6201">AuthSession</text></g><g><title>LogoutPageBean</title><rect fill="#FFFFFF" height="137.6641" style="stroke:#181818;stroke-width:1;" width="10" x="329.811" y="127.5625"/></g><g><title>AuthSession</title><rect fill="#FFFFFF" height="79.3984" style="stroke:#181818;stroke-width:1;" width="10" x="469.1016" y="156.6953"/></g><g class="message" data-entity-1="part1" data-entity-2="part2" id="msg1"><polygon fill="#181818" points="317.811,123.5625,327.811,127.5625,317.811,131.5625,321.811,127.5625" style="stroke:#181818;stroke-width:1;"/><line style="stroke:#181818;stroke-width:1;" x1="139.4326" x2="323.811" y1="127.5625" y2="127.5625"/><text fill="#000000" font-family="sans-serif" font-size="13" lengthAdjust="spacing" textLength="163.0269" x="146.4326" y="107.3638">Truy c&#7853;p /auth/logout.jsp</text><text fill="#000000" font-family="sans-serif" font-size="13" lengthAdjust="spacing" textLength="145.8691" x="146.4326" y="122.4966">(ch&#7841;y logic &#273;&#259;ng xu&#7845;t)</text></g><g class="message" data-entity-1="part2" data-entity-2="part3" id="msg2"><polygon fill="#181818" points="457.1016,152.6953,467.1016,156.6953,457.1016,160.6953,461.1016,156.6953" style="stroke:#181818;stroke-width:1;"/><line style="stroke:#181818;stroke-width:1;" x1="339.811" x2="463.1016" y1="156.6953" y2="156.6953"/><text fill="#000000" font-family="sans-serif" font-size="13" lengthAdjust="spacing" textLength="110.2905" x="346.811" y="151.6294">signOut(request)</text></g><path d="M364,169.6953 L364,209.6953 L583,209.6953 L583,179.6953 L573,169.6953 L364,169.6953" fill="#FEFFDD" style="stroke:#181818;stroke-width:0.5;"/><path d="M573,169.6953 L573,179.6953 L583,179.6953 L573,169.6953" fill="#FEFFDD" style="stroke:#181818;stroke-width:0.5;"/><text fill="#000000" font-family="sans-serif" font-size="13" lengthAdjust="spacing" textLength="185.98" x="370" y="186.7622">X&#243;a customerId kh&#7887;i session</text><text fill="#000000" font-family="sans-serif" font-size="13" lengthAdjust="spacing" textLength="198.415" x="370" y="201.895">X&#243;a to&#224;n b&#7897; session attributes</text><g class="message" data-entity-1="part3" data-entity-2="part2" id="msg3"><polygon fill="#181818" points="350.811,232.0938,340.811,236.0938,350.811,240.0938,346.811,236.0938" style="stroke:#181818;stroke-width:1;"/><line style="stroke:#181818;stroke-width:1;stroke-dasharray:2,2;" x1="344.811" x2="473.1016" y1="236.0938" y2="236.0938"/><text fill="#000000" font-family="sans-serif" font-size="13" lengthAdjust="spacing" textLength="27.5107" x="356.811" y="231.0278">void</text></g><g class="message" data-entity-1="part2" data-entity-2="part1" id="msg4"><polygon fill="#181818" points="150.4326,261.2266,140.4326,265.2266,150.4326,269.2266,146.4326,265.2266" style="stroke:#181818;stroke-width:1;"/><line style="stroke:#181818;stroke-width:1;" x1="144.4326" x2="333.811" y1="265.2266" y2="265.2266"/><text fill="#000000" font-family="sans-serif" font-size="13" lengthAdjust="spacing" textLength="166.3784" x="156.4326" y="260.1606">Redirect &#8594; /auth/login.jsp</text></g><path d="M5,278.2266 L5,333.2266 L275,333.2266 L275,288.2266 L265,278.2266 L5,278.2266" fill="#FEFFDD" style="stroke:#181818;stroke-width:0.5;"/><path d="M265,278.2266 L265,288.2266 L275,288.2266 L265,278.2266" fill="#FEFFDD" style="stroke:#181818;stroke-width:0.5;"/><text fill="#000000" font-family="sans-serif" font-size="13" lengthAdjust="spacing" textLength="248.5742" x="11" y="295.2935">Sau khi &#273;&#259;ng xu&#7845;t, AuthGuardBean s&#7869;</text><text fill="#000000" font-family="sans-serif" font-size="13" lengthAdjust="spacing" textLength="217.7627" x="11" y="310.4263">ch&#7863;n m&#7885;i truy c&#7853;p &#273;&#7871;n /account/*</text><text fill="#000000" font-family="sans-serif" font-size="13" lengthAdjust="spacing" textLength="249.063" x="11" y="325.5591">v&#224; chuy&#7875;n h&#432;&#7899;ng v&#7873; trang &#273;&#259;ng nh&#7853;p.</text><?plantuml-src PLAnQXmn4Etr5SDTumJRrryHI8mTWWq9SOeKRdHQiPBtRhIMHakk38Pq8JXTI6CNAGC65uPTJ8exyX_obrZQsxspCMeqcfdtthoHApIMtF8PJBWeSciyPdjcQYmC3_RJOOmBYk7WK2skX0ArkCHy0Dp1ddTaPjAos4zQw98ZmU38vCRJ1vxBDv9ZMvW26BfYFfbw-RJwjITrB9tJPbNQtM4urRcYKcF1MCy3EwzQg35yiduE8jH_InZnY32QjgIxfwuymIsXGdqrX_Yc1ImlbkUOmnSVwZ_q8isYAqwo1MAiLHPXEzenE9tZUqzRLfvvwHutT2MCeOcHgQAUTTVdnGq7qSbybq6XGlD3WrlbJx3DaudEmIGql_e4S2Ah9vwaO_tWE-iXAwCpbidd0dhHlIzZ-2WpRQKWkF_sS-E8ncJ8OuZLq9i1rXiyvZwAra_TseQqdRUUsooj4boexrWoznPX5fhl6cYpX-L5gFzX91SYVY4QlMJLuXA4ylFGd2Ee_zUX-HsXgz1yZNqyNZioL0bWbqdC84bZ3m00?></g></svg>