<?plantuml 1.2026.2?><svg xmlns="http://www.w3.org/2000/svg" xmlns:xlink="http://www.w3.org/1999/xlink" contentStyleType="text/css" data-diagram-type="SEQUENCE" height="812px" preserveAspectRatio="none" style="width:993px;height:812px;background:#FEFEFE;" version="1.1" viewBox="0 0 993 812" width="993px" zoomAndPan="magnify"><defs/><g><rect fill="#FEFEFE" height="812" style="stroke:none;stroke-width:1;" width="993" x="0" y="0"/><g><title>CartPageBean</title><rect fill="#FFFFFF" height="594.5938" style="stroke:#181818;stroke-width:1;" width="10" x="335.0771" y="127.5625"/></g><g><title>CartApplicationService</title><rect fill="#FFFFFF" height="306.4609" style="stroke:#181818;stroke-width:1;" width="10" x="581.5669" y="156.6953"/></g><g><title>CartRepository</title><rect fill="#FFFFFF" height="29.1328" style="stroke:#181818;stroke-width:1;" width="10" x="923.3521" y="185.8281"/></g><g><title>CartRepository</title><rect fill="#FFFFFF" height="29.1328" style="stroke:#181818;stroke-width:1;" width="10" x="923.3521" y="404.8906"/></g><rect fill="none" height="59.2656" style="stroke:#000000;stroke-width:1.5;" width="283.418" x="489.7847" y="229.9609"/><rect fill="none" height="237" style="stroke:#000000;stroke-width:1.5;" width="673.3491" x="10" y="478.1563"/><g class="participant-lifeline" data-entity-uid="part1" data-qualified-name="Customer" id="part1-lifeline"><g><title>Kh.ch h.ng</title><rect fill="#000000" fill-opacity="0.00000" height="650.8594" width="8" x="60.4326" y="81.2969"/><line style="stroke:#181818;stroke-width:0.5;stroke-dasharray:5,5;" x1="64" x2="64" y1="81.2969" y2="732.1563"/></g></g><g class="participant-lifeline" data-entity-uid="part2" data-qualified-name="Page" id="part2-lifeline"><g><title>CartPageBean</title><rect fill="#000000" fill-opacity="0.00000" height="650.8594" width="8" x="336.0771" y="81.2969"/><line style="stroke:#181818;stroke-width:0.5;stroke-dasharray:5,5;" x1="339.1816" x2="339.1816" y1="81.2969" y2="732.1563"/></g></g><g class="participant-lifeline" data-entity-uid="part3" data-qualified-name="CartService" id="part3-lifeline"><g><title>CartApplicationService</title><rect fill="#000000" fill-opacity="0.00000" height="650.8594" width="8" x="582.5669" y="81.2969"/><line style="stroke:#181818;stroke-width:0.5;stroke-dasharray:5,5;" x1="585.7847" x2="585.7847" y1="81.2969" y2="732.1563"/></g></g><g class="participant-lifeline" data-entity-uid="part4" data-qualified-name="CartRepo" id="part4-lifeline"><g><title>CartRepository</title><rect fill="#000000" fill-opacity="0.00000" height="650.8594" width="8" x="924.3521" y="81.2969"/><line style="stroke:#181818;stroke-width:0.5;stroke-dasharray:5,5;" x1="928.0161" x2="928.0161" y1="81.2969" y2="732.1563"/></g></g><g class="participant participant-head" data-entity-uid="part1" data-qualified-name="Customer" id="part1-head"><text fill="#000000" font-family="sans-serif" font-size="14" lengthAdjust="spacing" textLength="82.8652" x="20" y="77.9951">Kh&#225;ch h&#224;ng</text><ellipse cx="64.4326" cy="13.5" fill="#E2E2F0" rx="8" ry="8" style="stroke:#181818;stroke-width:0.5;"/><path d="M64.4326,21.5 L64.4326,48.5 M51.4326,29.5 L77.4326,29.5 M64.4326,48.5 L51.4326,63.5 M64.4326,48.5 L77.4326,63.5" fill="none" style="stroke:#181818;stroke-width:0.5;"/></g><g class="participant participant-tail" data-entity-uid="part1" data-qualified-name="Customer" id="part1-tail"><text fill="#000000" font-family="sans-serif" font-size="14" lengthAdjust="spacing" textLength="82.8652" x="20" y="744.1514">Kh&#225;ch h&#224;ng</text><ellipse cx="64.4326" cy="755.9531" fill="#E2E2F0" rx="8" ry="8" style="stroke:#181818;stroke-width:0.5;"/><path d="M64.4326,763.9531 L64.4326,790.9531 M51.4326,771.9531 L77.4326,771.9531 M64.4326,790.9531 L51.4326,805.9531 M64.4326,790.9531 L77.4326,805.9531" fill="none" style="stroke:#181818;stroke-width:0.5;"/></g><g class="participant participant-head" data-entity-uid="part2" data-qualified-name="Page" id="part2-head"><rect fill="#87CEEB" height="30.2969" rx="2.5" ry="2.5" style="stroke:#181818;stroke-width:0.5;" width="113.791" x="283.1816" y="50"/><text fill="#000000" font-family="sans-serif" font-size="14" lengthAdjust="spacing" textLength="99.791" x="290.1816" y="69.9951">CartPageBean</text></g><g class="participant participant-tail" data-entity-uid="part2" data-qualified-name="Page" id="part2-tail"><rect fill="#87CEEB" height="30.2969" rx="2.5" ry="2.5" style="stroke:#181818;stroke-width:0.5;" width="113.791" x="283.1816" y="731.1563"/><text fill="#000000" font-family="sans-serif" font-size="14" lengthAdjust="spacing" textLength="99.791" x="290.1816" y="751.1514">CartPageBean</text></g><g class="participant participant-head" data-entity-uid="part3" data-qualified-name="CartService" id="part3-head"><rect fill="#90EE90" height="30.2969" rx="2.5" ry="2.5" style="stroke:#181818;stroke-width:0.5;" width="173.5645" x="499.7847" y="50"/><text fill="#000000" font-family="sans-serif" font-size="14" lengthAdjust="spacing" textLength="159.5645" x="506.7847" y="69.9951">CartApplicationService</text></g><g class="participant participant-tail" data-entity-uid="part3" data-qualified-name="CartService" id="part3-tail"><rect fill="#90EE90" height="30.2969" rx="2.5" ry="2.5" style="stroke:#181818;stroke-width:0.5;" width="173.5645" x="499.7847" y="731.1563"/><text fill="#000000" font-family="sans-serif" font-size="14" lengthAdjust="spacing" textLength="159.5645" x="506.7847" y="751.1514">CartApplicationService</text></g><g class="participant participant-head" data-entity-uid="part4" data-qualified-name="CartRepo" id="part4-head"><rect fill="#FFFFE0" height="30.2969" rx="2.5" ry="2.5" style="stroke:#181818;stroke-width:0.5;" width="118.6719" x="869.0161" y="50"/><text fill="#000000" font-family="sans-serif" font-size="14" lengthAdjust="spacing" textLength="104.6719" x="876.0161" y="69.9951">CartRepository</text></g><g class="participant participant-tail" data-entity-uid="part4" data-qualified-name="CartRepo" id="part4-tail"><rect fill="#FFFFE0" height="30.2969" rx="2.5" ry="2.5" style="stroke:#181818;stroke-width:0.5;" width="118.6719" x="869.0161" y="731.1563"/><text fill="#000000" font-family="sans-serif" font-size="14" lengthAdjust="spacing" textLength="104.6719" x="876.0161" y="751.1514">CartRepository</text></g><g><title>CartPageBean</title><rect fill="#FFFFFF" height="594.5938" style="stroke:#181818;stroke-width:1;" width="10" x="335.0771" y="127.5625"/></g><g><title>CartApplicationService</title><rect fill="#FFFFFF" height="306.4609" style="stroke:#181818;stroke-width:1;" width="10" x="581.5669" y="156.6953"/></g><g><title>CartRepository</title><rect fill="#FFFFFF" height="29.1328" style="stroke:#181818;stroke-width:1;" width="10" x="923.3521" y="185.8281"/></g><g><title>CartRepository</title><rect fill="#FFFFFF" height="29.1328" style="stroke:#181818;stroke-width:1;" width="10" x="923.3521" y="404.8906"/></g><g class="message" data-entity-1="part1" data-entity-2="part2" id="msg1"><polygon fill="#181818" points="323.0771,123.5625,333.0771,127.5625,323.0771,131.5625,327.0771,127.5625" style="stroke:#181818;stroke-width:1;"/><line style="stroke:#181818;stroke-width:1;" x1="64.4326" x2="329.0771" y1="127.5625" y2="127.5625"/><text fill="#000000" font-family="sans-serif" font-size="13" lengthAdjust="spacing" textLength="147.272" x="71.4326" y="107.3638">POST /account/cart.jsp</text><text fill="#000000" font-family="sans-serif" font-size="13" lengthAdjust="spacing" textLength="162.7412" x="71.4326" y="122.4966">(action=remove, bookId)</text></g><g class="message" data-entity-1="part2" data-entity-2="part3" id="msg2"><polygon fill="#181818" points="569.5669,152.6953,579.5669,156.6953,569.5669,160.6953,573.5669,156.6953" style="stroke:#181818;stroke-width:1;"/><line style="stroke:#181818;stroke-width:1;" x1="345.0771" x2="575.5669" y1="156.6953" y2="156.6953"/><text fill="#000000" font-family="sans-serif" font-size="13" lengthAdjust="spacing" textLength="217.4897" x="352.0771" y="151.6294">removeBook(customerId, bookId)</text></g><g class="message" data-entity-1="part3" data-entity-2="part4" id="msg3"><polygon fill="#181818" points="911.3521,181.8281,921.3521,185.8281,911.3521,189.8281,915.3521,185.8281" style="stroke:#181818;stroke-width:1;"/><line style="stroke:#181818;stroke-width:1;" x1="591.5669" x2="917.3521" y1="185.8281" y2="185.8281"/><text fill="#000000" font-family="sans-serif" font-size="13" lengthAdjust="spacing" textLength="199.9702" x="598.5669" y="180.7622">findByCustomerId(customerId)</text></g><g class="message" data-entity-1="part4" data-entity-2="part3" id="msg4"><polygon fill="#181818" points="602.5669,210.9609,592.5669,214.9609,602.5669,218.9609,598.5669,214.9609" style="stroke:#181818;stroke-width:1;"/><line style="stroke:#181818;stroke-width:1;stroke-dasharray:2,2;" x1="596.5669" x2="927.3521" y1="214.9609" y2="214.9609"/><text fill="#000000" font-family="sans-serif" font-size="13" lengthAdjust="spacing" textLength="104.2349" x="608.5669" y="209.895">Optional&lt;Cart&gt;</text></g><path d="M489.7847,229.9609 L554.2275,229.9609 L554.2275,237.0938 L544.2275,247.0938 L489.7847,247.0938 L489.7847,229.9609" fill="#EEEEEE" style="stroke:#000000;stroke-width:1.5;"/><rect fill="none" height="59.2656" style="stroke:#000000;stroke-width:1.5;" width="283.418" x="489.7847" y="229.9609"/><text fill="#000000" font-family="sans-serif" font-size="13" font-weight="bold" lengthAdjust="spacing" textLength="19.4429" x="504.7847" y="243.0278">alt</text><text fill="#000000" font-family="sans-serif" font-size="11" font-weight="bold" lengthAdjust="spacing" textLength="125.3989" x="569.2275" y="242.1714">[Kh&#244;ng c&#243; gi&#7887; h&#224;ng]</text><g class="message" data-entity-1="part3" data-entity-2="part3" id="msg5"><line style="stroke:#181818;stroke-width:1;" x1="591.5669" x2="633.5669" y1="268.2266" y2="268.2266"/><line style="stroke:#181818;stroke-width:1;" x1="633.5669" x2="633.5669" y1="268.2266" y2="281.2266"/><line style="stroke:#181818;stroke-width:1;" x1="592.5669" x2="633.5669" y1="281.2266" y2="281.2266"/><polygon fill="#181818" points="602.5669,277.2266,592.5669,281.2266,602.5669,285.2266,598.5669,281.2266" style="stroke:#181818;stroke-width:1;"/><text fill="#000000" font-family="sans-serif" font-size="13" lengthAdjust="spacing" textLength="152.6357" x="598.5669" y="263.1606">emptyCart(customerId)</text></g><g class="message" data-entity-1="part3" data-entity-2="part3" id="msg6"><line style="stroke:#181818;stroke-width:1;" x1="591.5669" x2="633.5669" y1="362.7578" y2="362.7578"/><line style="stroke:#181818;stroke-width:1;" x1="633.5669" x2="633.5669" y1="362.7578" y2="375.7578"/><line style="stroke:#181818;stroke-width:1;" x1="592.5669" x2="633.5669" y1="375.7578" y2="375.7578"/><polygon fill="#181818" points="602.5669,371.7578,592.5669,375.7578,602.5669,379.7578,598.5669,375.7578" style="stroke:#181818;stroke-width:1;"/><text fill="#000000" font-family="sans-serif" font-size="13" lengthAdjust="spacing" textLength="241.8076" x="598.5669" y="312.2935">L&#7885;c b&#7887; CartItem c&#243; bookId t&#432;&#417;ng &#7913;ng</text><text fill="#000000" font-family="sans-serif" font-size="13" lengthAdjust="spacing" textLength="210.9136" x="598.5669" y="327.4263">(updatedItems = items.stream()</text><text fill="#000000" font-family="sans-serif" font-size="13" lengthAdjust="spacing" textLength="291.2559" x="615.0962" y="342.5591">.filter(item -&gt; !item.bookId().equals(bookId))</text><text fill="#000000" font-family="sans-serif" font-size="13" lengthAdjust="spacing" textLength="55.123" x="615.0962" y="357.6919">.toList())</text></g><g class="message" data-entity-1="part3" data-entity-2="part4" id="msg7"><polygon fill="#181818" points="911.3521,400.8906,921.3521,404.8906,911.3521,408.8906,915.3521,404.8906" style="stroke:#181818;stroke-width:1;"/><line style="stroke:#181818;stroke-width:1;" x1="591.5669" x2="917.3521" y1="404.8906" y2="404.8906"/><text fill="#000000" font-family="sans-serif" font-size="13" lengthAdjust="spacing" textLength="122.1162" x="598.5669" y="399.8247">save(updatedCart)</text></g><g class="message" data-entity-1="part4" data-entity-2="part3" id="msg8"><polygon fill="#181818" points="602.5669,430.0234,592.5669,434.0234,602.5669,438.0234,598.5669,434.0234" style="stroke:#181818;stroke-width:1;"/><line style="stroke:#181818;stroke-width:1;stroke-dasharray:2,2;" x1="596.5669" x2="927.3521" y1="434.0234" y2="434.0234"/><text fill="#000000" font-family="sans-serif" font-size="13" lengthAdjust="spacing" textLength="82.2021" x="608.5669" y="428.9575">Cart (&#273;&#227; l&#432;u)</text></g><g class="message" data-entity-1="part3" data-entity-2="part2" id="msg9"><polygon fill="#181818" points="356.0771,459.1563,346.0771,463.1563,356.0771,467.1563,352.0771,463.1563" style="stroke:#181818;stroke-width:1;"/><line style="stroke:#181818;stroke-width:1;stroke-dasharray:2,2;" x1="350.0771" x2="585.5669" y1="463.1563" y2="463.1563"/><text fill="#000000" font-family="sans-serif" font-size="13" lengthAdjust="spacing" textLength="174.3066" x="362.0771" y="458.0903">CartActionResult.success()</text></g><path d="M10,478.1563 L74.4429,478.1563 L74.4429,485.2891 L64.4429,495.2891 L10,495.2891 L10,478.1563" fill="#EEEEEE" style="stroke:#000000;stroke-width:1.5;"/><rect fill="none" height="237" style="stroke:#000000;stroke-width:1.5;" width="673.3491" x="10" y="478.1563"/><text fill="#000000" font-family="sans-serif" font-size="13" font-weight="bold" lengthAdjust="spacing" textLength="19.4429" x="25" y="491.2231">alt</text><text fill="#000000" font-family="sans-serif" font-size="11" font-weight="bold" lengthAdjust="spacing" textLength="107.1318" x="89.4429" y="490.3667">[X&#243;a th&#224;nh c&#244;ng]</text><g class="message" data-entity-1="part2" data-entity-2="part3" id="msg10"><polygon fill="#181818" points="574.5669,512.4219,584.5669,516.4219,574.5669,520.4219,578.5669,516.4219" style="stroke:#181818;stroke-width:1;"/><line style="stroke:#181818;stroke-width:1;" x1="345.0771" x2="580.5669" y1="516.4219" y2="516.4219"/><text fill="#000000" font-family="sans-serif" font-size="13" lengthAdjust="spacing" textLength="132.2788" x="352.0771" y="511.356">getCart(customerId)</text></g><g class="message" data-entity-1="part3" data-entity-2="part2" id="msg11"><polygon fill="#181818" points="356.0771,541.5547,346.0771,545.5547,356.0771,549.5547,352.0771,545.5547" style="stroke:#181818;stroke-width:1;"/><line style="stroke:#181818;stroke-width:1;stroke-dasharray:2,2;" x1="350.0771" x2="585.5669" y1="545.5547" y2="545.5547"/><text fill="#000000" font-family="sans-serif" font-size="13" lengthAdjust="spacing" textLength="58.6206" x="362.0771" y="540.4888">CartView</text></g><g class="message" data-entity-1="part2" data-entity-2="part1" id="msg12"><polygon fill="#181818" points="75.4326,585.8203,65.4326,589.8203,75.4326,593.8203,71.4326,589.8203" style="stroke:#181818;stroke-width:1;"/><line style="stroke:#181818;stroke-width:1;" x1="69.4326" x2="334.0771" y1="589.8203" y2="589.8203"/><text fill="#000000" font-family="sans-serif" font-size="13" lengthAdjust="spacing" textLength="246.6445" x="81.4326" y="569.6216">Hi&#7875;n th&#7883; "Gio hang da duoc cap nhat."</text><text fill="#000000" font-family="sans-serif" font-size="13" lengthAdjust="spacing" textLength="179.7212" x="81.4326" y="584.7544">+ Refresh trang v&#7899;i gi&#7887; m&#7899;i</text></g><line style="stroke:#000000;stroke-width:1;stroke-dasharray:2,2;" x1="10" x2="683.3491" y1="598.8203" y2="598.8203"/><text fill="#000000" font-family="sans-serif" font-size="11" font-weight="bold" lengthAdjust="spacing" textLength="86.0127" x="15" y="609.0308">[X&#243;a th&#7845;t b&#7841;i]</text><g class="message" data-entity-1="part2" data-entity-2="part3" id="msg13"><polygon fill="#181818" points="574.5669,629.7578,584.5669,633.7578,574.5669,637.7578,578.5669,633.7578" style="stroke:#181818;stroke-width:1;"/><line style="stroke:#181818;stroke-width:1;" x1="345.0771" x2="580.5669" y1="633.7578" y2="633.7578"/><text fill="#000000" font-family="sans-serif" font-size="13" lengthAdjust="spacing" textLength="132.2788" x="352.0771" y="628.6919">getCart(customerId)</text></g><g class="message" data-entity-1="part3" data-entity-2="part2" id="msg14"><polygon fill="#181818" points="356.0771,658.8906,346.0771,662.8906,356.0771,666.8906,352.0771,662.8906" style="stroke:#181818;stroke-width:1;"/><line style="stroke:#181818;stroke-width:1;stroke-dasharray:2,2;" x1="350.0771" x2="585.5669" y1="662.8906" y2="662.8906"/><text fill="#000000" font-family="sans-serif" font-size="13" lengthAdjust="spacing" textLength="58.6206" x="362.0771" y="657.8247">CartView</text></g><g class="message" data-entity-1="part2" data-entity-2="part1" id="msg15"><polygon fill="#181818" points="75.4326,703.1563,65.4326,707.1563,75.4326,711.1563,71.4326,707.1563" style="stroke:#181818;stroke-width:1;"/><line style="stroke:#181818;stroke-width:1;" x1="69.4326" x2="334.0771" y1="707.1563" y2="707.1563"/><text fill="#000000" font-family="sans-serif" font-size="13" lengthAdjust="spacing" textLength="140.2324" x="81.4326" y="686.9575">Hi&#7875;n th&#7883; th&#244;ng b&#225;o l&#7895;i</text><text fill="#000000" font-family="sans-serif" font-size="13" lengthAdjust="spacing" textLength="104.019" x="81.4326" y="702.0903">+ Refresh trang</text></g><?plantuml-src nLGzZzD04EtzAuQaiGNdwoFk91Bn4N7IdN88KQJPh2VsalMkyQvpIas94AAwWeO8KT2TT5UTIwFy3_yJTct7IiwXeC8fx1dFU_DctpXgmKH2KXB3ZD15cCfC12F9PGhz5y_jpt48rIRilOwADOqWAhwBi0T4mIXJMiQOEWQl6MK94Hfw8nDSa127I4HLPWFegyLgnZFirZvB4iueqKoAIqoNZ69DRburCVGv2oCTfeYYYvzW8XKp2bSjpgOQq0evbrUEizKAHwULe05Sd5--WMD2gPbO7rC3yz-hP2fSCwxHSf9YB9Vu16PIBiQ1Pq-1BOd62kuurLI6R4Vd06hCq21SsZGS1mSeTa16siwa3Q4TO01p9eBXQjGIxN0-uBBrJZlvqKDPvucTYF2dDdlg1DW5EuHhC0xVYH1eSGiXA_CljTSEcEk0o9OUuqIlR6PF88hWu6mjxApCFrEOsJusFzOOLwthqmAzkTciZPeo_oL2OqkM14PnOCiKd02pTr_f54diUbDXHVfpnZMchdrdspso3txDvte-ViW8LsxZnXQZvHbJslMylnkXo1At_MtstqxV1k3-_bhy0BwvoRp3vx_Nl5tIwWEfzd62AkFQLncbg9JROMdNoHhvhhWbeArxaJdIkyR3WoiRekvOrp5yJyzRXbVxV0rq0A_CrdmKfdEPVuBUIoOX8iR2W42GIGgK920YeltUL3o62SvJL17erDOio_mRQzOkjiyESeNRIShxdzgiolsQ_Oz9TFrTp8gr15xcrwmZlzxs7KkgFua_?></g></svg>