<?plantuml 1.2026.2?><svg xmlns="http://www.w3.org/2000/svg" xmlns:xlink="http://www.w3.org/1999/xlink" contentStyleType="text/css" data-diagram-type="DESCRIPTION" height="565px" preserveAspectRatio="none" style="width:1963px;height:565px;background:#FFFFFF;" version="1.1" viewBox="0 0 1963 565" width="1963px" zoomAndPan="magnify"><defs/><g><!--cluster Build Stage\nFROM eclipse-temurin:21-jdk--><g class="cluster" data-qualified-name="Build Stage.nFROM eclipse-temurin.21-jdk" data-source-line="5" id="ent0002"><rect fill="#E3F2FD" height="233.18" rx="2.5" ry="2.5" style="stroke:#181818;stroke-width:1;" width="245" x="1566" y="7"/><text fill="#000000" font-family="sans-serif" font-size="14" font-weight="bold" lengthAdjust="spacing" textLength="90.8701" x="1643.0649" y="21.9951">Build Stage</text><text fill="#000000" font-family="sans-serif" font-size="14" font-weight="bold" lengthAdjust="spacing" textLength="229.5371" x="1573.7314" y="38.292">FROM eclipse-temurin:21-jdk</text></g><!--cluster Flyway Stage\nFROM flyway/flyway:11.10.5--><g class="cluster" data-qualified-name="Flyway Stage.nFROM flyway.flyway.11.10.5" data-source-line="11" id="ent0006"><rect fill="#FFF3E0" height="119.6" rx="2.5" ry="2.5" style="stroke:#181818;stroke-width:1;" width="240" x="7" y="305.18"/><text fill="#000000" font-family="sans-serif" font-size="14" font-weight="bold" lengthAdjust="spacing" textLength="105.6084" x="74.1958" y="320.1751">Flyway Stage</text><text fill="#000000" font-family="sans-serif" font-size="14" font-weight="bold" lengthAdjust="spacing" textLength="224.1504" x="14.9248" y="336.472">FROM flyway/flyway:11.10.5</text></g><!--cluster Runtime Stage\nFROM quay.io/wildfly/\nwildfly:39.0.1.Final-2-jdk21--><g class="cluster" data-qualified-name="Runtime Stage.nFROM quay.io.wildfly..nwildfly.39.0.1.Final-2-jdk21" data-source-line="15" id="ent0008"><rect fill="#E8F5E9" height="135.6" rx="2.5" ry="2.5" style="stroke:#181818;stroke-width:1;" width="1481" x="271" y="289.18"/><text fill="#000000" font-family="sans-serif" font-size="14" font-weight="bold" lengthAdjust="spacing" textLength="116.9014" x="953.0493" y="304.1751">Runtime Stage</text><text fill="#000000" font-family="sans-serif" font-size="14" font-weight="bold" lengthAdjust="spacing" textLength="172.1426" x="925.4287" y="320.472">FROM quay.io/wildfly/</text><text fill="#000000" font-family="sans-serif" font-size="14" font-weight="bold" lengthAdjust="spacing" textLength="216.6377" x="903.1812" y="336.7689">wildfly:39.0.1.Final-2-jdk21</text></g><!--entity gradle_build--><g class="entity" data-qualified-name="Build Stage.nFROM eclipse-temurin.21-jdk.gradle_build" data-source-line="6" id="ent0003"><rect fill="#F1F1F1" height="52.5938" rx="2.5" ry="2.5" style="stroke:#181818;stroke-width:0.5;" width="157.5664" x="1609.22" y="58"/><text fill="#000000" font-family="sans-serif" font-size="14" lengthAdjust="spacing" textLength="85.4492" x="1619.22" y="80.9951">Gradle build</text><text fill="#000000" font-family="sans-serif" font-size="14" lengthAdjust="spacing" textLength="137.5664" x="1619.22" y="97.292">./gradlew clean war</text></g><!--entity war_output--><g class="entity" data-qualified-name="Build Stage.nFROM eclipse-temurin.21-jdk.war_output" data-source-line="7" id="ent0004"><rect fill="#F1F1F1" height="52.5938" rx="2.5" ry="2.5" style="stroke:#181818;stroke-width:0.5;" width="158.373" x="1608.81" y="171.59"/><text fill="#000000" font-family="sans-serif" font-size="14" lengthAdjust="spacing" textLength="53.3477" x="1618.81" y="194.5851">Output:</text><text fill="#000000" font-family="sans-serif" font-size="14" lengthAdjust="spacing" textLength="138.373" x="1618.81" y="210.882">build/libs/ROOT.war</text></g><!--entity flyway_bin--><g class="entity" data-qualified-name="Flyway Stage.nFROM flyway.flyway.11.10.5.flyway_bin" data-source-line="12" id="ent0007"><rect fill="#F1F1F1" height="52.5938" rx="2.5" ry="2.5" style="stroke:#181818;stroke-width:0.5;" width="143.416" x="87.29" y="356.18"/><text fill="#000000" font-family="sans-serif" font-size="14" lengthAdjust="spacing" textLength="123.416" x="97.29" y="379.1751">Flyway CLI binary</text><text fill="#000000" font-family="sans-serif" font-size="14" lengthAdjust="spacing" textLength="122.6914" x="97.29" y="395.472">(used at runtime)</text></g><!--entity jdbc_driver--><g class="entity" data-qualified-name="Runtime Stage.nFROM quay.io.wildfly..nwildfly.39.0.1.Final-2-jdk21.jdbc_driver" data-source-line="16" id="ent0009"><rect fill="#F1F1F1" height="52.5938" rx="2.5" ry="2.5" style="stroke:#181818;stroke-width:0.5;" width="187.0225" x="287.49" y="356.18"/><text fill="#000000" font-family="sans-serif" font-size="14" lengthAdjust="spacing" textLength="167.0225" x="297.49" y="379.1751">PostgreSQL JDBC Driver</text><text fill="#000000" font-family="sans-serif" font-size="14" lengthAdjust="spacing" textLength="145.8174" x="297.49" y="395.472">postgresql-42.7.7.jar</text></g><!--entity datasource_cli--><g class="entity" data-qualified-name="Runtime Stage.nFROM quay.io.wildfly..nwildfly.39.0.1.Final-2-jdk21.datasource_cli" data-source-line="17" id="ent0010"><rect fill="#F1F1F1" height="52.5938" rx="2.5" ry="2.5" style="stroke:#181818;stroke-width:0.5;" width="189.3945" x="509.3" y="356.18"/><text fill="#000000" font-family="sans-serif" font-size="14" lengthAdjust="spacing" textLength="121.9463" x="519.3" y="379.1751">WildFly CLI Script</text><text fill="#000000" font-family="sans-serif" font-size="14" lengthAdjust="spacing" textLength="169.3945" x="519.3" y="395.472">configure-datasource.cli</text></g><!--entity migrations--><g class="entity" data-qualified-name="Runtime Stage.nFROM quay.io.wildfly..nwildfly.39.0.1.Final-2-jdk21.migrations" data-source-line="18" id="ent0011"><rect fill="#F1F1F1" height="52.5938" rx="2.5" ry="2.5" style="stroke:#181818;stroke-width:0.5;" width="201.7949" x="734.1" y="356.18"/><text fill="#000000" font-family="sans-serif" font-size="14" lengthAdjust="spacing" textLength="118.3574" x="744.1" y="379.1751">Migration Scripts</text><text fill="#000000" font-family="sans-serif" font-size="14" lengthAdjust="spacing" textLength="181.7949" x="744.1" y="395.472">/opt/bookstore/migrations</text></g><!--entity dev_migrations--><g class="entity" data-qualified-name="Runtime Stage.nFROM quay.io.wildfly..nwildfly.39.0.1.Final-2-jdk21.dev_migrations" data-source-line="19" id="ent0012"><rect fill="#F1F1F1" height="52.5938" rx="2.5" ry="2.5" style="stroke:#181818;stroke-width:0.5;" width="232.6318" x="970.68" y="356.18"/><text fill="#000000" font-family="sans-serif" font-size="14" lengthAdjust="spacing" textLength="150.4863" x="980.68" y="379.1751">Dev Migration Scripts</text><text fill="#000000" font-family="sans-serif" font-size="14" lengthAdjust="spacing" textLength="212.6318" x="980.68" y="395.472">/opt/bookstore/dev-migrations</text></g><!--entity demo_config--><g class="entity" data-qualified-name="Runtime Stage.nFROM quay.io.wildfly..nwildfly.39.0.1.Final-2-jdk21.demo_config" data-source-line="20" id="ent0013"><rect fill="#F1F1F1" height="52.5938" rx="2.5" ry="2.5" style="stroke:#181818;stroke-width:0.5;" width="153.5605" x="1238.22" y="356.18"/><text fill="#000000" font-family="sans-serif" font-size="14" lengthAdjust="spacing" textLength="133.5605" x="1248.22" y="379.1751">Demo Mode Config</text><text fill="#000000" font-family="sans-serif" font-size="14" lengthAdjust="spacing" textLength="114.6797" x="1248.22" y="395.472">demo-mode.env</text></g><!--entity entrypoint--><g class="entity" data-qualified-name="Runtime Stage.nFROM quay.io.wildfly..nwildfly.39.0.1.Final-2-jdk21.entrypoint" data-source-line="21" id="ent0014"><rect fill="#F1F1F1" height="52.5938" rx="2.5" ry="2.5" style="stroke:#181818;stroke-width:0.5;" width="179.1816" x="1426.41" y="356.18"/><text fill="#000000" font-family="sans-serif" font-size="14" lengthAdjust="spacing" textLength="93.3379" x="1436.41" y="379.1751">entrypoint.sh</text><text fill="#000000" font-family="sans-serif" font-size="14" lengthAdjust="spacing" textLength="159.1816" x="1436.41" y="395.472">(startup orchestration)</text></g><!--entity war_deployed--><g class="entity" data-qualified-name="Runtime Stage.nFROM quay.io.wildfly..nwildfly.39.0.1.Final-2-jdk21.war_deployed" data-source-line="22" id="ent0015"><rect fill="#F1F1F1" height="52.5938" rx="2.5" ry="2.5" style="stroke:#181818;stroke-width:0.5;" width="95.5508" x="1640.22" y="356.18"/><text fill="#000000" font-family="sans-serif" font-size="14" lengthAdjust="spacing" textLength="70.5537" x="1650.22" y="379.1751">ROOT.war</text><text fill="#000000" font-family="sans-serif" font-size="14" lengthAdjust="spacing" textLength="75.5508" x="1650.22" y="395.472">(deployed)</text></g><!--entity runtime_stage--><g class="entity" data-qualified-name="runtime_stage" data-source-line="26" id="ent0017"><ellipse cx="835" cy="523.04" fill="#F1F1F1" rx="8" ry="8" style="stroke:#181818;stroke-width:0.5;"/><text fill="#000000" font-family="sans-serif" font-size="14" lengthAdjust="spacing" textLength="100.9941" x="784.5029" y="553.0351">runtime_stage</text></g><g class="entity" data-qualified-name="GMN25" data-source-line="35" id="ent0026"><path d="M1105.44,487.78 L1105.44,558.3113 A0,0 0 0 0 1105.44,558.3113 L1554.5513,558.3113 A0,0 0 0 0 1554.5513,558.3113 L1554.5513,497.78 L1544.5513,487.78 L1380.64,487.78 L1481.45,409.22 L1372.64,487.78 L1105.44,487.78 A0,0 0 0 0 1105.44,487.78" fill="#FEFFDD" style="stroke:#181818;stroke-width:0.5;"/><path d="M1544.5513,487.78 L1544.5513,497.78 L1554.5513,497.78 L1544.5513,487.78" fill="#FEFFDD" style="stroke:#181818;stroke-width:0.5;"/><text fill="#000000" font-family="sans-serif" font-size="13" lengthAdjust="spacing" textLength="252.1416" x="1111.44" y="504.8469">1. Waits for PostgreSQL via pg_isready</text><text fill="#000000" font-family="sans-serif" font-size="13" lengthAdjust="spacing" textLength="153.0928" x="1111.44" y="519.9797">2. Runs Flyway migrate</text><text fill="#000000" font-family="sans-serif" font-size="13" lengthAdjust="spacing" textLength="428.1113" x="1111.44" y="535.1125">3. Configures WildFly datasource via JBOSS_HOME/bin/jboss-cli.sh</text><text fill="#000000" font-family="sans-serif" font-size="13" lengthAdjust="spacing" textLength="182.5396" x="1111.44" y="550.2453">4. Starts WildFly standalone</text></g><g class="entity" data-qualified-name="GMN28" data-source-line="42" id="ent0029"><path d="M1589.96,495.35 L1589.96,550.7484 A0,0 0 0 0 1589.96,550.7484 L1956.0376,550.7484 A0,0 0 0 0 1956.0376,550.7484 L1956.0376,505.35 L1946.0376,495.35 L1760.43,495.35 L1703.79,409.22 L1752.43,495.35 L1589.96,495.35 A0,0 0 0 0 1589.96,495.35" fill="#FEFFDD" style="stroke:#181818;stroke-width:0.5;"/><path d="M1946.0376,495.35 L1946.0376,505.35 L1956.0376,505.35 L1946.0376,495.35" fill="#FEFFDD" style="stroke:#181818;stroke-width:0.5;"/><text fill="#000000" font-family="sans-serif" font-size="13" lengthAdjust="spacing" textLength="83.332" x="1595.96" y="512.4169">Deployed to:</text><text fill="#000000" font-family="sans-serif" font-size="13" lengthAdjust="spacing" textLength="345.0776" x="1595.96" y="527.5497">/opt/jboss/wildfly/standalone/deployments/ROOT.war</text><text fill="#000000" font-family="sans-serif" font-size="13" lengthAdjust="spacing" textLength="202.9219" x="1595.96" y="542.6825">&#8594; Accessible at / (root context)</text></g><!--link gradle_build to war_output--><g class="link" data-entity-1="ent0003" data-entity-2="ent0004" data-link-type="dependency" data-source-line="8" id="lnk5"><path d="M1688,110.9 C1688,129.04 1688,147.29 1688,165.41" fill="none" id="gradle_build-to-war_output" style="stroke:#181818;stroke-width:1;"/><polygon fill="#181818" points="1688,171.41,1692,162.41,1688,166.41,1684,162.41,1688,171.41" style="stroke:#181818;stroke-width:1;"/></g><!--link war_output to war_deployed--><g class="link" data-entity-1="ent0004" data-entity-2="ent0015" data-link-type="dependency" data-source-line="25" id="lnk16"><path d="M1688,224.66 C1688,259.46 1688,315.11 1688,349.84" fill="none" id="war_output-to-war_deployed" style="stroke:#181818;stroke-width:1;"/><polygon fill="#181818" points="1688,355.84,1692,346.84,1688,350.84,1684,346.84,1688,355.84" style="stroke:#181818;stroke-width:1;"/><text fill="#000000" font-family="sans-serif" font-size="13" lengthAdjust="spacing" textLength="122.002" x="1689" y="269.2469">COPY --from=build</text></g><!--link flyway_bin to runtime_stage--><g class="link" data-entity-1="ent0007" data-entity-2="ent0017" data-link-type="dependency" data-source-line="26" id="lnk18"><path d="M214.01,409.25 C231.99,417.25 252.18,425.8 271,432.78 C485.7,512.44 766.1609,520.9176 820.0609,521.8376" fill="none" id="flyway_bin-to-runtime_stage" style="stroke:#181818;stroke-width:1;"/><polygon fill="#181818" points="826.06,521.94,817.1296,517.787,821.0607,521.8547,816.993,525.7858,826.06,521.94" style="stroke:#181818;stroke-width:1;"/><text fill="#000000" font-family="sans-serif" font-size="13" lengthAdjust="spacing" textLength="132.209" x="345.61" y="453.8469">COPY --from=flyway</text></g><!--link jdbc_driver to runtime_stage--><g class="link" data-entity-1="ent0009" data-entity-2="ent0017" data-link-type="dependency" data-source-line="27" id="lnk19"><path d="M426.63,409.25 C456.42,425.16 496.58,444.91 534,457.78 C646.18,496.35 784.1985,515.5886 820.4685,520.2286" fill="none" id="jdbc_driver-to-runtime_stage" style="stroke:#181818;stroke-width:1;"/><polygon fill="#181818" points="826.42,520.99,818.0003,515.8803,821.4604,520.3555,816.9852,523.8156,826.42,520.99" style="stroke:#181818;stroke-width:1;"/><text fill="#000000" font-family="sans-serif" font-size="13" lengthAdjust="spacing" textLength="162.2969" x="535" y="453.8469">ADD from Maven Central</text></g><!--link datasource_cli to runtime_stage--><g class="link" data-entity-1="ent0010" data-entity-2="ent0017" data-link-type="dependency" data-source-line="28" id="lnk20"><path d="M646.91,409.22 C703.01,442.87 792.4047,496.4936 821.2447,513.7936" fill="none" id="datasource_cli-to-runtime_stage" style="stroke:#181818;stroke-width:1;"/><polygon fill="#181818" points="826.39,516.88,820.7297,508.8201,822.1023,514.308,816.6145,515.6805,826.39,516.88" style="stroke:#181818;stroke-width:1;"/><text fill="#000000" font-family="sans-serif" font-size="13" lengthAdjust="spacing" textLength="35.0898" x="727.43" y="453.8469">COPY</text></g><!--link migrations to runtime_stage--><g class="link" data-entity-1="ent0011" data-entity-2="ent0017" data-link-type="dependency" data-source-line="29" id="lnk21"><path d="M835,409.22 C835,441.31 835,488.35 835,508.22" fill="none" id="migrations-to-runtime_stage" style="stroke:#181818;stroke-width:1;"/><polygon fill="#181818" points="835,514.22,839,505.22,835,509.22,831,505.22,835,514.22" style="stroke:#181818;stroke-width:1;"/><text fill="#000000" font-family="sans-serif" font-size="13" lengthAdjust="spacing" textLength="35.0898" x="836" y="453.8469">COPY</text></g><!--link dev_migrations to runtime_stage--><g class="link" data-entity-1="ent0012" data-entity-2="ent0017" data-link-type="dependency" data-source-line="30" id="lnk22"><path d="M1040.19,409.22 C978.7,443.03 880.1578,497.2194 849.2178,514.2294" fill="none" id="dev_migrations-to-runtime_stage" style="stroke:#181818;stroke-width:1;"/><polygon fill="#181818" points="843.96,517.12,853.7738,516.2893,848.3415,514.7112,849.9196,509.2789,843.96,517.12" style="stroke:#181818;stroke-width:1;"/><text fill="#000000" font-family="sans-serif" font-size="13" lengthAdjust="spacing" textLength="35.0898" x="977.09" y="453.8469">COPY</text></g><!--link demo_config to runtime_stage--><g class="link" data-entity-1="ent0013" data-entity-2="ent0017" data-link-type="dependency" data-source-line="31" id="lnk23"><path d="M1274.91,409.25 C1258.79,418.33 1239.63,427.56 1221,432.78 C1166.97,447.92 1150.17,430.56 1095,440.78 C993.63,459.56 881.9227,503.0314 849.3427,516.2014" fill="none" id="demo_config-to-runtime_stage" style="stroke:#181818;stroke-width:1;"/><polygon fill="#181818" points="843.78,518.45,853.6231,518.7855,848.4156,516.5761,850.625,511.3686,843.78,518.45" style="stroke:#181818;stroke-width:1;"/><text fill="#000000" font-family="sans-serif" font-size="13" lengthAdjust="spacing" textLength="35.0898" x="1096" y="453.8469">COPY</text></g><!--link entrypoint to runtime_stage--><g class="link" data-entity-1="ent0014" data-entity-2="ent0017" data-link-type="dependency" data-source-line="32" id="lnk24"><path d="M1469.97,409.23 C1451.57,418.3 1429.82,427.53 1409,432.78 C1353.3,446.81 1337.02,433.83 1280,440.78 C1102.65,462.39 894.9316,508.4438 849.5716,518.7238" fill="none" id="entrypoint-to-runtime_stage" style="stroke:#181818;stroke-width:1;"/><polygon fill="#181818" points="843.72,520.05,853.3815,521.9618,848.5963,518.9449,851.6133,514.1597,843.72,520.05" style="stroke:#181818;stroke-width:1;"/><text fill="#000000" font-family="sans-serif" font-size="13" lengthAdjust="spacing" textLength="127.4482" x="1281" y="453.8469">COPY + chmod 755</text></g><?plantuml-src XLHTRzem57tFhxZgNbfDSHewr1LfareWsweYkZAfcXGfCh6XfecTsWwCJNlT3zXFt2_PpGS4qj71GvBhSuzzxZtNvb78Z6gQWkQnfNAUSFZX0FwqoYMBbPPS6_6TWzzrVZfEWpgwoaN2O6Bfd8Sok1kFWCU9o0ntBKzpBMIluxiBzdW4huPdGISOR8WRYW-QCdnE2wPG4czUVgyWJZYLiABw2AY1AXgLg3R3EBTPRdkXB5UzH4oDTpSUVo6RP7n6gWILgRjSuBhlTzVtvGN9UaNNU_fcPSYh7ZtV9_ufwQAy80ZEXgVFvTKK_PjFC1MIwdKeZtF36L0BEfTMfFoaF6J5626eTOYx2hLtYgUShebGtWebOA8NolgjTtP1JebF0jmhSJj5xJj-KVstGNTuyVnujyhOkUQJppTmFRZgmq2B9TUXpAguUKhSDnroZlz5NSm5cyOHAs5jidiy0-ejnKvYBJ8RobZ9cPZdchkCMcfKhcDEq2CbLnEACDIc6mdib1LArcGcb9xAh3TLwj5OfRcNRX2cf6i-srG3leJ_qp6-T5kK68fUeaqLZ1JZq2zbXf9Xn4qnGhXSrWofYgegjDEvj7gTAI4jCG_e2sEfjda6IiSFtDXgqyeT3RHDid4wvZEU9MhDsSdMzPj8OQd6vLlJRvQX1_tnxLUCpxHAtrLJrXYonDTcZKnXmrP21NLshF7FbCl100eyZEYII-WNecZYxBlWu6PEquV3cFr-lOJRTkKmg2dwuGgyXlW1-mtdtQxZI6Nn9bFMeaOrss-QJ-2U2ek3hZJiZDrIKCZcaJ2QKxP6O8S0Zho1-kQer71SE2ErpN2Q36o6hQbUINLzDPvCee_ZqT33pdcBgJB6nRAYmv3Y3Ick4MsRT1GZ6KsKv2YNGQ7WcOuz9m4CDgwngeUVvH2L-soleuRKg_9IB4LpAMFIdr-_uJAEkJ5YYYx6oz23OwsK1MoAvT_iINESlm00?></g></svg>