<?plantuml 1.2026.2?><svg xmlns="http://www.w3.org/2000/svg" xmlns:xlink="http://www.w3.org/1999/xlink" contentStyleType="text/css" data-diagram-type="DESCRIPTION" height="359px" preserveAspectRatio="none" style="width:1016px;height:359px;background:#FFFFFF;" version="1.1" viewBox="0 0 1016 359" width="1016px" zoomAndPan="magnify"><defs/><g><!--cluster migration/\n(V1__)--><g class="cluster" data-qualified-name="migration..n.V1__." data-source-line="7" id="ent0003"><rect fill="#E8F8E8" height="168.49" rx="2.5" ry="2.5" style="stroke:#181818;stroke-width:1;" width="292" x="718.65" y="23.3"/><text fill="#000000" font-family="sans-serif" font-size="14" font-weight="bold" lengthAdjust="spacing" textLength="81.9492" x="823.6754" y="38.2951">migration/</text><text fill="#000000" font-family="sans-serif" font-size="14" font-weight="bold" lengthAdjust="spacing" textLength="47.373" x="840.9635" y="54.592">(V1__)</text></g><!--cluster dev/\n(V2__)--><g class="cluster" data-qualified-name="dev..n.V2__." data-source-line="11" id="ent0005"><rect fill="#FFF8E8" height="201.08" rx="2.5" ry="2.5" style="stroke:#181818;stroke-width:1;" width="366" x="328.65" y="7"/><text fill="#000000" font-family="sans-serif" font-size="14" font-weight="bold" lengthAdjust="spacing" textLength="33.7559" x="494.7721" y="21.9951">dev/</text><text fill="#000000" font-family="sans-serif" font-size="14" font-weight="bold" lengthAdjust="spacing" textLength="47.373" x="487.9635" y="38.292">(V2__)</text></g><!--entity v1--><g class="entity" data-qualified-name="migration..n.V1__..v1" data-source-line="8" id="ent0004"><path d="M734.5,76.8 L734.5,173.2844 A2.5,2.5 0 0 0 737,175.7844 L992.29,175.7844 A2.5,2.5 0 0 0 994.79,173.2844 L994.79,84.3 L984.79,74.3 L737,74.3 A2.5,2.5 0 0 0 734.5,76.8" fill="#F1F1F1" style="stroke:#181818;stroke-width:0.5;"/><path d="M984.79,74.3 L984.79,81.8 A2.5,2.5 0 0 0 987.29,84.3 L994.79,84.3" fill="#F1F1F1" style="stroke:#181818;stroke-width:0.5;"/><text fill="#000000" font-family="sans-serif" font-size="14" lengthAdjust="spacing" textLength="240.29" x="744.5" y="97.2951">V1__create_bookstore_schema.sql</text><text fill="#000000" font-family="sans-serif" font-size="14" lengthAdjust="spacing" textLength="157.3086" x="744.5" y="113.592">&#8226; Full DDL: all 7 tables</text><text fill="#000000" font-family="sans-serif" font-size="14" lengthAdjust="spacing" textLength="165.0195" x="744.5" y="129.8889">&#8226; Indexes &amp; constraints</text><text fill="#000000" font-family="sans-serif" font-size="14" lengthAdjust="spacing" textLength="143.0625" x="744.5" y="146.1857">&#8226; CHECK constraints</text><text fill="#000000" font-family="sans-serif" font-size="14" lengthAdjust="spacing" textLength="122.582" x="744.5" y="162.4826">&#8226; Applied: always</text></g><!--entity v2--><g class="entity" data-qualified-name="dev..n.V2__..v2" data-source-line="12" id="ent0006"><path d="M344.43,60.5 L344.43,189.5781 A2.5,2.5 0 0 0 346.93,192.0781 L676.3626,192.0781 A2.5,2.5 0 0 0 678.8626,189.5781 L678.8626,68 L668.8626,58 L346.93,58 A2.5,2.5 0 0 0 344.43,60.5" fill="#F1F1F1" style="stroke:#181818;stroke-width:0.5;"/><path d="M668.8626,58 L668.8626,65.5 A2.5,2.5 0 0 0 671.3626,68 L678.8626,68" fill="#F1F1F1" style="stroke:#181818;stroke-width:0.5;"/><text fill="#000000" font-family="sans-serif" font-size="14" lengthAdjust="spacing" textLength="314.4326" x="354.43" y="80.9951">V2__seed_demo_books_and_dev_account.sql</text><text fill="#000000" font-family="sans-serif" font-size="14" lengthAdjust="spacing" textLength="184.9053" x="354.43" y="97.292">&#8226; Demo customer account</text><text fill="#000000" font-family="sans-serif" font-size="14" lengthAdjust="spacing" textLength="111.0703" x="354.43" y="113.5889">&#8226; Sample books</text><text fill="#000000" font-family="sans-serif" font-size="14" lengthAdjust="spacing" textLength="231.8271" x="354.43" y="129.8857">&#8226; Demo placeholders substituted</text><text fill="#000000" font-family="sans-serif" font-size="14" lengthAdjust="spacing" textLength="148.2646" x="363.3304" y="146.1826">by Flyway at runtime</text><text fill="#000000" font-family="sans-serif" font-size="14" lengthAdjust="spacing" textLength="146.3779" x="354.43" y="162.4795">&#8226; Applied: only when</text><text fill="#000000" font-family="sans-serif" font-size="14" lengthAdjust="spacing" textLength="227.7666" x="363.3304" y="178.7764">BOOKSTORE_DEMO_MODE=true</text></g><!--entity base--><g class="entity" data-qualified-name="base" data-source-line="5" id="ent0002"><rect fill="#F1F1F1" height="36.2969" rx="2.5" ry="2.5" style="stroke:#181818;stroke-width:0.5;" width="180.8291" x="75.23" y="106.9"/><text fill="#000000" font-family="sans-serif" font-size="14" lengthAdjust="spacing" textLength="160.8291" x="85.23" y="129.8951">src/main/resources/db/</text></g><g class="entity" data-qualified-name="GMN7" data-source-line="16" id="ent0008"><path d="M360.34,252.08 L360.34,352.8769 A0,0 0 0 0 360.34,352.8769 L662.9538,352.8769 A0,0 0 0 0 662.9538,352.8769 L662.9538,262.08 L652.9538,252.08 L515.65,252.08 L511.65,192.37 L507.65,252.08 L360.34,252.08 A0,0 0 0 0 360.34,252.08" fill="#FEFFDD" style="stroke:#181818;stroke-width:0.5;"/><path d="M652.9538,252.08 L652.9538,262.08 L662.9538,262.08 L652.9538,252.08" fill="#FEFFDD" style="stroke:#181818;stroke-width:0.5;"/><text fill="#000000" font-family="sans-serif" font-size="13" lengthAdjust="spacing" textLength="171.2852" x="366.34" y="269.1469">Demo mode placeholders:</text><text fill="#000000" font-family="sans-serif" font-size="13" lengthAdjust="spacing" textLength="239.9224" x="366.34" y="284.2797">${demoEmail}     &#8594; demo-mode.env</text><text fill="#000000" font-family="sans-serif" font-size="13" lengthAdjust="spacing" textLength="281.6138" x="366.34" y="299.4125">${demoPasswordHash} &#8594; demo-mode.env</text><text fill="#000000" font-family="sans-serif" font-size="13" lengthAdjust="spacing" textLength="4.1323" x="366.34" y="314.5453">&#160;</text><text fill="#000000" font-family="sans-serif" font-size="13" lengthAdjust="spacing" textLength="158.2026" x="366.34" y="329.6781">Injected into Flyway via:</text><text fill="#000000" font-family="sans-serif" font-size="13" lengthAdjust="spacing" textLength="250.6245" x="366.34" y="344.811">flyway.placeholders in build.gradle.kts</text></g><g class="entity" data-qualified-name="GMN10" data-source-line="25" id="ent0011"><path d="M6,252.08 L6,352.8769 A0,0 0 0 0 6,352.8769 L325.2954,352.8769 A0,0 0 0 0 325.2954,352.8769 L325.2954,262.08 L315.2954,252.08 L169.65,252.08 L165.65,143.51 L161.65,252.08 L6,252.08 A0,0 0 0 0 6,252.08" fill="#FEFFDD" style="stroke:#181818;stroke-width:0.5;"/><path d="M315.2954,252.08 L315.2954,262.08 L325.2954,262.08 L315.2954,252.08" fill="#FEFFDD" style="stroke:#181818;stroke-width:0.5;"/><text fill="#000000" font-family="sans-serif" font-size="13" lengthAdjust="spacing" textLength="249.7358" x="12" y="269.1469">Flyway runs INSIDE the app container,</text><text fill="#000000" font-family="sans-serif" font-size="13" lengthAdjust="spacing" textLength="175.2271" x="12" y="284.2797">NOT as a separate service.</text><text fill="#000000" font-family="sans-serif" font-size="13" lengthAdjust="spacing" textLength="4.1323" x="12" y="299.4125">&#160;</text><text fill="#000000" font-family="sans-serif" font-size="13" lengthAdjust="spacing" textLength="76.2544" x="12" y="314.5453">Entry point:</text><text fill="#000000" font-family="sans-serif" font-size="13" lengthAdjust="spacing" textLength="173.856" x="12" y="329.6781">/opt/flyway/flyway migrate</text><text fill="#000000" font-family="sans-serif" font-size="13" lengthAdjust="spacing" textLength="298.2954" x="12" y="344.811">(called by entrypoint.sh before WildFly starts)</text></g><?plantuml-src RPF1RjD048RlUOfHGAYLm2Qz45NY0BMZHgKr8XLS8bdhtKcpPBrhTjPfGnM94m_08_1eVH9cuvIG1bzix_oU_VxPtxJGjX5UrE1H1c5l3C9z3_ZohhLAEc_Ha_wEC7ZTM_TwErMVl4nheMtgaLph9LAgghGFWg0IX7lQMjzu4RIpwTGUVHwKvN4VdkN3qJ0VRhURwQYB9UbH12mhvnOKdCUIv1nhaT0tCxKFFtx3g3K6ikp3AGX-U0D1L0QfgusjmZiaU07IMGgU-SAsT7QUdrqSBhzh6gDHnMQtOaKR_kNWYLU5omtvIKS-6XsISuaGLQcmTXryAMnyNPP2IXvcs3d8M0EoPNirUjYMkz94r0ttspJuHzmO8N7kZEBJ06eh2Zgq0TNK0bGh69aLmuC8uBcJhl69DsVD2cxdQAF-VL5SJAwBJtcPvPT5ULba-TlWM-oidqJhreN841WGt2mkGiTHEuLxCATSUNuVJUSS1hEE4u67dxyWBhsAyWJjyg_eeo2wTLwT2vgl_wDZuTX-vS6Z0ZuZz-XigKNSQRPvI_QceIrKhJOguOWfWyaYK0-jWkZXmCaccV3ObOT5CBwQZBCSmXn1D4qCIE1ue7_9kglYEWv5067yIxWLeLzgYKaapMtmAsWSWqQur3KXxGYtD-Xo7tSyaXnMDiM7XV6ppLS9pQ726OSSlh03fW8AmWSwtZdu0m00?></g></svg>