<?plantuml 1.2026.2?><svg xmlns="http://www.w3.org/2000/svg" xmlns:xlink="http://www.w3.org/1999/xlink" contentStyleType="text/css" data-diagram-type="DESCRIPTION" height="721px" preserveAspectRatio="none" style="width:1441px;height:721px;background:#FFFFFF;" version="1.1" viewBox="0 0 1441 721" width="1441px" zoomAndPan="magnify"><defs/><g><!--cluster Host Machine / M?y ch?--><g class="cluster" data-qualified-name="Host Machine . M.y ch." data-source-line="8" id="ent0002"><rect fill="#FFF8E8" height="505.74" rx="2.5" ry="2.5" style="stroke:#2C3E50;stroke-width:1;" width="987" x="7" y="121"/><text fill="#000000" font-family="sans-serif" font-size="13" font-weight="bold" lengthAdjust="spacing" textLength="174.2114" x="413.3943" y="135.0669">Host Machine / M&#225;y ch&#7911;</text></g><!--cluster User Browser--><g class="cluster" data-qualified-name="Host Machine . M.y ch..User Browser" data-source-line="9" id="ent0003"><rect fill="#FFE4B5" height="370.09" rx="2.5" ry="2.5" style="stroke:#2C3E50;stroke-width:1;" width="292" x="31" y="232.65"/><text fill="#000000" font-family="sans-serif" font-size="13" font-style="italic" lengthAdjust="spacing" textLength="53.5107" x="150.2446" y="246.7169">&#171;:8080&#187;</text><text fill="#000000" font-family="sans-serif" font-size="13" font-weight="bold" lengthAdjust="spacing" textLength="98.2744" x="127.8628" y="261.8497">User Browser</text></g><!--cluster http://localhost:8080--><g class="cluster" data-qualified-name="Host Machine . M.y ch..User Browser.http...localhost.8080" data-source-line="10" id="ent0004"><path d="M57.5,289.65 L223.834,289.65 A3.75,3.75 0 0 1 226.334,292.15 L233.334,311.9469 L296.5,311.9469 A2.5,2.5 0 0 1 299,314.4469 L299,576.24 A2.5,2.5 0 0 1 296.5,578.74 L57.5,578.74 A2.5,2.5 0 0 1 55,576.24 L55,292.15 A2.5,2.5 0 0 1 57.5,289.65" fill="none" style="stroke:#000000;stroke-width:1.5;"/><line style="stroke:#000000;stroke-width:1.5;" x1="55" x2="233.334" y1="311.9469" y2="311.9469"/><text fill="#000000" font-family="sans-serif" font-size="14" font-weight="bold" lengthAdjust="spacing" textLength="165.334" x="59" y="304.6451">http://localhost:8080</text></g><!--cluster Docker Engine--><g class="cluster" data-qualified-name="Host Machine . M.y ch..Docker Engine" data-source-line="17" id="ent0008"><rect fill="#E8F4FD" height="274.6" rx="2.5" ry="2.5" style="stroke:#2C3E50;stroke-width:1;" width="623" x="347" y="163"/><text fill="#000000" font-family="sans-serif" font-size="13" font-style="italic" lengthAdjust="spacing" textLength="62.0293" x="627.4854" y="177.0669">&#171;Docker&#187;</text><text fill="#000000" font-family="sans-serif" font-size="13" font-weight="bold" lengthAdjust="spacing" textLength="105.7964" x="605.6018" y="192.1997">Docker Engine</text></g><!--cluster docker-compose\n(postgres + app)--><g class="cluster" data-qualified-name="Host Machine . M.y ch..Docker Engine.docker-compose.n.postgres . app." data-source-line="18" id="ent0009"><rect fill="#ADD8E6" height="193.6" rx="2.5" ry="2.5" style="stroke:#2C3E50;stroke-width:1;" width="575" x="371" y="220"/><text fill="#000000" font-family="sans-serif" font-size="13" font-weight="bold" lengthAdjust="spacing" textLength="120.1865" x="598.4067" y="234.0669">docker-compose</text><text fill="#000000" font-family="sans-serif" font-size="13" font-weight="bold" lengthAdjust="spacing" textLength="123.6714" x="596.6643" y="249.1997">(postgres + app)</text></g><!--cluster postgres service--><g class="cluster" data-qualified-name="Host Machine . M.y ch..Docker Engine.docker-compose.n.postgres . app..postgres service" data-source-line="19" id="ent0010"><path d="M397.5,277 L529.2441,277 A3.75,3.75 0 0 1 531.7441,279.5 L538.7441,299.2969 L576.5,299.2969 A2.5,2.5 0 0 1 579,301.7969 L579,387.1 A2.5,2.5 0 0 1 576.5,389.6 L397.5,389.6 A2.5,2.5 0 0 1 395,387.1 L395,279.5 A2.5,2.5 0 0 1 397.5,277" fill="none" style="stroke:#000000;stroke-width:1.5;"/><line style="stroke:#000000;stroke-width:1.5;" x1="395" x2="538.7441" y1="299.2969" y2="299.2969"/><text fill="#000000" font-family="sans-serif" font-size="14" font-weight="bold" lengthAdjust="spacing" textLength="130.7441" x="399" y="291.9951">postgres service</text></g><!--cluster app service--><g class="cluster" data-qualified-name="Host Machine . M.y ch..Docker Engine.docker-compose.n.postgres . app..app service" data-source-line="22" id="ent0012"><path d="M605.5,288.15 L697.3154,288.15 A3.75,3.75 0 0 1 699.8154,290.65 L706.8154,310.4469 L919.5,310.4469 A2.5,2.5 0 0 1 922,312.9469 L922,375.95 A2.5,2.5 0 0 1 919.5,378.45 L605.5,378.45 A2.5,2.5 0 0 1 603,375.95 L603,290.65 A2.5,2.5 0 0 1 605.5,288.15" fill="none" style="stroke:#000000;stroke-width:1.5;"/><line style="stroke:#000000;stroke-width:1.5;" x1="603" x2="706.8154" y1="310.4469" y2="310.4469"/><text fill="#000000" font-family="sans-serif" font-size="14" font-weight="bold" lengthAdjust="spacing" textLength="90.8154" x="607" y="303.1451">app service</text></g><!--entity login.jsp--><g class="entity" data-qualified-name="Host Machine . M.y ch..User Browser.http...localhost.8080.login.jsp" data-source-line="11" id="ent0005"><path d="M70.69,327.15 L70.69,358.4469 A2.5,2.5 0 0 0 73.19,360.9469 L146.815,360.9469 A2.5,2.5 0 0 0 149.315,358.4469 L149.315,334.65 L139.315,324.65 L73.19,324.65 A2.5,2.5 0 0 0 70.69,327.15" fill="#F1F1F1" style="stroke:#181818;stroke-width:0.5;"/><path d="M139.315,324.65 L139.315,332.15 A2.5,2.5 0 0 0 141.815,334.65 L149.315,334.65" fill="#F1F1F1" style="stroke:#181818;stroke-width:0.5;"/><text fill="#000000" font-family="sans-serif" font-size="14" lengthAdjust="spacing" textLength="58.625" x="80.69" y="347.6451">login.jsp</text></g><!--entity register.jsp--><g class="entity" data-qualified-name="Host Machine . M.y ch..User Browser.http...localhost.8080.register.jsp" data-source-line="12" id="ent0006"><path d="M184.59,327.15 L184.59,358.4469 A2.5,2.5 0 0 0 187.09,360.9469 L280.9084,360.9469 A2.5,2.5 0 0 0 283.4084,358.4469 L283.4084,334.65 L273.4084,324.65 L187.09,324.65 A2.5,2.5 0 0 0 184.59,327.15" fill="#F1F1F1" style="stroke:#181818;stroke-width:0.5;"/><path d="M273.4084,324.65 L273.4084,332.15 A2.5,2.5 0 0 0 275.9084,334.65 L283.4084,334.65" fill="#F1F1F1" style="stroke:#181818;stroke-width:0.5;"/><text fill="#000000" font-family="sans-serif" font-size="14" lengthAdjust="spacing" textLength="78.8184" x="194.59" y="347.6451">register.jsp</text></g><!--entity /account/*--><g class="entity" data-qualified-name="Host Machine . M.y ch..User Browser.http...localhost.8080..account.." data-source-line="13" id="ent0007"><path d="M70.9,528.95 L70.9,560.2469 A2.5,2.5 0 0 0 73.4,562.7469 L160.608,562.7469 A2.5,2.5 0 0 0 163.108,560.2469 L163.108,536.45 L153.108,526.45 L73.4,526.45 A2.5,2.5 0 0 0 70.9,528.95" fill="#F1F1F1" style="stroke:#181818;stroke-width:0.5;"/><path d="M153.108,526.45 L153.108,533.95 A2.5,2.5 0 0 0 155.608,536.45 L163.108,536.45" fill="#F1F1F1" style="stroke:#181818;stroke-width:0.5;"/><text fill="#000000" font-family="sans-serif" font-size="14" lengthAdjust="spacing" textLength="72.208" x="80.9" y="549.4451">/account/*</text></g><!--entity bookstore DB\n(5432/tcp internal)--><g class="entity" data-qualified-name="Host Machine . M.y ch..Docker Engine.docker-compose.n.postgres . app..postgres service.bookstore DB.n.5432.tcp internal." data-source-line="20" id="ent0011"><path d="M411.12,322 C411.12,312 486.9979,312 486.9979,312 C486.9979,312 562.8759,312 562.8759,322 L562.8759,363.5938 C562.8759,373.5938 486.9979,373.5938 486.9979,373.5938 C486.9979,373.5938 411.12,373.5938 411.12,363.5938 L411.12,322" fill="#F1F1F1" style="stroke:#181818;stroke-width:0.5;"/><path d="M411.12,322 C411.12,332 486.9979,332 486.9979,332 C486.9979,332 562.8759,332 562.8759,322" fill="none" style="stroke:#181818;stroke-width:0.5;"/><text fill="#000000" font-family="sans-serif" font-size="14" lengthAdjust="spacing" textLength="94.6777" x="421.12" y="348.9951">bookstore DB</text><text fill="#000000" font-family="sans-serif" font-size="14" lengthAdjust="spacing" textLength="131.7559" x="421.12" y="365.292">(5432/tcp internal)</text></g><!--entity wf8080--><g class="entity" data-qualified-name="Host Machine . M.y ch..Docker Engine.docker-compose.n.postgres . app..app service.wf8080" data-source-line="23" id="ent0013"><rect fill="#F1F1F1" height="39.2969" rx="2.5" ry="2.5" style="stroke:#181818;stroke-width:0.5;" width="125.5322" x="619.23" y="323.15"/><polygon fill="#F1F1F1" points="727.7622,328.15,727.7622,342.15,739.7622,342.15,739.7622,334.15,733.7622,328.15,727.7622,328.15" style="stroke:#181818;stroke-width:0.5;"/><line style="stroke:#181818;stroke-width:0.5;" x1="733.7622" x2="733.7622" y1="328.15" y2="334.15"/><line style="stroke:#181818;stroke-width:0.5;" x1="739.7622" x2="733.7622" y1="334.15" y2="334.15"/><text fill="#000000" font-family="sans-serif" font-size="14" lengthAdjust="spacing" textLength="95.5322" x="629.23" y="349.1451">WildFly :8080</text></g><!--entity wf9990--><g class="entity" data-qualified-name="Host Machine . M.y ch..Docker Engine.docker-compose.n.postgres . app..app service.wf9990" data-source-line="24" id="ent0014"><rect fill="#F1F1F1" height="39.2969" rx="2.5" ry="2.5" style="stroke:#181818;stroke-width:0.5;" width="125.5322" x="780.23" y="323.15"/><polygon fill="#F1F1F1" points="888.7622,328.15,888.7622,342.15,900.7622,342.15,900.7622,334.15,894.7622,328.15,888.7622,328.15" style="stroke:#181818;stroke-width:0.5;"/><line style="stroke:#181818;stroke-width:0.5;" x1="894.7622" x2="894.7622" y1="328.15" y2="334.15"/><line style="stroke:#181818;stroke-width:0.5;" x1="900.7622" x2="894.7622" y1="334.15" y2="334.15"/><text fill="#000000" font-family="sans-serif" font-size="14" lengthAdjust="spacing" textLength="95.5322" x="790.23" y="349.1451">WildFly :9990</text></g><!--entity user_browser--><g class="entity" data-qualified-name="user_browser" data-source-line="30" id="ent0015"><ellipse cx="682" cy="14" fill="#F1F1F1" rx="8" ry="8" style="stroke:#181818;stroke-width:0.5;"/><text fill="#000000" font-family="sans-serif" font-size="14" lengthAdjust="spacing" textLength="93.8574" x="635.0713" y="43.9951">user_browser</text></g><!--entity postgres--><g class="entity" data-qualified-name="postgres" data-source-line="31" id="ent0017"><ellipse cx="1048" cy="544.6" fill="#F1F1F1" rx="8" ry="8" style="stroke:#181818;stroke-width:0.5;"/><text fill="#000000" font-family="sans-serif" font-size="14" lengthAdjust="spacing" textLength="60.7852" x="1017.6074" y="574.5951">postgres</text></g><g class="entity" data-qualified-name="GMN19" data-source-line="34" id="ent0020"><path d="M1121.32,524.46 L1121.32,564.7256 A0,0 0 0 0 1121.32,564.7256 L1434.674,564.7256 A0,0 0 0 0 1434.674,564.7256 L1434.674,534.46 L1424.674,524.46 L1239.36,524.46 L884.32,362.78 L1231.36,524.46 L1121.32,524.46 A0,0 0 0 0 1121.32,524.46" fill="#FEFFDD" style="stroke:#181818;stroke-width:0.5;"/><path d="M1424.674,524.46 L1424.674,534.46 L1434.674,534.46 L1424.674,524.46" fill="#FEFFDD" style="stroke:#181818;stroke-width:0.5;"/><text fill="#000000" font-family="sans-serif" font-size="13" lengthAdjust="spacing" textLength="143.5776" x="1127.32" y="541.5269">Management console.</text><text fill="#000000" font-family="sans-serif" font-size="13" lengthAdjust="spacing" textLength="292.354" x="1127.32" y="556.6597">Not exposed to public internet in production.</text></g><g class="entity" data-qualified-name="GMN22" data-source-line="39" id="ent0023"><path d="M956.86,673.74 L956.86,714.0056 A0,0 0 0 0 956.86,714.0056 L1139.1413,714.0056 A0,0 0 0 0 1139.1413,714.0056 L1139.1413,683.74 L1129.1413,673.74 L1052,673.74 L1048,553.51 L1044,673.74 L956.86,673.74 A0,0 0 0 0 956.86,673.74" fill="#FEFFDD" style="stroke:#181818;stroke-width:0.5;"/><path d="M1129.1413,673.74 L1129.1413,683.74 L1139.1413,683.74 L1129.1413,673.74" fill="#FEFFDD" style="stroke:#181818;stroke-width:0.5;"/><text fill="#000000" font-family="sans-serif" font-size="13" lengthAdjust="spacing" textLength="144.752" x="962.86" y="690.8069">Only accessible within</text><text fill="#000000" font-family="sans-serif" font-size="13" lengthAdjust="spacing" textLength="161.2813" x="962.86" y="705.9397">Docker internal network.</text></g><!--link user_browser to wf8080--><g class="link" data-entity-1="ent0015" data-entity-2="ent0013" data-link-type="dependency" data-source-line="30" id="lnk16"><path d="M682,22.76 C682,64.32 682,255.1 682,317.07" fill="none" id="user_browser-to-wf8080" style="stroke:#181818;stroke-width:1;stroke-dasharray:7,7;"/><polygon fill="#181818" points="682,323.07,686,314.07,682,318.07,678,314.07,682,323.07" style="stroke:#181818;stroke-width:1;"/><text fill="#000000" font-family="sans-serif" font-size="13" lengthAdjust="spacing" textLength="106.7993" x="683" y="86.0669">Browser request</text><text fill="#000000" font-family="sans-serif" font-size="13" lengthAdjust="spacing" textLength="95.8179" x="688.4907" y="101.1997">localhost:8080</text></g><!--link wf8080 to postgres--><g class="link" data-entity-1="ent0013" data-entity-2="ent0017" data-link-type="dependency" data-source-line="31" id="lnk18"><path d="M692.43,362.65 C705.91,385.38 731.45,423.32 763,445.6 C857.66,512.46 995.9324,536.1169 1033.0824,541.5169" fill="none" id="wf8080-to-postgres" style="stroke:#181818;stroke-width:1;stroke-dasharray:7,7;"/><polygon fill="#181818" points="1039.02,542.38,1030.689,537.127,1034.072,541.6608,1029.5382,545.0438,1039.02,542.38" style="stroke:#181818;stroke-width:1;"/><text fill="#000000" font-family="sans-serif" font-size="13" lengthAdjust="spacing" textLength="86.0806" x="839.5633" y="466.6669">JDBC internal</text><text fill="#000000" font-family="sans-serif" font-size="13" lengthAdjust="spacing" textLength="93.9072" x="835.65" y="481.7997">postgres:5432</text></g><?plantuml-src ZLFDZjD03BxdAQpiXGNHb6sBqcfLYJQ945BP0q9SAg79P9eEJSTXngNieZuC9nvYZpm9RuAdJNyekmWVCYFRdp_x6ySjjAc55KkmIf8mPQNWMm1i8o4NfSMLASPOeOMBDCwwMRABeIsKRVnNuqxQQs_z6Hfwf-yKlEW4co0ubWnVeoEO23dNHa44av_VRq7EVzt_2E4Yox8uZHlQ4ynxfooCBAxv3E7wUX2tu_Pmw05fTzHh0DvgxbMK39aJrOCegb2AQiwKMqXuakbjfdtr2ajjMfzS7JuGjAhKZfHzB1u9ALaQYfuUevjWzpqV8q6vu45ImtpApx5p-45safwqTm8hjbdF9IvhT6fgdl11fLKEde6ewqiMxbMInEdBi-aEMXpoMRulMgfp6RmLWaGk76VdY0j7Q1Ka8oRhTJjN4SaQj64PZAWk_vHXyp0dD_OlEc59puGa23_egiYgMsWUI3XOp_prVo3zVdyFyTT7-je_1p_8YblwcEyM2LgjOSC50mYRzMBXFw-KewavMvsWIVMeWw2CUvECnWTjfcOV6dZTmY0mI0fo9C8buEpOw4GOrccf3854ux1IBVQ-HGBrrJzp0OHGh_9AowQw8hv0RR5OIT9eMe4o1VZwVx7ic-2ADuQ5uXrLpkcSjscjYVyy3ZJBkEySkFuQxUAawcy0?></g></svg>