<?plantuml 1.2026.2?><svg xmlns="http://www.w3.org/2000/svg" xmlns:xlink="http://www.w3.org/1999/xlink" contentStyleType="text/css" data-diagram-type="DESCRIPTION" height="791px" preserveAspectRatio="none" style="width:1169px;height:791px;background:#FFFFFF;" version="1.1" viewBox="0 0 1169 791" width="1169px" zoomAndPan="magnify"><title>Deployment Topology &#8212; Docker Compose Stack
Bookstore Application</title><defs/><g><g class="title" data-source-line="20"><text fill="#000000" font-family="sans-serif" font-size="14" font-weight="bold" lengthAdjust="spacing" textLength="377.1934" x="389.1716" y="22.9951">Deployment Topology &#8212; Docker Compose Stack</text><text fill="#000000" font-family="sans-serif" font-size="14" font-weight="bold" lengthAdjust="spacing" textLength="174.4326" x="490.552" y="39.292">Bookstore Application</text></g><!--cluster User Browser--><g class="cluster" data-qualified-name="User Browser" data-source-line="23" id="ent0002"><polygon fill="#FFF8E8" points="667.8082,69.5938,677.8082,59.5938,848.8082,59.5938,848.8082,177.1837,838.8082,187.1837,667.8082,187.1837,667.8082,69.5938" style="stroke:#2C3E50;stroke-width:1;"/><line style="stroke:#2C3E50;stroke-width:1;" x1="838.8082" x2="848.8082" y1="69.5938" y2="59.5938"/><line style="stroke:#2C3E50;stroke-width:1;" x1="667.8082" x2="838.8082" y1="69.5938" y2="69.5938"/><line style="stroke:#2C3E50;stroke-width:1;" x1="838.8082" x2="838.8082" y1="69.5938" y2="187.1837"/><text fill="#2C3E50" font-family="sans-serif" font-size="14" font-style="italic" lengthAdjust="spacing" textLength="57.8115" x="725.4025" y="85.5889">&#171;Client&#187;</text><text fill="#2C3E50" font-family="sans-serif" font-size="14" font-weight="bold" lengthAdjust="spacing" textLength="105.834" x="701.3913" y="101.8857">User Browser</text></g><!--cluster docker_host--><g class="cluster" data-qualified-name="docker_host" data-source-line="28" id="ent0004"><path d="M64.0082,264.8077 C87.789,230.0646 121.5808,232.0769 142.0261,268.466 C161.4959,233.7346 188.6322,231.2733 215.8149,259.4139 C235.2367,229.2627 269.4649,226.8596 285.9579,262.5348 C310.9012,226.1731 343.5888,231.2425 365.774,265.6457 C392.0469,228.3303 414.6303,228.7806 438.2529,268.1505 C459.479,227.9472 484.1288,227.5771 512.8562,260.4974 C537.9114,228.1774 567.0825,220.3692 592.2385,260.3868 C613.5761,228.5098 635.0942,223.9485 660.0125,256.6277 C691.123,221.0976 720.3882,222.9683 741.0943,267.2038 C761.17,232.5072 787.1786,217.6131 817.8997,256.0191 C837.8421,226.8549 863.4164,227.1275 880.9382,258.5381 C909.0777,222.4164 938.3071,218.3614 960.8102,264.0415 C986.7042,234.5914 1018.2067,229.9639 1036.9824,271.6623 C1057.7548,240.0256 1085.9587,228.4758 1111.8082,266.1838 C1120.4597,263.1619 1125.8466,269.1526 1123.7533,277.4863 C1158.5842,300.1812 1156.6926,330.6886 1118.7187,348.2 C1161.0727,373.6095 1161.9879,396.7693 1121.207,424.8766 C1151.3955,443.15 1162.5367,471.141 1126.8116,494.7047 C1159.2592,525.9603 1154.6676,558.431 1115.3453,580.0434 C1147.3239,597.0667 1160.5953,627.8581 1123.1272,652.355 C1150.8089,685.4299 1145.8334,712.6408 1104.8082,729.3738 C1110.5093,726.2586 1114.9083,728.6089 1114.8051,735.2943 C1095.0392,775.8298 1058.895,771.8271 1037.2297,737.256 C1017.4703,773.3358 993.5818,772.7402 968.0468,743.36 C938.4424,781.7323 903.8078,784.3139 882.8692,734.9471 C856.5433,774.0969 831.2099,765.0013 807.9754,731.7494 C793.4219,770.0484 755.1047,773.6666 729.4658,744.685 C704.8336,774.666 671.0416,770.2835 654.6519,735.2064 C632.9279,772.0993 607.8125,771.2078 580.687,741.1762 C555.494,772.2928 522.0123,773.1301 504.7269,732.7723 C486.981,771.884 458.5433,776.984 430.5083,743.2562 C406.7513,770.0967 377.4677,770.9182 365.28,731.8128 C340.5,774.3128 307.339,772.6505 281.0596,733.3566 C261.3952,762.5154 231.8825,762.8419 214.5014,730.8706 C193.7024,771.4743 156.223,778.3199 128.9929,737.6355 C96.9918,773.348 64.8945,761.5927 46.8082,722.3738 C51.3157,723.2527 51.9682,727.0469 48.8563,729.978 C14.0258,706.2461 7.1022,682.6101 45.5153,655.5886 C11.3592,624.7281 17.4359,599.2615 55.0642,577.1385 C17.5672,555.0015 24.659,532.8883 51.4438,507.4136 C7.7219,485.0062 6,442.8239 49.4723,418.4835 C17.9724,396.6845 11.8262,362.7647 52.5361,343.9333 C11.2451,321.2127 18.1298,280.7489 53.8082,259.1838 C59.4993,255.6953 63.6875,258.5559 64.0082,264.8077" fill="#F0F8FF" style="stroke:#ADB5BD;stroke-width:1;"/><text fill="#000000" font-family="sans-serif" font-size="14" font-weight="bold" lengthAdjust="spacing" textLength="96.4824" x="531.067" y="277.1789">Docker Host</text><text fill="#000000" font-family="sans-serif" font-size="14" font-weight="bold" lengthAdjust="spacing" textLength="126.7314" x="515.9425" y="293.4757">(Docker Engine)</text></g><!--cluster postgres--><g class="cluster" data-qualified-name="docker_host.postgres" data-source-line="29" id="ent0005"><polygon fill="#D4EDDA" points="671.8082,549.7837,681.8082,539.7837,1087.8082,539.7837,1087.8082,695.3738,1077.8082,705.3738,671.8082,705.3738,671.8082,549.7837" style="stroke:#2C3E50;stroke-width:1;"/><line style="stroke:#2C3E50;stroke-width:1;" x1="1077.8082" x2="1087.8082" y1="549.7837" y2="539.7837"/><line style="stroke:#2C3E50;stroke-width:1;" x1="671.8082" x2="1077.8082" y1="549.7837" y2="549.7837"/><line style="stroke:#2C3E50;stroke-width:1;" x1="1077.8082" x2="1077.8082" y1="549.7837" y2="705.3738"/><text fill="#2C3E50" font-family="sans-serif" font-size="14" font-style="italic" lengthAdjust="spacing" textLength="69.0225" x="841.297" y="565.7789">&#171;Service&#187;</text><text fill="#2C3E50" font-family="sans-serif" font-size="14" font-style="italic" lengthAdjust="spacing" textLength="168.082" x="791.7672" y="582.0757">&#171;PostgreSQL 17-alpine&#187;</text><text fill="#2C3E50" font-family="sans-serif" font-size="14" font-weight="bold" lengthAdjust="spacing" textLength="69.4189" x="841.0988" y="598.3726">postgres</text></g><!--cluster app--><g class="cluster" data-qualified-name="docker_host.app" data-source-line="34" id="ent0008"><polygon fill="#E8F4FD" points="70.8082,328.1838,80.8082,318.1838,631.8082,318.1838,631.8082,692.3738,621.8082,702.3738,70.8082,702.3738,70.8082,328.1838" style="stroke:#2C3E50;stroke-width:1;"/><line style="stroke:#2C3E50;stroke-width:1;" x1="621.8082" x2="631.8082" y1="328.1838" y2="318.1838"/><line style="stroke:#2C3E50;stroke-width:1;" x1="70.8082" x2="621.8082" y1="328.1838" y2="328.1838"/><line style="stroke:#2C3E50;stroke-width:1;" x1="621.8082" x2="621.8082" y1="328.1838" y2="702.3738"/><text fill="#2C3E50" font-family="sans-serif" font-size="14" font-style="italic" lengthAdjust="spacing" textLength="69.0225" x="312.797" y="344.1789">&#171;Service&#187;</text><text fill="#2C3E50" font-family="sans-serif" font-size="14" font-style="italic" lengthAdjust="spacing" textLength="176.9688" x="258.8239" y="360.4757">&#171;WildFly 39.0.1 / JDK 21&#187;</text><text fill="#2C3E50" font-family="sans-serif" font-size="14" font-weight="bold" lengthAdjust="spacing" textLength="29.4902" x="332.5631" y="376.7726">app</text></g><!--cluster Internet--><g class="cluster" data-qualified-name="Internet" data-source-line="44" id="ent0014"><polygon fill="#FFFFFF" points="913.8082,77.7437,923.8082,67.7437,1079.8082,67.7437,1079.8082,169.0337,1069.8082,179.0337,913.8082,179.0337,913.8082,77.7437" style="stroke:#2C3E50;stroke-width:1;"/><line style="stroke:#2C3E50;stroke-width:1;" x1="1069.8082" x2="1079.8082" y1="77.7437" y2="67.7437"/><line style="stroke:#2C3E50;stroke-width:1;" x1="913.8082" x2="1069.8082" y1="77.7437" y2="77.7437"/><line style="stroke:#2C3E50;stroke-width:1;" x1="1069.8082" x2="1069.8082" y1="77.7437" y2="179.0337"/><text fill="#2C3E50" font-family="sans-serif" font-size="14" font-style="italic" lengthAdjust="spacing" textLength="75.6123" x="955.0021" y="93.7389">&#171;External&#187;</text><text fill="#2C3E50" font-family="sans-serif" font-size="14" font-weight="bold" lengthAdjust="spacing" textLength="64.4219" x="960.5973" y="110.0357">Internet</text></g><!--entity HTML/CSS/JS\n(JSP rendered)--><g class="entity" data-qualified-name="User Browser.HTML.CSS.JS.n.JSP rendered." data-source-line="24" id="ent0003"><rect fill="#FFF3CD" height="55.5938" rx="2.5" ry="2.5" style="stroke:#F39C12;stroke-width:0.5;" width="130.8301" x="693.3882" y="115.5938"/><polygon fill="#FFF3CD" points="807.2183,120.5938,807.2183,134.5938,819.2183,134.5938,819.2183,126.5938,813.2183,120.5938,807.2183,120.5938" style="stroke:#F39C12;stroke-width:0.5;"/><line style="stroke:#F39C12;stroke-width:0.5;" x1="813.2183" x2="813.2183" y1="120.5938" y2="126.5938"/><line style="stroke:#F39C12;stroke-width:0.5;" x1="819.2183" x2="813.2183" y1="126.5938" y2="126.5938"/><text fill="#000000" font-family="sans-serif" font-size="14" lengthAdjust="spacing" textLength="88.9561" x="703.3882" y="141.5889">HTML/CSS/JS</text><text fill="#000000" font-family="sans-serif" font-size="14" lengthAdjust="spacing" textLength="100.8301" x="703.3882" y="157.8857">(JSP rendered)</text></g><!--entity PostgreSQL Server\nPort: 5432 (internal)--><g class="entity" data-qualified-name="docker_host.postgres.PostgreSQL Server.nPort. 5432 .internal." data-source-line="30" id="ent0006"><rect fill="#FFF3CD" height="55.5938" rx="2.5" ry="2.5" style="stroke:#F39C12;stroke-width:0.5;" width="172.3857" x="695.6182" y="622.7837"/><polygon fill="#FFF3CD" points="851.004,627.7837,851.004,641.7837,863.004,641.7837,863.004,633.7837,857.004,627.7837,851.004,627.7837" style="stroke:#F39C12;stroke-width:0.5;"/><line style="stroke:#F39C12;stroke-width:0.5;" x1="857.004" x2="857.004" y1="627.7837" y2="633.7837"/><line style="stroke:#F39C12;stroke-width:0.5;" x1="863.004" x2="857.004" y1="633.7837" y2="633.7837"/><text fill="#000000" font-family="sans-serif" font-size="14" lengthAdjust="spacing" textLength="131.1133" x="705.6182" y="648.7789">PostgreSQL Server</text><text fill="#000000" font-family="sans-serif" font-size="14" lengthAdjust="spacing" textLength="142.3857" x="705.6182" y="665.0757">Port: 5432 (internal)</text></g><!--entity bookstore DB\n(User: bookstore)--><g class="entity" data-qualified-name="docker_host.postgres.bookstore DB.n.User. bookstore." data-source-line="31" id="ent0007"><path d="M902.8882,629.7837 C902.8882,619.7837 973.8101,619.7837 973.8101,619.7837 C973.8101,619.7837 1044.732,619.7837 1044.732,629.7837 L1044.732,671.3775 C1044.732,681.3775 973.8101,681.3775 973.8101,681.3775 C973.8101,681.3775 902.8882,681.3775 902.8882,671.3775 L902.8882,629.7837" fill="#D4EDDA" style="stroke:#27AE60;stroke-width:0.5;"/><path d="M902.8882,629.7837 C902.8882,639.7837 973.8101,639.7837 973.8101,639.7837 C973.8101,639.7837 1044.732,639.7837 1044.732,629.7837" fill="none" style="stroke:#27AE60;stroke-width:0.5;"/><text fill="#2C3E50" font-family="sans-serif" font-size="14" lengthAdjust="spacing" textLength="94.6777" x="912.8882" y="656.7789">bookstore DB</text><text fill="#2C3E50" font-family="sans-serif" font-size="14" lengthAdjust="spacing" textLength="121.8438" x="912.8882" y="673.0757">(User: bookstore)</text></g><!--entity ROOT.war\n(Deployed to /)--><g class="entity" data-qualified-name="docker_host.app.ROOT.war.n.Deployed to .." data-source-line="35" id="ent0009"><rect fill="#FFF3CD" height="55.5938" rx="2.5" ry="2.5" style="stroke:#F39C12;stroke-width:0.5;" width="135.1162" x="95.2482" y="398.1838"/><polygon fill="#FFF3CD" points="213.3645,403.1838,213.3645,417.1838,225.3645,417.1838,225.3645,409.1838,219.3645,403.1838,213.3645,403.1838" style="stroke:#F39C12;stroke-width:0.5;"/><line style="stroke:#F39C12;stroke-width:0.5;" x1="219.3645" x2="219.3645" y1="403.1838" y2="409.1838"/><line style="stroke:#F39C12;stroke-width:0.5;" x1="225.3645" x2="219.3645" y1="409.1838" y2="409.1838"/><text fill="#000000" font-family="sans-serif" font-size="14" lengthAdjust="spacing" textLength="70.5537" x="105.2482" y="424.1789">ROOT.war</text><text fill="#000000" font-family="sans-serif" font-size="14" lengthAdjust="spacing" textLength="105.1162" x="105.2482" y="440.4757">(Deployed to /)</text></g><!--entity Flyway CLI\nv11.10.5--><g class="entity" data-qualified-name="docker_host.app.Flyway CLI.nv11.10.5" data-source-line="36" id="ent0010"><rect fill="#FFF3CD" height="55.5938" rx="2.5" ry="2.5" style="stroke:#F39C12;stroke-width:0.5;" width="104.6963" x="265.4582" y="398.1838"/><polygon fill="#FFF3CD" points="353.1545,403.1838,353.1545,417.1838,365.1545,417.1838,365.1545,409.1838,359.1545,403.1838,353.1545,403.1838" style="stroke:#F39C12;stroke-width:0.5;"/><line style="stroke:#F39C12;stroke-width:0.5;" x1="359.1545" x2="359.1545" y1="403.1838" y2="409.1838"/><line style="stroke:#F39C12;stroke-width:0.5;" x1="365.1545" x2="359.1545" y1="409.1838" y2="409.1838"/><text fill="#000000" font-family="sans-serif" font-size="14" lengthAdjust="spacing" textLength="74.6963" x="275.4582" y="424.1789">Flyway CLI</text><text fill="#000000" font-family="sans-serif" font-size="14" lengthAdjust="spacing" textLength="61.7217" x="275.4582" y="440.4757">v11.10.5</text></g><!--entity Customization Scripts\n(entrypoint.sh)--><g class="entity" data-qualified-name="docker_host.app.Customization Scripts.n.entrypoint.sh." data-source-line="37" id="ent0011"><rect fill="#FFF3CD" height="55.5938" rx="2.5" ry="2.5" style="stroke:#F39C12;stroke-width:0.5;" width="182.6191" x="405.4982" y="398.1838"/><polygon fill="#FFF3CD" points="571.1174,403.1838,571.1174,417.1838,583.1174,417.1838,583.1174,409.1838,577.1174,403.1838,571.1174,403.1838" style="stroke:#F39C12;stroke-width:0.5;"/><line style="stroke:#F39C12;stroke-width:0.5;" x1="577.1174" x2="577.1174" y1="403.1838" y2="409.1838"/><line style="stroke:#F39C12;stroke-width:0.5;" x1="583.1174" x2="577.1174" y1="409.1838" y2="409.1838"/><text fill="#000000" font-family="sans-serif" font-size="14" lengthAdjust="spacing" textLength="152.6191" x="415.4982" y="424.1789">Customization Scripts</text><text fill="#000000" font-family="sans-serif" font-size="14" lengthAdjust="spacing" textLength="104.2617" x="415.4982" y="440.4757">(entrypoint.sh)</text></g><!--entity PostgreSQL JDBC\nDriver (42.7.7)--><g class="entity" data-qualified-name="docker_host.app.PostgreSQL JDBC.nDriver .42.7.7." data-source-line="38" id="ent0012"><rect fill="#FFF3CD" height="55.5938" rx="2.5" ry="2.5" style="stroke:#F39C12;stroke-width:0.5;" width="149.4922" x="95.0582" y="622.7837"/><polygon fill="#FFF3CD" points="227.5504,627.7837,227.5504,641.7837,239.5504,641.7837,239.5504,633.7837,233.5504,627.7837,227.5504,627.7837" style="stroke:#F39C12;stroke-width:0.5;"/><line style="stroke:#F39C12;stroke-width:0.5;" x1="233.5504" x2="233.5504" y1="627.7837" y2="633.7837"/><line style="stroke:#F39C12;stroke-width:0.5;" x1="239.5504" x2="233.5504" y1="633.7837" y2="633.7837"/><text fill="#000000" font-family="sans-serif" font-size="14" lengthAdjust="spacing" textLength="119.4922" x="105.0582" y="648.7789">PostgreSQL JDBC</text><text fill="#000000" font-family="sans-serif" font-size="14" lengthAdjust="spacing" textLength="102.9834" x="105.0582" y="665.0757">Driver (42.7.7)</text></g><!--entity WildFly CLI Script\n(configure-datasource.cli)--><g class="entity" data-qualified-name="docker_host.app.WildFly CLI Script.n.configure-datasource.cli." data-source-line="39" id="ent0013"><rect fill="#FFF3CD" height="55.5938" rx="2.5" ry="2.5" style="stroke:#F39C12;stroke-width:0.5;" width="210.3184" x="279.6482" y="622.7837"/><polygon fill="#FFF3CD" points="472.9666,627.7837,472.9666,641.7837,484.9666,641.7837,484.9666,633.7837,478.9666,627.7837,472.9666,627.7837" style="stroke:#F39C12;stroke-width:0.5;"/><line style="stroke:#F39C12;stroke-width:0.5;" x1="478.9666" x2="478.9666" y1="627.7837" y2="633.7837"/><line style="stroke:#F39C12;stroke-width:0.5;" x1="484.9666" x2="478.9666" y1="633.7837" y2="633.7837"/><text fill="#000000" font-family="sans-serif" font-size="14" lengthAdjust="spacing" textLength="121.9463" x="289.6482" y="648.7789">WildFly CLI Script</text><text fill="#000000" font-family="sans-serif" font-size="14" lengthAdjust="spacing" textLength="180.3184" x="289.6482" y="665.0757">(configure-datasource.cli)</text></g><!--entity Public Network--><g class="entity" data-qualified-name="Internet.Public Network" data-source-line="45" id="ent0015"><rect fill="#FFF3CD" height="39.2969" rx="2.5" ry="2.5" style="stroke:#F39C12;stroke-width:0.5;" width="134.583" x="929.5182" y="123.7437"/><polygon fill="#FFF3CD" points="1047.1013,128.7437,1047.1013,142.7437,1059.1013,142.7437,1059.1013,134.7437,1053.1013,128.7437,1047.1013,128.7437" style="stroke:#F39C12;stroke-width:0.5;"/><line style="stroke:#F39C12;stroke-width:0.5;" x1="1053.1013" x2="1053.1013" y1="128.7437" y2="134.7437"/><line style="stroke:#F39C12;stroke-width:0.5;" x1="1059.1013" x2="1053.1013" y1="134.7437" y2="134.7437"/><text fill="#000000" font-family="sans-serif" font-size="14" lengthAdjust="spacing" textLength="104.583" x="939.5182" y="149.7389">Public Network</text></g><!--entity user--><g class="entity" data-qualified-name="user" data-source-line="51" id="ent0016"><ellipse cx="623.8082" cy="143.3937" fill="#F1F1F1" rx="8" ry="8" style="stroke:#181818;stroke-width:0.5;"/><text fill="#000000" font-family="sans-serif" font-size="14" lengthAdjust="spacing" textLength="30.5361" x="608.5402" y="173.3889">user</text></g><!--link user to app--><g class="link" data-entity-1="ent0016" data-entity-2="ent0008" data-link-type="dependency" data-source-line="51" id="lnk17"><path d="M623.8082,152.1837 C623.8082,174.4887 623.8082,240.9237 623.8082,302.6437 C623.8082,306.5012 623.8082,310.3403 623.8082,314.1491 C623.8082,315.1013 623.8082,310.0515 623.8082,310.9997" fill="none" id="user-to-app" style="stroke:#181818;stroke-width:1;"/><polygon fill="#181818" points="623.8082,316.9997,627.8082,307.9997,623.8082,311.9997,619.8082,307.9997,623.8082,316.9997" style="stroke:#181818;stroke-width:1;"/><text fill="#000000" font-family="sans-serif" font-size="13" lengthAdjust="spacing" textLength="75.0928" x="660.3837" y="216.2506">HTTP :8080</text><text fill="#000000" font-family="sans-serif" font-size="13" lengthAdjust="spacing" textLength="146.2437" x="624.8082" y="231.3835">HTTPS (reverse proxy)</text></g><!--link app to postgres--><g class="link" data-entity-1="ent0008" data-entity-2="ent0005" data-link-type="dependency" data-source-line="54" id="lnk18"><path d="M631.8312,480.3791 C631.9361,480.6835 632.0423,480.9877 632.1498,481.2916 C632.5801,482.5072 633.0324,483.7184 633.5078,484.9222 C634.4585,487.3298 635.5016,489.7079 636.6459,492.032 C641.2232,501.3287 647.4207,509.7637 655.8082,515.7837 C674.0982,528.8938 1043.8982,508.9338 1060.8082,523.7837 C1066.037,528.3725 1067.2647,528.5416 1070.662,534.4207" fill="none" id="app-to-postgres" style="stroke:#181818;stroke-width:1;"/><polygon fill="#181818" points="1073.664,539.6157,1072.6243,529.8218,1071.1623,535.2865,1065.6977,533.8245,1073.664,539.6157" style="stroke:#181818;stroke-width:1;"/><text fill="#000000" font-family="sans-serif" font-size="13" lengthAdjust="spacing" textLength="31.8398" x="781.1937" y="496.8506">JDBC</text><text fill="#000000" font-family="sans-serif" font-size="13" lengthAdjust="spacing" textLength="280.6108" x="656.8082" y="511.9835">:jdbc:postgresql://postgres:5432/bookstore</text></g><!--link app to postgres--><g class="link" data-entity-1="ent0008" data-entity-2="ent0005" data-link-type="dependency" data-source-line="57" id="lnk19"><path d="M632.0633,427.8813 C632.2252,427.8995 632.3893,427.918 632.5557,427.9367 C632.8884,427.9742 633.23,428.0128 633.5805,428.0525 C639.1877,428.6879 647.0509,429.6064 656.7586,430.8103 C676.1739,433.2181 702.967,436.7675 733.8457,441.4763 C795.6032,450.8938 873.7032,464.9488 941.8082,483.7838 C980.4282,494.4637 987.7582,504.1437 1026.0982,515.7837 C1041.2482,520.3738 1050.0482,512.1637 1060.8082,523.7837 C1063.172,526.3356 1065.3168,529.0496 1067.2607,531.8962 C1068.2326,533.3195 1069.1543,534.7759 1070.028,536.2617 C1070.4648,537.0047 1070.8897,537.755 1071.3028,538.5121 C1071.5094,538.8907 1068.9218,533.9598 1069.1225,534.3418" fill="none" id="app-to-postgres-1" style="stroke:#181818;stroke-width:1;stroke-dasharray:7,7;"/><polygon fill="#181818" points="1071.9138,539.653,1071.2677,529.8254,1069.5877,535.227,1064.1861,533.547,1071.9138,539.653" style="stroke:#181818;stroke-width:1;"/><text fill="#000000" font-family="sans-serif" font-size="13" lengthAdjust="spacing" textLength="100.1406" x="1035.1947" y="496.8506">Flyway migrate</text><text fill="#000000" font-family="sans-serif" font-size="13" lengthAdjust="spacing" textLength="116.3335" x="1027.0982" y="511.9835">on container start</text></g><?plantuml-src ZLFBRjf05DtxAwxeedI1UJS49P703mL20iL4wGAf6km9cM9ctF4uX5QLkke7LFt2V4dlsCQ1baXbWtqzzvnppvmRhnYFY2Hhu2AWyCq0_FM9lrfAaV304g6GyCRfk2tNphu96L2PrnjMqsdNqhehk3giVZVY0ZmWYYn8_2g1tN9iktU4uAJdlFyV0Y8LkoU-Uet0TTscTMG2jtbgrHi7K7ueak1Ld8vxwXuHshFxxRwDE8PYAgHWqoWKspNb2cOYmZFBBJp_-0ssy5TKWYNMaK0xF8K4SzuNOXKh8IdqeYXaFb5CSCDu2-Vdvt3hELFzOAGtLBgDiRylnGR_It1sPeKCMIukqXaxJYTNNXXIkfnTZwgMvrM7tfoNXzu49EMed0RlIbfmncAFhIlaiSRNax7dW3VhMLSfQsP7AHT-AMA5AFcRmvUCqtSb8344QUdJ0nv0AJKqoisbPBfnNhMKDDQQFIeVcKzHzDdP9Ajx7qPGFwcGC494FKqMYHpYSAAz5er4vPnFX5HTQBUQ3IWphgZa9CJnThr5_agBmcgxZuDeDxjG5FCMTEL5E8cYlpNViJ1mmoqqJysQMOSg3EqhQDIrx6nLZigUZiSpSqEazY-D1mr02QZkwNmvZF0RiWLhD9ZpnthThDVCzh5pLeB2r-nh6XdmVCaY5IC3Pa9k8u5UcF73KOOz5uTstvfpMpBq4igjXdbYdXpjsGsEid8kfF85lsVBHDAAjZaMYVIfwOUiCBC8cVDnvanlUYEuSMPtu-cLjvVhGNfhL6cldQVi1lDK_nFfIRB0BO4RgZP2hlPIF7L6lTbWVEDT3YOPE7v8D-Rvvo-zN4QYNogL2y1hXQxUZja4kfrQfpRd-jc3igHe0sObak9fYqCW17Qc27QU8qDtQvHTgZLKvcBtSx3mkxlwbx1RhUvUkZgVrI9iAN9-ppBXCJ0UCxH2OwEdYk0co9J9D0-PygOrMqgYw9pZpHSD42iqgcJy0G00?></g></svg>